<svg width="385" height="198" viewBox="0 0 385 198" fill="none" xmlns="http://www.w3.org/2000/svg">
<rect x="60.5" y="13.5" width="240" height="171" rx="11.5" stroke="#E62937"/>
<path d="M111.707 99.7071C112.098 99.3166 112.098 98.6834 111.707 98.2929L105.343 91.9289C104.953 91.5384 104.319 91.5384 103.929 91.9289C103.538 92.3195 103.538 92.9526 103.929 93.3431L109.586 99L103.929 104.657C103.538 105.047 103.538 105.681 103.929 106.071C104.319 106.462 104.953 106.462 105.343 106.071L111.707 99.7071ZM40 100H111V98H40V100Z" fill="white"/>
<path d="M344.707 99.7071C345.098 99.3166 345.098 98.6834 344.707 98.2929L338.343 91.9289C337.953 91.5384 337.319 91.5384 336.929 91.9289C336.538 92.3195 336.538 92.9526 336.929 93.3431L342.586 99L336.929 104.657C336.538 105.047 336.538 105.681 336.929 106.071C337.319 106.462 337.953 106.462 338.343 106.071L344.707 99.7071ZM273 100H344V98H273V100Z" fill="white"/>
<path d="M34.68 106C34.5333 105.64 34.36 105.233 34.16 104.78C33.96 104.327 33.7467 103.86 33.52 103.38C33.2933 102.9 33.0467 102.42 32.78 101.94C32.5267 101.46 32.26 101.013 31.98 100.6C31.5133 101.347 31.0467 102.207 30.58 103.18C30.1133 104.14 29.68 105.08 29.28 106H27.5C27.94 105.013 28.4533 103.947 29.04 102.8C29.6267 101.64 30.2533 100.527 30.92 99.46L27.7 93.62H29.52L31.94 98.36L34.54 93.62H36.32L33.04 99.4C33.68 100.44 34.3 101.52 34.9 102.64C35.5 103.76 36.0333 104.88 36.5 106H34.68Z" fill="#00E430"/>
<path d="M358.68 106C358.533 105.64 358.36 105.233 358.16 104.78C357.96 104.327 357.747 103.86 357.52 103.38C357.293 102.9 357.047 102.42 356.78 101.94C356.527 101.46 356.26 101.013 355.98 100.6C355.513 101.347 355.047 102.207 354.58 103.18C354.113 104.14 353.68 105.08 353.28 106H351.5C351.94 105.013 352.453 103.947 353.04 102.8C353.627 101.64 354.253 100.527 354.92 99.46L351.7 93.62H353.52L355.94 98.36L358.54 93.62H360.32L357.04 99.4C357.68 100.44 358.3 101.52 358.9 102.64C359.5 103.76 360.033 104.88 360.5 106H358.68ZM366.74 93.62L370.2 99.7L368.88 100.38L366 95.34L363.12 100.38L361.8 99.7L365.26 93.62H366.74ZM379.4 96.78C379.4 97.2067 379.313 97.62 379.14 98.02C378.98 98.42 378.76 98.8133 378.48 99.2C378.213 99.5867 377.907 99.9667 377.56 100.34C377.213 100.713 376.86 101.08 376.5 101.44C376.3 101.64 376.067 101.88 375.8 102.16C375.533 102.44 375.28 102.727 375.04 103.02C374.8 103.313 374.6 103.6 374.44 103.88C374.28 104.16 374.2 104.4 374.2 104.6H379.9V106H372.4C372.387 105.933 372.38 105.867 372.38 105.8C372.38 105.72 372.38 105.647 372.38 105.58C372.38 105.02 372.473 104.5 372.66 104.02C372.847 103.54 373.087 103.087 373.38 102.66C373.673 102.233 374 101.833 374.36 101.46C374.733 101.073 375.1 100.7 375.46 100.34C375.753 100.047 376.033 99.76 376.3 99.48C376.58 99.2 376.82 98.92 377.02 98.64C377.233 98.36 377.4 98.0733 377.52 97.78C377.653 97.4733 377.72 97.16 377.72 96.84C377.72 96.48 377.66 96.1733 377.54 95.92C377.433 95.6667 377.28 95.46 377.08 95.3C376.893 95.1267 376.673 95 376.42 94.92C376.167 94.84 375.893 94.8 375.6 94.8C375.253 94.8 374.933 94.8467 374.64 94.94C374.36 95.0333 374.107 95.1467 373.88 95.28C373.667 95.4133 373.48 95.5467 373.32 95.68C373.16 95.8 373.04 95.9 372.96 95.98L372.14 94.82C372.247 94.7 372.407 94.5533 372.62 94.38C372.833 94.2067 373.087 94.0467 373.38 93.9C373.687 93.74 374.027 93.6067 374.4 93.5C374.773 93.3933 375.173 93.34 375.6 93.34C376.893 93.34 377.847 93.64 378.46 94.24C379.087 94.8267 379.4 95.6733 379.4 96.78Z" fill="#00E430"/>
<path d="M141.26 106V93.62H148.84V95.66H143.72V98.66H148.2V100.7H143.72V106H141.26ZM158.76 105.68C158.307 105.8 157.753 105.92 157.1 106.04C156.46 106.16 155.76 106.22 155 106.22C154.227 106.22 153.593 106.113 153.1 105.9C152.607 105.687 152.213 105.387 151.92 105C151.64 104.6 151.447 104.133 151.34 103.6C151.233 103.067 151.18 102.48 151.18 101.84V96.6H153.64V101.52C153.64 102.387 153.74 103.033 153.94 103.46C154.153 103.873 154.56 104.08 155.16 104.08C155.533 104.08 155.907 104.047 156.28 103.98V96.6H158.76V105.68ZM161.26 96.9C161.7 96.78 162.24 96.6667 162.88 96.56C163.533 96.4533 164.24 96.4 165 96.4C165.747 96.4 166.367 96.5067 166.86 96.72C167.353 96.92 167.74 97.2133 168.02 97.6C168.313 97.9733 168.52 98.4267 168.64 98.96C168.76 99.48 168.82 100.06 168.82 100.7V106H166.36V101.02C166.36 100.14 166.26 99.5067 166.06 99.12C165.86 98.7333 165.453 98.54 164.84 98.54C164.653 98.54 164.467 98.5467 164.28 98.56C164.107 98.5733 163.92 98.5933 163.72 98.62V106H161.26V96.9ZM170.88 101.3C170.88 100.62 170.987 99.98 171.2 99.38C171.413 98.78 171.74 98.26 172.18 97.82C172.62 97.3667 173.173 97.0133 173.84 96.76C174.52 96.4933 175.327 96.36 176.26 96.36C176.82 96.36 177.327 96.4 177.78 96.48C178.233 96.56 178.693 96.6933 179.16 96.88L178.62 98.86C178.353 98.7667 178.053 98.6867 177.72 98.62C177.4 98.54 176.987 98.5 176.48 98.5C175.893 98.5 175.4 98.5733 175 98.72C174.613 98.8533 174.3 99.0467 174.06 99.3C173.82 99.54 173.647 99.8333 173.54 100.18C173.433 100.527 173.38 100.9 173.38 101.3C173.38 102.167 173.62 102.847 174.1 103.34C174.593 103.833 175.427 104.08 176.6 104.08C176.987 104.08 177.387 104.053 177.8 104C178.227 103.947 178.613 103.86 178.96 103.74L179.32 105.76C178.973 105.893 178.553 106 178.06 106.08C177.567 106.173 176.987 106.22 176.32 106.22C175.36 106.22 174.533 106.093 173.84 105.84C173.16 105.587 172.6 105.24 172.16 104.8C171.72 104.36 171.393 103.84 171.18 103.24C170.98 102.64 170.88 101.993 170.88 101.3ZM182.86 98.64H180.72V96.6H182.86V94.24L185.32 93.84V96.6H189.26V98.64H185.32V102.44C185.32 102.787 185.353 103.067 185.42 103.28C185.487 103.493 185.58 103.66 185.7 103.78C185.82 103.9 185.967 103.98 186.14 104.02C186.313 104.06 186.507 104.08 186.72 104.08C186.947 104.08 187.153 104.073 187.34 104.06C187.54 104.047 187.727 104.027 187.9 104C188.087 103.96 188.273 103.907 188.46 103.84C188.66 103.773 188.873 103.687 189.1 103.58L189.44 105.7C188.987 105.887 188.493 106.02 187.96 106.1C187.44 106.18 186.933 106.22 186.44 106.22C185.867 106.22 185.36 106.173 184.92 106.08C184.48 105.987 184.107 105.807 183.8 105.54C183.493 105.273 183.26 104.9 183.1 104.42C182.94 103.927 182.86 103.287 182.86 102.5V98.64ZM195.68 93.9C195.68 94.38 195.527 94.76 195.22 95.04C194.913 95.32 194.547 95.46 194.12 95.46C193.693 95.46 193.327 95.32 193.02 95.04C192.727 94.76 192.58 94.38 192.58 93.9C192.58 93.4067 192.727 93.02 193.02 92.74C193.327 92.46 193.693 92.32 194.12 92.32C194.547 92.32 194.913 92.46 195.22 92.74C195.527 93.02 195.68 93.4067 195.68 93.9ZM199.34 105.6C198.833 105.84 198.353 106 197.9 106.08C197.46 106.173 197.053 106.22 196.68 106.22C196.04 106.22 195.5 106.127 195.06 105.94C194.633 105.753 194.287 105.487 194.02 105.14C193.767 104.78 193.587 104.347 193.48 103.84C193.373 103.333 193.32 102.753 193.32 102.1V98.64H190.72V96.6H195.78V102.42C195.78 102.98 195.88 103.4 196.08 103.68C196.293 103.947 196.64 104.08 197.12 104.08C197.347 104.08 197.62 104.053 197.94 104C198.26 103.933 198.62 103.807 199.02 103.62L199.34 105.6ZM209.44 101.28C209.44 102.027 209.333 102.707 209.12 103.32C208.907 103.92 208.607 104.44 208.22 104.88C207.833 105.32 207.367 105.66 206.82 105.9C206.287 106.14 205.687 106.26 205.02 106.26C204.353 106.26 203.747 106.14 203.2 105.9C202.667 105.66 202.2 105.32 201.8 104.88C201.413 104.44 201.113 103.92 200.9 103.32C200.687 102.707 200.58 102.027 200.58 101.28C200.58 100.547 200.687 99.88 200.9 99.28C201.127 98.6667 201.433 98.1467 201.82 97.72C202.22 97.28 202.693 96.9467 203.24 96.72C203.787 96.48 204.38 96.36 205.02 96.36C205.673 96.36 206.267 96.48 206.8 96.72C207.347 96.9467 207.813 97.28 208.2 97.72C208.6 98.1467 208.907 98.6667 209.12 99.28C209.333 99.88 209.44 100.547 209.44 101.28ZM203.08 101.3C203.08 102.14 203.227 102.82 203.52 103.34C203.827 103.86 204.313 104.12 204.98 104.12C205.62 104.12 206.1 103.86 206.42 103.34C206.753 102.82 206.92 102.14 206.92 101.3C206.92 100.46 206.767 99.7867 206.46 99.28C206.167 98.76 205.687 98.5 205.02 98.5C204.38 98.5 203.893 98.76 203.56 99.28C203.24 99.7867 203.08 100.46 203.08 101.3ZM211.26 96.9C211.7 96.78 212.24 96.6667 212.88 96.56C213.533 96.4533 214.24 96.4 215 96.4C215.747 96.4 216.367 96.5067 216.86 96.72C217.353 96.92 217.74 97.2133 218.02 97.6C218.313 97.9733 218.52 98.4267 218.64 98.96C218.76 99.48 218.82 100.06 218.82 100.7V106H216.36V101.02C216.36 100.14 216.26 99.5067 216.06 99.12C215.86 98.7333 215.453 98.54 214.84 98.54C214.653 98.54 214.467 98.5467 214.28 98.56C214.107 98.5733 213.92 98.5933 213.72 98.62V106H211.26V96.9Z" fill="#0079F1"/>
</svg>
