<svg width="523" height="198" viewBox="0 0 523 198" fill="none" xmlns="http://www.w3.org/2000/svg">
<rect x="109.5" y="13.5" width="240" height="171" rx="11.5" stroke="#E62937"/>
<path d="M160.707 99.7071C161.098 99.3166 161.098 98.6834 160.707 98.2929L154.343 91.9289C153.953 91.5384 153.319 91.5384 152.929 91.9289C152.538 92.3195 152.538 92.9526 152.929 93.3431L158.586 99L152.929 104.657C152.538 105.047 152.538 105.681 152.929 106.071C153.319 106.462 153.953 106.462 154.343 106.071L160.707 99.7071ZM89 100H160V98H89V100Z" fill="white"/>
<path d="M393.707 99.7071C394.098 99.3166 394.098 98.6834 393.707 98.2929L387.343 91.9289C386.953 91.5384 386.319 91.5384 385.929 91.9289C385.538 92.3195 385.538 92.9526 385.929 93.3431L391.586 99L385.929 104.657C385.538 105.047 385.538 105.681 385.929 106.071C386.319 106.462 386.953 106.462 387.343 106.071L393.707 99.7071ZM322 100H393V98H322V100Z" fill="white"/>
<path d="M17.02 96.78L18.94 90.62H20.48C20.7467 92.5667 20.9333 94.56 21.04 96.6C21.16 98.64 21.2667 100.773 21.36 103H19.76C19.7467 102.28 19.7333 101.5 19.72 100.66C19.7067 99.82 19.6867 98.9533 19.66 98.06C19.6467 97.1667 19.6267 96.26 19.6 95.34C19.5867 94.42 19.5667 93.5267 19.54 92.66L17.74 98.3H16.3L14.46 92.66C14.4467 93.5267 14.4267 94.42 14.4 95.34C14.3867 96.2467 14.3667 97.1533 14.34 98.06C14.3267 98.9533 14.3067 99.82 14.28 100.66C14.2667 101.5 14.2533 102.28 14.24 103H12.64C12.68 101.987 12.7267 100.947 12.78 99.88C12.8333 98.8133 12.8933 97.7533 12.96 96.7C13.04 95.6467 13.1267 94.6067 13.22 93.58C13.3267 92.5533 13.44 91.5667 13.56 90.62H15.08L17.02 96.78ZM27.18 93.5C28.4333 93.5 29.4 93.8933 30.08 94.68C30.76 95.4533 31.1 96.6333 31.1 98.22V98.8H24.46C24.5267 99.76 24.84 100.493 25.4 101C25.9733 101.493 26.7733 101.74 27.8 101.74C28.3867 101.74 28.8867 101.693 29.3 101.6C29.7133 101.507 30.0267 101.407 30.24 101.3L30.46 102.7C30.26 102.807 29.9 102.92 29.38 103.04C28.86 103.16 28.2733 103.22 27.62 103.22C26.82 103.22 26.1133 103.1 25.5 102.86C24.9 102.607 24.4 102.267 24 101.84C23.6 101.413 23.3 100.907 23.1 100.32C22.9 99.72 22.8 99.0733 22.8 98.38C22.8 97.5533 22.9267 96.8333 23.18 96.22C23.4333 95.6067 23.7667 95.1 24.18 94.7C24.5933 94.3 25.06 94 25.58 93.8C26.1 93.6 26.6333 93.5 27.18 93.5ZM29.42 97.46C29.42 96.6733 29.2133 96.0533 28.8 95.6C28.3867 95.1333 27.84 94.9 27.16 94.9C26.7733 94.9 26.42 94.9733 26.1 95.12C25.7933 95.2667 25.5267 95.46 25.3 95.7C25.0733 95.94 24.8933 96.2133 24.76 96.52C24.6267 96.8267 24.54 97.14 24.5 97.46H29.42ZM37.1 101.82C37.5133 101.82 37.88 101.807 38.2 101.78C38.5333 101.753 38.8067 101.72 39.02 101.68V98.92C38.8067 98.8533 38.5467 98.8 38.24 98.76C37.9467 98.72 37.6333 98.7 37.3 98.7C36.9933 98.7 36.6933 98.7267 36.4 98.78C36.1067 98.82 35.8467 98.9 35.62 99.02C35.3933 99.14 35.2067 99.3 35.06 99.5C34.9133 99.6867 34.84 99.9267 34.84 100.22C34.84 100.82 35.04 101.24 35.44 101.48C35.8533 101.707 36.4067 101.82 37.1 101.82ZM36.94 93.5C37.6333 93.5 38.2133 93.5867 38.68 93.76C39.16 93.9333 39.5467 94.1733 39.84 94.48C40.1333 94.7867 40.34 95.16 40.46 95.6C40.58 96.04 40.64 96.52 40.64 97.04V102.84C40.2533 102.907 39.74 102.987 39.1 103.08C38.4733 103.173 37.8267 103.22 37.16 103.22C36.6533 103.22 36.16 103.173 35.68 103.08C35.2 103 34.7733 102.853 34.4 102.64C34.0267 102.413 33.7267 102.107 33.5 101.72C33.2733 101.333 33.16 100.84 33.16 100.24C33.16 99.7067 33.2733 99.26 33.5 98.9C33.74 98.5267 34.04 98.2267 34.4 98C34.7733 97.7733 35.1933 97.6133 35.66 97.52C36.14 97.4133 36.62 97.36 37.1 97.36C37.7533 97.36 38.3933 97.4333 39.02 97.58V97.12C39.02 96.84 38.9867 96.5733 38.92 96.32C38.8667 96.0533 38.7533 95.8133 38.58 95.6C38.42 95.3867 38.1933 95.22 37.9 95.1C37.62 94.9667 37.2533 94.9 36.8 94.9C36.2267 94.9 35.7267 94.94 35.3 95.02C34.8733 95.1 34.5467 95.18 34.32 95.26L34.12 93.9C34.3467 93.7933 34.72 93.7 35.24 93.62C35.7733 93.54 36.34 93.5 36.94 93.5ZM43.42 93.98C44.02 93.8333 44.6133 93.72 45.2 93.64C45.8 93.56 46.36 93.52 46.88 93.52C48.12 93.52 49.0533 93.84 49.68 94.48C50.32 95.12 50.64 96.1467 50.64 97.56V103H49V97.86C49 97.26 48.9467 96.7733 48.84 96.4C48.7333 96.0267 48.58 95.74 48.38 95.54C48.1933 95.3267 47.96 95.18 47.68 95.1C47.4133 95.02 47.12 94.98 46.8 94.98C46.5333 94.98 46.2467 95 45.94 95.04C45.6467 95.0667 45.36 95.1067 45.08 95.16V103H43.42V93.98ZM56.18 92.28C55.8333 92.28 55.5333 92.16 55.28 91.92C55.0267 91.68 54.9 91.3533 54.9 90.94C54.9 90.5267 55.0267 90.2 55.28 89.96C55.5333 89.72 55.8333 89.6 56.18 89.6C56.54 89.6 56.84 89.72 57.08 89.96C57.3333 90.2 57.46 90.5267 57.46 90.94C57.46 91.3533 57.3333 91.68 57.08 91.92C56.84 92.16 56.54 92.28 56.18 92.28ZM55.76 95.1H53.08V93.72H57.4V99.42C57.4 100.34 57.5267 100.96 57.78 101.28C58.0333 101.587 58.4133 101.74 58.92 101.74C59.3067 101.74 59.66 101.693 59.98 101.6C60.3133 101.507 60.5733 101.407 60.76 101.3L61 102.7C60.92 102.74 60.8067 102.793 60.66 102.86C60.5133 102.913 60.34 102.967 60.14 103.02C59.9533 103.073 59.74 103.12 59.5 103.16C59.2733 103.2 59.0333 103.22 58.78 103.22C58.1933 103.22 57.7067 103.14 57.32 102.98C56.9333 102.82 56.62 102.58 56.38 102.26C56.1533 101.94 55.9933 101.547 55.9 101.08C55.8067 100.6 55.76 100.047 55.76 99.42V95.1ZM63.42 93.98C64.02 93.8333 64.6133 93.72 65.2 93.64C65.8 93.56 66.36 93.52 66.88 93.52C68.12 93.52 69.0533 93.84 69.68 94.48C70.32 95.12 70.64 96.1467 70.64 97.56V103H69V97.86C69 97.26 68.9467 96.7733 68.84 96.4C68.7333 96.0267 68.58 95.74 68.38 95.54C68.1933 95.3267 67.96 95.18 67.68 95.1C67.4133 95.02 67.12 94.98 66.8 94.98C66.5333 94.98 66.2467 95 65.94 95.04C65.6467 95.0667 65.36 95.1067 65.08 95.16V103H63.42V93.98ZM78.92 102.14C78.7333 102.247 78.4467 102.36 78.06 102.48C77.6733 102.6 77.2267 102.66 76.72 102.66C76.1733 102.66 75.66 102.573 75.18 102.4C74.7133 102.213 74.3 101.94 73.94 101.58C73.5933 101.207 73.3133 100.74 73.1 100.18C72.9 99.6067 72.8 98.9333 72.8 98.16C72.8 97.48 72.8933 96.86 73.08 96.3C73.28 95.7267 73.56 95.2333 73.92 94.82C74.2933 94.4067 74.7467 94.0867 75.28 93.86C75.8133 93.62 76.42 93.5 77.1 93.5C77.9 93.5 78.58 93.56 79.14 93.68C79.7133 93.7867 80.1933 93.8933 80.58 94V102.28C80.58 103.72 80.2133 104.76 79.48 105.4C78.76 106.04 77.6667 106.36 76.2 106.36C75.6 106.36 75.0533 106.313 74.56 106.22C74.08 106.127 73.6533 106.013 73.28 105.88L73.58 104.42C73.9267 104.567 74.32 104.687 74.76 104.78C75.2133 104.873 75.7067 104.92 76.24 104.92C77.2 104.92 77.8867 104.727 78.3 104.34C78.7133 103.953 78.92 103.327 78.92 102.46V102.14ZM78.92 95.18C78.76 95.1267 78.54 95.08 78.26 95.04C77.98 94.9867 77.6 94.96 77.12 94.96C76.2667 94.96 75.6133 95.2533 75.16 95.84C74.72 96.4267 74.5 97.2067 74.5 98.18C74.5 98.7133 74.56 99.1733 74.68 99.56C74.8133 99.9333 74.9867 100.247 75.2 100.5C75.4267 100.74 75.68 100.92 75.96 101.04C76.24 101.147 76.54 101.2 76.86 101.2C77.2733 101.2 77.66 101.14 78.02 101.02C78.3933 100.9 78.6933 100.76 78.92 100.6V95.18Z" fill="#00E430"/>
<path d="M407.22 106C406.767 104.893 406.34 103.893 405.94 103C405.54 102.093 405.153 101.247 404.78 100.46C404.42 99.6733 404.06 98.9333 403.7 98.24C403.34 97.5333 402.973 96.8267 402.6 96.12V106H401.1V93.62H402.78C403.327 94.62 403.8 95.4933 404.2 96.24C404.613 96.9867 404.987 97.7133 405.32 98.42C405.667 99.1133 406 99.8333 406.32 100.58C406.64 101.313 407 102.167 407.4 103.14V93.62H408.9V106H407.22ZM415.18 96.5C416.433 96.5 417.4 96.8933 418.08 97.68C418.76 98.4533 419.1 99.6333 419.1 101.22V101.8H412.46C412.527 102.76 412.84 103.493 413.4 104C413.973 104.493 414.773 104.74 415.8 104.74C416.387 104.74 416.887 104.693 417.3 104.6C417.713 104.507 418.027 104.407 418.24 104.3L418.46 105.7C418.26 105.807 417.9 105.92 417.38 106.04C416.86 106.16 416.273 106.22 415.62 106.22C414.82 106.22 414.113 106.1 413.5 105.86C412.9 105.607 412.4 105.267 412 104.84C411.6 104.413 411.3 103.907 411.1 103.32C410.9 102.72 410.8 102.073 410.8 101.38C410.8 100.553 410.927 99.8333 411.18 99.22C411.433 98.6067 411.767 98.1 412.18 97.7C412.593 97.3 413.06 97 413.58 96.8C414.1 96.6 414.633 96.5 415.18 96.5ZM417.42 100.46C417.42 99.6733 417.213 99.0533 416.8 98.6C416.387 98.1333 415.84 97.9 415.16 97.9C414.773 97.9 414.42 97.9733 414.1 98.12C413.793 98.2667 413.527 98.46 413.3 98.7C413.073 98.94 412.893 99.2133 412.76 99.52C412.627 99.8267 412.54 100.14 412.5 100.46H417.42ZM426.86 106C426.66 105.547 426.487 105.133 426.34 104.76C426.193 104.387 426.047 104.013 425.9 103.64C425.767 103.267 425.627 102.88 425.48 102.48C425.347 102.067 425.187 101.6 425 101.08C424.813 101.6 424.647 102.067 424.5 102.48C424.353 102.88 424.207 103.267 424.06 103.64C423.927 104.013 423.78 104.387 423.62 104.76C423.473 105.133 423.3 105.547 423.1 106H421.86C421.487 104.36 421.173 102.74 420.92 101.14C420.68 99.5267 420.5 98.0533 420.38 96.72H421.94C421.98 97.24 422.02 97.7533 422.06 98.26C422.113 98.7533 422.173 99.2733 422.24 99.82C422.307 100.367 422.38 100.96 422.46 101.6C422.553 102.24 422.653 102.96 422.76 103.76C422.973 103.227 423.153 102.76 423.3 102.36C423.447 101.96 423.58 101.58 423.7 101.22C423.82 100.86 423.933 100.493 424.04 100.12C424.16 99.7467 424.287 99.3267 424.42 98.86H425.66C425.793 99.3267 425.913 99.7467 426.02 100.12C426.127 100.493 426.24 100.86 426.36 101.22C426.48 101.58 426.607 101.96 426.74 102.36C426.873 102.76 427.04 103.22 427.24 103.74C427.36 103.007 427.467 102.327 427.56 101.7C427.653 101.073 427.733 100.487 427.8 99.94C427.867 99.38 427.927 98.84 427.98 98.32C428.033 97.8 428.08 97.2667 428.12 96.72H429.62C429.553 97.3867 429.473 98.1 429.38 98.86C429.287 99.62 429.173 100.4 429.04 101.2C428.907 102 428.76 102.813 428.6 103.64C428.44 104.453 428.273 105.24 428.1 106H426.86ZM445.02 99.78L446.94 93.62H448.48C448.747 95.5667 448.933 97.56 449.04 99.6C449.16 101.64 449.267 103.773 449.36 106H447.76C447.747 105.28 447.733 104.5 447.72 103.66C447.707 102.82 447.687 101.953 447.66 101.06C447.647 100.167 447.627 99.26 447.6 98.34C447.587 97.42 447.567 96.5267 447.54 95.66L445.74 101.3H444.3L442.46 95.66C442.447 96.5267 442.427 97.42 442.4 98.34C442.387 99.2467 442.367 100.153 442.34 101.06C442.327 101.953 442.307 102.82 442.28 103.66C442.267 104.5 442.253 105.28 442.24 106H440.64C440.68 104.987 440.727 103.947 440.78 102.88C440.833 101.813 440.893 100.753 440.96 99.7C441.04 98.6467 441.127 97.6067 441.22 96.58C441.327 95.5533 441.44 94.5667 441.56 93.62H443.08L445.02 99.78ZM455.18 96.5C456.433 96.5 457.4 96.8933 458.08 97.68C458.76 98.4533 459.1 99.6333 459.1 101.22V101.8H452.46C452.527 102.76 452.84 103.493 453.4 104C453.973 104.493 454.773 104.74 455.8 104.74C456.387 104.74 456.887 104.693 457.3 104.6C457.713 104.507 458.027 104.407 458.24 104.3L458.46 105.7C458.26 105.807 457.9 105.92 457.38 106.04C456.86 106.16 456.273 106.22 455.62 106.22C454.82 106.22 454.113 106.1 453.5 105.86C452.9 105.607 452.4 105.267 452 104.84C451.6 104.413 451.3 103.907 451.1 103.32C450.9 102.72 450.8 102.073 450.8 101.38C450.8 100.553 450.927 99.8333 451.18 99.22C451.433 98.6067 451.767 98.1 452.18 97.7C452.593 97.3 453.06 97 453.58 96.8C454.1 96.6 454.633 96.5 455.18 96.5ZM457.42 100.46C457.42 99.6733 457.213 99.0533 456.8 98.6C456.387 98.1333 455.84 97.9 455.16 97.9C454.773 97.9 454.42 97.9733 454.1 98.12C453.793 98.2667 453.527 98.46 453.3 98.7C453.073 98.94 452.893 99.2133 452.76 99.52C452.627 99.8267 452.54 100.14 452.5 100.46H457.42ZM465.1 104.82C465.513 104.82 465.88 104.807 466.2 104.78C466.533 104.753 466.807 104.72 467.02 104.68V101.92C466.807 101.853 466.547 101.8 466.24 101.76C465.947 101.72 465.633 101.7 465.3 101.7C464.993 101.7 464.693 101.727 464.4 101.78C464.107 101.82 463.847 101.9 463.62 102.02C463.393 102.14 463.207 102.3 463.06 102.5C462.913 102.687 462.84 102.927 462.84 103.22C462.84 103.82 463.04 104.24 463.44 104.48C463.853 104.707 464.407 104.82 465.1 104.82ZM464.94 96.5C465.633 96.5 466.213 96.5867 466.68 96.76C467.16 96.9333 467.547 97.1733 467.84 97.48C468.133 97.7867 468.34 98.16 468.46 98.6C468.58 99.04 468.64 99.52 468.64 100.04V105.84C468.253 105.907 467.74 105.987 467.1 106.08C466.473 106.173 465.827 106.22 465.16 106.22C464.653 106.22 464.16 106.173 463.68 106.08C463.2 106 462.773 105.853 462.4 105.64C462.027 105.413 461.727 105.107 461.5 104.72C461.273 104.333 461.16 103.84 461.16 103.24C461.16 102.707 461.273 102.26 461.5 101.9C461.74 101.527 462.04 101.227 462.4 101C462.773 100.773 463.193 100.613 463.66 100.52C464.14 100.413 464.62 100.36 465.1 100.36C465.753 100.36 466.393 100.433 467.02 100.58V100.12C467.02 99.84 466.987 99.5733 466.92 99.32C466.867 99.0533 466.753 98.8133 466.58 98.6C466.42 98.3867 466.193 98.22 465.9 98.1C465.62 97.9667 465.253 97.9 464.8 97.9C464.227 97.9 463.727 97.94 463.3 98.02C462.873 98.1 462.547 98.18 462.32 98.26L462.12 96.9C462.347 96.7933 462.72 96.7 463.24 96.62C463.773 96.54 464.34 96.5 464.94 96.5ZM471.42 96.98C472.02 96.8333 472.613 96.72 473.2 96.64C473.8 96.56 474.36 96.52 474.88 96.52C476.12 96.52 477.053 96.84 477.68 97.48C478.32 98.12 478.64 99.1467 478.64 100.56V106H477V100.86C477 100.26 476.947 99.7733 476.84 99.4C476.733 99.0267 476.58 98.74 476.38 98.54C476.193 98.3267 475.96 98.18 475.68 98.1C475.413 98.02 475.12 97.98 474.8 97.98C474.533 97.98 474.247 98 473.94 98.04C473.647 98.0667 473.36 98.1067 473.08 98.16V106H471.42V96.98ZM484.18 95.28C483.833 95.28 483.533 95.16 483.28 94.92C483.027 94.68 482.9 94.3533 482.9 93.94C482.9 93.5267 483.027 93.2 483.28 92.96C483.533 92.72 483.833 92.6 484.18 92.6C484.54 92.6 484.84 92.72 485.08 92.96C485.333 93.2 485.46 93.5267 485.46 93.94C485.46 94.3533 485.333 94.68 485.08 94.92C484.84 95.16 484.54 95.28 484.18 95.28ZM483.76 98.1H481.08V96.72H485.4V102.42C485.4 103.34 485.527 103.96 485.78 104.28C486.033 104.587 486.413 104.74 486.92 104.74C487.307 104.74 487.66 104.693 487.98 104.6C488.313 104.507 488.573 104.407 488.76 104.3L489 105.7C488.92 105.74 488.807 105.793 488.66 105.86C488.513 105.913 488.34 105.967 488.14 106.02C487.953 106.073 487.74 106.12 487.5 106.16C487.273 106.2 487.033 106.22 486.78 106.22C486.193 106.22 485.707 106.14 485.32 105.98C484.933 105.82 484.62 105.58 484.38 105.26C484.153 104.94 483.993 104.547 483.9 104.08C483.807 103.6 483.76 103.047 483.76 102.42V98.1ZM491.42 96.98C492.02 96.8333 492.613 96.72 493.2 96.64C493.8 96.56 494.36 96.52 494.88 96.52C496.12 96.52 497.053 96.84 497.68 97.48C498.32 98.12 498.64 99.1467 498.64 100.56V106H497V100.86C497 100.26 496.947 99.7733 496.84 99.4C496.733 99.0267 496.58 98.74 496.38 98.54C496.193 98.3267 495.96 98.18 495.68 98.1C495.413 98.02 495.12 97.98 494.8 97.98C494.533 97.98 494.247 98 493.94 98.04C493.647 98.0667 493.36 98.1067 493.08 98.16V106H491.42V96.98ZM506.92 105.14C506.733 105.247 506.447 105.36 506.06 105.48C505.673 105.6 505.227 105.66 504.72 105.66C504.173 105.66 503.66 105.573 503.18 105.4C502.713 105.213 502.3 104.94 501.94 104.58C501.593 104.207 501.313 103.74 501.1 103.18C500.9 102.607 500.8 101.933 500.8 101.16C500.8 100.48 500.893 99.86 501.08 99.3C501.28 98.7267 501.56 98.2333 501.92 97.82C502.293 97.4067 502.747 97.0867 503.28 96.86C503.813 96.62 504.42 96.5 505.1 96.5C505.9 96.5 506.58 96.56 507.14 96.68C507.713 96.7867 508.193 96.8933 508.58 97V105.28C508.58 106.72 508.213 107.76 507.48 108.4C506.76 109.04 505.667 109.36 504.2 109.36C503.6 109.36 503.053 109.313 502.56 109.22C502.08 109.127 501.653 109.013 501.28 108.88L501.58 107.42C501.927 107.567 502.32 107.687 502.76 107.78C503.213 107.873 503.707 107.92 504.24 107.92C505.2 107.92 505.887 107.727 506.3 107.34C506.713 106.953 506.92 106.327 506.92 105.46V105.14ZM506.92 98.18C506.76 98.1267 506.54 98.08 506.26 98.04C505.98 97.9867 505.6 97.96 505.12 97.96C504.267 97.96 503.613 98.2533 503.16 98.84C502.72 99.4267 502.5 100.207 502.5 101.18C502.5 101.713 502.56 102.173 502.68 102.56C502.813 102.933 502.987 103.247 503.2 103.5C503.427 103.74 503.68 103.92 503.96 104.04C504.24 104.147 504.54 104.2 504.86 104.2C505.273 104.2 505.66 104.14 506.02 104.02C506.393 103.9 506.693 103.76 506.92 103.6V98.18Z" fill="#00E430"/>
<path d="M190.26 106V93.62H197.84V95.66H192.72V98.66H197.2V100.7H192.72V106H190.26ZM207.76 105.68C207.307 105.8 206.753 105.92 206.1 106.04C205.46 106.16 204.76 106.22 204 106.22C203.227 106.22 202.593 106.113 202.1 105.9C201.607 105.687 201.213 105.387 200.92 105C200.64 104.6 200.447 104.133 200.34 103.6C200.233 103.067 200.18 102.48 200.18 101.84V96.6H202.64V101.52C202.64 102.387 202.74 103.033 202.94 103.46C203.153 103.873 203.56 104.08 204.16 104.08C204.533 104.08 204.907 104.047 205.28 103.98V96.6H207.76V105.68ZM210.26 96.9C210.7 96.78 211.24 96.6667 211.88 96.56C212.533 96.4533 213.24 96.4 214 96.4C214.747 96.4 215.367 96.5067 215.86 96.72C216.353 96.92 216.74 97.2133 217.02 97.6C217.313 97.9733 217.52 98.4267 217.64 98.96C217.76 99.48 217.82 100.06 217.82 100.7V106H215.36V101.02C215.36 100.14 215.26 99.5067 215.06 99.12C214.86 98.7333 214.453 98.54 213.84 98.54C213.653 98.54 213.467 98.5467 213.28 98.56C213.107 98.5733 212.92 98.5933 212.72 98.62V106H210.26V96.9ZM219.88 101.3C219.88 100.62 219.987 99.98 220.2 99.38C220.413 98.78 220.74 98.26 221.18 97.82C221.62 97.3667 222.173 97.0133 222.84 96.76C223.52 96.4933 224.327 96.36 225.26 96.36C225.82 96.36 226.327 96.4 226.78 96.48C227.233 96.56 227.693 96.6933 228.16 96.88L227.62 98.86C227.353 98.7667 227.053 98.6867 226.72 98.62C226.4 98.54 225.987 98.5 225.48 98.5C224.893 98.5 224.4 98.5733 224 98.72C223.613 98.8533 223.3 99.0467 223.06 99.3C222.82 99.54 222.647 99.8333 222.54 100.18C222.433 100.527 222.38 100.9 222.38 101.3C222.38 102.167 222.62 102.847 223.1 103.34C223.593 103.833 224.427 104.08 225.6 104.08C225.987 104.08 226.387 104.053 226.8 104C227.227 103.947 227.613 103.86 227.96 103.74L228.32 105.76C227.973 105.893 227.553 106 227.06 106.08C226.567 106.173 225.987 106.22 225.32 106.22C224.36 106.22 223.533 106.093 222.84 105.84C222.16 105.587 221.6 105.24 221.16 104.8C220.72 104.36 220.393 103.84 220.18 103.24C219.98 102.64 219.88 101.993 219.88 101.3ZM231.86 98.64H229.72V96.6H231.86V94.24L234.32 93.84V96.6H238.26V98.64H234.32V102.44C234.32 102.787 234.353 103.067 234.42 103.28C234.487 103.493 234.58 103.66 234.7 103.78C234.82 103.9 234.967 103.98 235.14 104.02C235.313 104.06 235.507 104.08 235.72 104.08C235.947 104.08 236.153 104.073 236.34 104.06C236.54 104.047 236.727 104.027 236.9 104C237.087 103.96 237.273 103.907 237.46 103.84C237.66 103.773 237.873 103.687 238.1 103.58L238.44 105.7C237.987 105.887 237.493 106.02 236.96 106.1C236.44 106.18 235.933 106.22 235.44 106.22C234.867 106.22 234.36 106.173 233.92 106.08C233.48 105.987 233.107 105.807 232.8 105.54C232.493 105.273 232.26 104.9 232.1 104.42C231.94 103.927 231.86 103.287 231.86 102.5V98.64ZM244.68 93.9C244.68 94.38 244.527 94.76 244.22 95.04C243.913 95.32 243.547 95.46 243.12 95.46C242.693 95.46 242.327 95.32 242.02 95.04C241.727 94.76 241.58 94.38 241.58 93.9C241.58 93.4067 241.727 93.02 242.02 92.74C242.327 92.46 242.693 92.32 243.12 92.32C243.547 92.32 243.913 92.46 244.22 92.74C244.527 93.02 244.68 93.4067 244.68 93.9ZM248.34 105.6C247.833 105.84 247.353 106 246.9 106.08C246.46 106.173 246.053 106.22 245.68 106.22C245.04 106.22 244.5 106.127 244.06 105.94C243.633 105.753 243.287 105.487 243.02 105.14C242.767 104.78 242.587 104.347 242.48 103.84C242.373 103.333 242.32 102.753 242.32 102.1V98.64H239.72V96.6H244.78V102.42C244.78 102.98 244.88 103.4 245.08 103.68C245.293 103.947 245.64 104.08 246.12 104.08C246.347 104.08 246.62 104.053 246.94 104C247.26 103.933 247.62 103.807 248.02 103.62L248.34 105.6ZM258.44 101.28C258.44 102.027 258.333 102.707 258.12 103.32C257.907 103.92 257.607 104.44 257.22 104.88C256.833 105.32 256.367 105.66 255.82 105.9C255.287 106.14 254.687 106.26 254.02 106.26C253.353 106.26 252.747 106.14 252.2 105.9C251.667 105.66 251.2 105.32 250.8 104.88C250.413 104.44 250.113 103.92 249.9 103.32C249.687 102.707 249.58 102.027 249.58 101.28C249.58 100.547 249.687 99.88 249.9 99.28C250.127 98.6667 250.433 98.1467 250.82 97.72C251.22 97.28 251.693 96.9467 252.24 96.72C252.787 96.48 253.38 96.36 254.02 96.36C254.673 96.36 255.267 96.48 255.8 96.72C256.347 96.9467 256.813 97.28 257.2 97.72C257.6 98.1467 257.907 98.6667 258.12 99.28C258.333 99.88 258.44 100.547 258.44 101.28ZM252.08 101.3C252.08 102.14 252.227 102.82 252.52 103.34C252.827 103.86 253.313 104.12 253.98 104.12C254.62 104.12 255.1 103.86 255.42 103.34C255.753 102.82 255.92 102.14 255.92 101.3C255.92 100.46 255.767 99.7867 255.46 99.28C255.167 98.76 254.687 98.5 254.02 98.5C253.38 98.5 252.893 98.76 252.56 99.28C252.24 99.7867 252.08 100.46 252.08 101.3ZM260.26 96.9C260.7 96.78 261.24 96.6667 261.88 96.56C262.533 96.4533 263.24 96.4 264 96.4C264.747 96.4 265.367 96.5067 265.86 96.72C266.353 96.92 266.74 97.2133 267.02 97.6C267.313 97.9733 267.52 98.4267 267.64 98.96C267.76 99.48 267.82 100.06 267.82 100.7V106H265.36V101.02C265.36 100.14 265.26 99.5067 265.06 99.12C264.86 98.7333 264.453 98.54 263.84 98.54C263.653 98.54 263.467 98.5467 263.28 98.56C263.107 98.5733 262.92 98.5933 262.72 98.62V106H260.26V96.9Z" fill="#0079F1"/>
</svg>
