<svg width="385" height="198" viewBox="0 0 385 198" fill="none" xmlns="http://www.w3.org/2000/svg">
<rect x="60.5" y="13.5" width="240" height="171" rx="11.5" stroke="#E62937"/>
<path d="M344.707 99.7071C345.098 99.3166 345.098 98.6834 344.707 98.2929L338.343 91.9289C337.953 91.5384 337.319 91.5384 336.929 91.9289C336.538 92.3195 336.538 92.9526 336.929 93.3431L342.586 99L336.929 104.657C336.538 105.047 336.538 105.681 336.929 106.071C337.319 106.462 337.953 106.462 338.343 106.071L344.707 99.7071ZM273 100H344V98H273V100Z" fill="white"/>
<path d="M110.707 57.7071C111.098 57.3166 111.098 56.6834 110.707 56.2929L104.343 49.9289C103.953 49.5384 103.319 49.5384 102.929 49.9289C102.538 50.3195 102.538 50.9526 102.929 51.3431L108.586 57L102.929 62.6569C102.538 63.0474 102.538 63.6805 102.929 64.0711C103.319 64.4616 103.953 64.4616 104.343 64.0711L110.707 57.7071ZM39 58H110V56H39V58Z" fill="white"/>
<path d="M31.08 64L30.34 60.76H25.58L24.86 64H23.18C23.4067 63.12 23.66 62.1667 23.94 61.14C24.22 60.1133 24.52 59.06 24.84 57.98C25.1733 56.9 25.52 55.82 25.88 54.74C26.24 53.6467 26.62 52.6067 27.02 51.62H29.06C29.4467 52.6067 29.8133 53.6467 30.16 54.74C30.52 55.82 30.8533 56.9 31.16 57.98C31.48 59.06 31.78 60.1133 32.06 61.14C32.34 62.1667 32.5933 63.12 32.82 64H31.08ZM27.98 53.06C27.6733 53.9 27.34 54.8733 26.98 55.98C26.62 57.0867 26.28 58.2267 25.96 59.4H29.96C29.6533 58.2 29.32 57.0467 28.96 55.94C28.6133 54.82 28.2867 53.86 27.98 53.06Z" fill="#00E430"/>
<path d="M110.707 138.707C111.098 138.317 111.098 137.683 110.707 137.293L104.343 130.929C103.953 130.538 103.319 130.538 102.929 130.929C102.538 131.319 102.538 131.953 102.929 132.343L108.586 138L102.929 143.657C102.538 144.047 102.538 144.681 102.929 145.071C103.319 145.462 103.953 145.462 104.343 145.071L110.707 138.707ZM39 139H110V137H39V139Z" fill="white"/>
<path d="M27.08 145.1C26.88 145.1 26.6467 145.093 26.38 145.08C26.1133 145.067 25.8467 145.047 25.58 145.02C25.3133 145.007 25.0467 144.98 24.78 144.94C24.5133 144.9 24.28 144.853 24.08 144.8V132.8C24.28 132.747 24.5067 132.7 24.76 132.66C25.0267 132.62 25.2933 132.593 25.56 132.58C25.84 132.553 26.1067 132.533 26.36 132.52C26.6267 132.507 26.8667 132.5 27.08 132.5C27.6933 132.5 28.2667 132.553 28.8 132.66C29.3333 132.767 29.7933 132.947 30.18 133.2C30.58 133.453 30.8867 133.787 31.1 134.2C31.3267 134.613 31.44 135.127 31.44 135.74C31.44 136.033 31.3933 136.32 31.3 136.6C31.2067 136.867 31.0733 137.12 30.9 137.36C30.74 137.6 30.5467 137.813 30.32 138C30.1067 138.173 29.8733 138.307 29.62 138.4C30.3 138.587 30.8667 138.933 31.32 139.44C31.7867 139.933 32.02 140.58 32.02 141.38C32.02 142.607 31.6267 143.533 30.84 144.16C30.0533 144.787 28.8 145.1 27.08 145.1ZM25.72 139.22V143.64C25.7467 143.653 25.8933 143.673 26.16 143.7C26.44 143.713 26.7867 143.72 27.2 143.72C27.6133 143.72 28.0067 143.687 28.38 143.62C28.7667 143.553 29.1067 143.433 29.4 143.26C29.6933 143.073 29.9267 142.833 30.1 142.54C30.2867 142.247 30.38 141.867 30.38 141.4C30.38 140.987 30.2933 140.64 30.12 140.36C29.96 140.08 29.74 139.86 29.46 139.7C29.1933 139.527 28.88 139.407 28.52 139.34C28.16 139.26 27.7867 139.22 27.4 139.22H25.72ZM25.72 137.86H27.02C27.3533 137.86 27.6867 137.827 28.02 137.76C28.3533 137.693 28.6533 137.587 28.92 137.44C29.1867 137.293 29.4 137.093 29.56 136.84C29.72 136.587 29.8 136.267 29.8 135.88C29.8 135.52 29.7267 135.213 29.58 134.96C29.4333 134.707 29.24 134.5 29 134.34C28.76 134.18 28.48 134.067 28.16 134C27.8533 133.933 27.5267 133.9 27.18 133.9C26.8333 133.9 26.5267 133.907 26.26 133.92C26.0067 133.92 25.8267 133.933 25.72 133.96V137.86Z" fill="#00E430"/>
<path d="M355.08 103L354.34 99.76H349.58L348.86 103H347.18C347.407 102.12 347.66 101.167 347.94 100.14C348.22 99.1133 348.52 98.06 348.84 96.98C349.173 95.9 349.52 94.82 349.88 93.74C350.24 92.6467 350.62 91.6067 351.02 90.62H353.06C353.447 91.6067 353.813 92.6467 354.16 93.74C354.52 94.82 354.853 95.9 355.16 96.98C355.48 98.06 355.78 99.1133 356.06 100.14C356.34 101.167 356.593 102.12 356.82 103H355.08ZM351.98 92.06C351.673 92.9 351.34 93.8733 350.98 94.98C350.62 96.0867 350.28 97.2267 349.96 98.4H353.96C353.653 97.2 353.32 96.0467 352.96 94.94C352.613 93.82 352.287 92.86 351.98 92.06ZM357.92 97.04H361.28V93.36H362.72V97.04H366.1V98.44H362.72V102.14H361.28V98.44H357.92V97.04ZM371.08 103.1C370.88 103.1 370.647 103.093 370.38 103.08C370.113 103.067 369.847 103.047 369.58 103.02C369.313 103.007 369.047 102.98 368.78 102.94C368.513 102.9 368.28 102.853 368.08 102.8V90.8C368.28 90.7467 368.507 90.7 368.76 90.66C369.027 90.62 369.293 90.5933 369.56 90.58C369.84 90.5533 370.107 90.5333 370.36 90.52C370.627 90.5067 370.867 90.5 371.08 90.5C371.693 90.5 372.267 90.5533 372.8 90.66C373.333 90.7667 373.793 90.9467 374.18 91.2C374.58 91.4533 374.887 91.7867 375.1 92.2C375.327 92.6133 375.44 93.1267 375.44 93.74C375.44 94.0333 375.393 94.32 375.3 94.6C375.207 94.8667 375.073 95.12 374.9 95.36C374.74 95.6 374.547 95.8133 374.32 96C374.107 96.1733 373.873 96.3067 373.62 96.4C374.3 96.5867 374.867 96.9333 375.32 97.44C375.787 97.9333 376.02 98.58 376.02 99.38C376.02 100.607 375.627 101.533 374.84 102.16C374.053 102.787 372.8 103.1 371.08 103.1ZM369.72 97.22V101.64C369.747 101.653 369.893 101.673 370.16 101.7C370.44 101.713 370.787 101.72 371.2 101.72C371.613 101.72 372.007 101.687 372.38 101.62C372.767 101.553 373.107 101.433 373.4 101.26C373.693 101.073 373.927 100.833 374.1 100.54C374.287 100.247 374.38 99.8667 374.38 99.4C374.38 98.9867 374.293 98.64 374.12 98.36C373.96 98.08 373.74 97.86 373.46 97.7C373.193 97.5267 372.88 97.4067 372.52 97.34C372.16 97.26 371.787 97.22 371.4 97.22H369.72ZM369.72 95.86H371.02C371.353 95.86 371.687 95.8267 372.02 95.76C372.353 95.6933 372.653 95.5867 372.92 95.44C373.187 95.2933 373.4 95.0933 373.56 94.84C373.72 94.5867 373.8 94.2667 373.8 93.88C373.8 93.52 373.727 93.2133 373.58 92.96C373.433 92.7067 373.24 92.5 373 92.34C372.76 92.18 372.48 92.0667 372.16 92C371.853 91.9333 371.527 91.9 371.18 91.9C370.833 91.9 370.527 91.9067 370.26 91.92C370.007 91.92 369.827 91.9333 369.72 91.96V95.86Z" fill="#00E430"/>
<path d="M141.26 106V93.62H148.84V95.66H143.72V98.66H148.2V100.7H143.72V106H141.26ZM158.76 105.68C158.307 105.8 157.753 105.92 157.1 106.04C156.46 106.16 155.76 106.22 155 106.22C154.227 106.22 153.593 106.113 153.1 105.9C152.607 105.687 152.213 105.387 151.92 105C151.64 104.6 151.447 104.133 151.34 103.6C151.233 103.067 151.18 102.48 151.18 101.84V96.6H153.64V101.52C153.64 102.387 153.74 103.033 153.94 103.46C154.153 103.873 154.56 104.08 155.16 104.08C155.533 104.08 155.907 104.047 156.28 103.98V96.6H158.76V105.68ZM161.26 96.9C161.7 96.78 162.24 96.6667 162.88 96.56C163.533 96.4533 164.24 96.4 165 96.4C165.747 96.4 166.367 96.5067 166.86 96.72C167.353 96.92 167.74 97.2133 168.02 97.6C168.313 97.9733 168.52 98.4267 168.64 98.96C168.76 99.48 168.82 100.06 168.82 100.7V106H166.36V101.02C166.36 100.14 166.26 99.5067 166.06 99.12C165.86 98.7333 165.453 98.54 164.84 98.54C164.653 98.54 164.467 98.5467 164.28 98.56C164.107 98.5733 163.92 98.5933 163.72 98.62V106H161.26V96.9ZM170.88 101.3C170.88 100.62 170.987 99.98 171.2 99.38C171.413 98.78 171.74 98.26 172.18 97.82C172.62 97.3667 173.173 97.0133 173.84 96.76C174.52 96.4933 175.327 96.36 176.26 96.36C176.82 96.36 177.327 96.4 177.78 96.48C178.233 96.56 178.693 96.6933 179.16 96.88L178.62 98.86C178.353 98.7667 178.053 98.6867 177.72 98.62C177.4 98.54 176.987 98.5 176.48 98.5C175.893 98.5 175.4 98.5733 175 98.72C174.613 98.8533 174.3 99.0467 174.06 99.3C173.82 99.54 173.647 99.8333 173.54 100.18C173.433 100.527 173.38 100.9 173.38 101.3C173.38 102.167 173.62 102.847 174.1 103.34C174.593 103.833 175.427 104.08 176.6 104.08C176.987 104.08 177.387 104.053 177.8 104C178.227 103.947 178.613 103.86 178.96 103.74L179.32 105.76C178.973 105.893 178.553 106 178.06 106.08C177.567 106.173 176.987 106.22 176.32 106.22C175.36 106.22 174.533 106.093 173.84 105.84C173.16 105.587 172.6 105.24 172.16 104.8C171.72 104.36 171.393 103.84 171.18 103.24C170.98 102.64 170.88 101.993 170.88 101.3ZM182.86 98.64H180.72V96.6H182.86V94.24L185.32 93.84V96.6H189.26V98.64H185.32V102.44C185.32 102.787 185.353 103.067 185.42 103.28C185.487 103.493 185.58 103.66 185.7 103.78C185.82 103.9 185.967 103.98 186.14 104.02C186.313 104.06 186.507 104.08 186.72 104.08C186.947 104.08 187.153 104.073 187.34 104.06C187.54 104.047 187.727 104.027 187.9 104C188.087 103.96 188.273 103.907 188.46 103.84C188.66 103.773 188.873 103.687 189.1 103.58L189.44 105.7C188.987 105.887 188.493 106.02 187.96 106.1C187.44 106.18 186.933 106.22 186.44 106.22C185.867 106.22 185.36 106.173 184.92 106.08C184.48 105.987 184.107 105.807 183.8 105.54C183.493 105.273 183.26 104.9 183.1 104.42C182.94 103.927 182.86 103.287 182.86 102.5V98.64ZM195.68 93.9C195.68 94.38 195.527 94.76 195.22 95.04C194.913 95.32 194.547 95.46 194.12 95.46C193.693 95.46 193.327 95.32 193.02 95.04C192.727 94.76 192.58 94.38 192.58 93.9C192.58 93.4067 192.727 93.02 193.02 92.74C193.327 92.46 193.693 92.32 194.12 92.32C194.547 92.32 194.913 92.46 195.22 92.74C195.527 93.02 195.68 93.4067 195.68 93.9ZM199.34 105.6C198.833 105.84 198.353 106 197.9 106.08C197.46 106.173 197.053 106.22 196.68 106.22C196.04 106.22 195.5 106.127 195.06 105.94C194.633 105.753 194.287 105.487 194.02 105.14C193.767 104.78 193.587 104.347 193.48 103.84C193.373 103.333 193.32 102.753 193.32 102.1V98.64H190.72V96.6H195.78V102.42C195.78 102.98 195.88 103.4 196.08 103.68C196.293 103.947 196.64 104.08 197.12 104.08C197.347 104.08 197.62 104.053 197.94 104C198.26 103.933 198.62 103.807 199.02 103.62L199.34 105.6ZM209.44 101.28C209.44 102.027 209.333 102.707 209.12 103.32C208.907 103.92 208.607 104.44 208.22 104.88C207.833 105.32 207.367 105.66 206.82 105.9C206.287 106.14 205.687 106.26 205.02 106.26C204.353 106.26 203.747 106.14 203.2 105.9C202.667 105.66 202.2 105.32 201.8 104.88C201.413 104.44 201.113 103.92 200.9 103.32C200.687 102.707 200.58 102.027 200.58 101.28C200.58 100.547 200.687 99.88 200.9 99.28C201.127 98.6667 201.433 98.1467 201.82 97.72C202.22 97.28 202.693 96.9467 203.24 96.72C203.787 96.48 204.38 96.36 205.02 96.36C205.673 96.36 206.267 96.48 206.8 96.72C207.347 96.9467 207.813 97.28 208.2 97.72C208.6 98.1467 208.907 98.6667 209.12 99.28C209.333 99.88 209.44 100.547 209.44 101.28ZM203.08 101.3C203.08 102.14 203.227 102.82 203.52 103.34C203.827 103.86 204.313 104.12 204.98 104.12C205.62 104.12 206.1 103.86 206.42 103.34C206.753 102.82 206.92 102.14 206.92 101.3C206.92 100.46 206.767 99.7867 206.46 99.28C206.167 98.76 205.687 98.5 205.02 98.5C204.38 98.5 203.893 98.76 203.56 99.28C203.24 99.7867 203.08 100.46 203.08 101.3ZM211.26 96.9C211.7 96.78 212.24 96.6667 212.88 96.56C213.533 96.4533 214.24 96.4 215 96.4C215.747 96.4 216.367 96.5067 216.86 96.72C217.353 96.92 217.74 97.2133 218.02 97.6C218.313 97.9733 218.52 98.4267 218.64 98.96C218.76 99.48 218.82 100.06 218.82 100.7V106H216.36V101.02C216.36 100.14 216.26 99.5067 216.06 99.12C215.86 98.7333 215.453 98.54 214.84 98.54C214.653 98.54 214.467 98.5467 214.28 98.56C214.107 98.5733 213.92 98.5933 213.72 98.62V106H211.26V96.9Z" fill="#0079F1"/>
</svg>
