<svg width="199" height="390" viewBox="0 0 199 390" fill="none" xmlns="http://www.w3.org/2000/svg">
<rect x="4.5" y="58.5" width="189" height="276" rx="11.5" stroke="#E62937" stroke-linejoin="round"/>
<path d="M36.2929 90.7071C36.6834 91.0976 37.3166 91.0976 37.7071 90.7071L44.0711 84.3431C44.4616 83.9526 44.4616 83.3195 44.0711 82.9289C43.6805 82.5384 43.0474 82.5384 42.6569 82.9289L37 88.5858L31.3431 82.9289C30.9526 82.5384 30.3195 82.5384 29.9289 82.9289C29.5384 83.3195 29.5384 83.9526 29.9289 84.3431L36.2929 90.7071ZM36 46L36 90L38 90L38 46L36 46Z" fill="white"/>
<path d="M72.2929 90.7071C72.6834 91.0976 73.3166 91.0976 73.7071 90.7071L80.0711 84.3431C80.4616 83.9526 80.4616 83.3195 80.0711 82.9289C79.6805 82.5384 79.0474 82.5384 78.6569 82.9289L73 88.5858L67.3431 82.9289C66.9526 82.5384 66.3195 82.5384 65.9289 82.9289C65.5384 83.3195 65.5384 83.9526 65.9289 84.3431L72.2929 90.7071ZM72 46L72 90L74 90L74 46L72 46Z" fill="white"/>
<path d="M80.2929 348.707C80.6834 349.098 81.3166 349.098 81.7071 348.707L88.0711 342.343C88.4616 341.953 88.4616 341.319 88.0711 340.929C87.6805 340.538 87.0474 340.538 86.6569 340.929L81 346.586L75.3431 340.929C74.9526 340.538 74.3195 340.538 73.9289 340.929C73.5384 341.319 73.5384 341.953 73.9289 342.343L80.2929 348.707ZM80 320V348H82V320H80Z" fill="white"/>
<path d="M116.293 372.707C116.683 373.098 117.317 373.098 117.707 372.707L124.071 366.343C124.462 365.953 124.462 365.319 124.071 364.929C123.681 364.538 123.047 364.538 122.657 364.929L117 370.586L111.343 364.929C110.953 364.538 110.319 364.538 109.929 364.929C109.538 365.319 109.538 365.953 109.929 366.343L116.293 372.707ZM116 320V372H118V320H116Z" fill="white"/>
<path d="M124.293 90.7071C124.683 91.0976 125.317 91.0976 125.707 90.7071L132.071 84.3431C132.462 83.9526 132.462 83.3195 132.071 82.9289C131.681 82.5384 131.047 82.5384 130.657 82.9289L125 88.5858L119.343 82.9289C118.953 82.5384 118.319 82.5384 117.929 82.9289C117.538 83.3195 117.538 83.9526 117.929 84.3431L124.293 90.7071ZM124 46L124 90L126 90L126 46L124 46Z" fill="white"/>
<path d="M160.293 90.7071C160.683 91.0976 161.317 91.0976 161.707 90.7071L168.071 84.3431C168.462 83.9526 168.462 83.3195 168.071 82.9289C167.681 82.5384 167.047 82.5384 166.657 82.9289L161 88.5858L155.343 82.9289C154.953 82.5384 154.319 82.5384 153.929 82.9289C153.538 83.3195 153.538 83.9526 153.929 84.3431L160.293 90.7071ZM160 46L160 90L162 90L162 46L160 46Z" fill="white"/>
<path d="M32.149 94.429V95.059H30.619V100H29.881V95.059H28.351V94.429H32.149ZM34.381 95.176C34.225 95.176 34.09 95.122 33.976 95.014C33.862 94.906 33.805 94.759 33.805 94.573C33.805 94.387 33.862 94.24 33.976 94.132C34.09 94.024 34.225 93.97 34.381 93.97C34.543 93.97 34.678 94.024 34.786 94.132C34.9 94.24 34.957 94.387 34.957 94.573C34.957 94.759 34.9 94.906 34.786 95.014C34.678 95.122 34.543 95.176 34.381 95.176ZM34.192 96.445H32.986V95.824H34.93V98.389C34.93 98.803 34.987 99.082 35.101 99.226C35.215 99.364 35.386 99.433 35.614 99.433C35.788 99.433 35.947 99.412 36.091 99.37C36.241 99.328 36.358 99.283 36.442 99.235L36.55 99.865C36.514 99.883 36.463 99.907 36.397 99.937C36.331 99.961 36.253 99.985 36.163 100.009C36.079 100.033 35.983 100.054 35.875 100.072C35.773 100.09 35.665 100.099 35.551 100.099C35.287 100.099 35.068 100.063 34.894 99.991C34.72 99.919 34.579 99.811 34.471 99.667C34.369 99.523 34.297 99.346 34.255 99.136C34.213 98.92 34.192 98.671 34.192 98.389V96.445ZM37.369 95.941C37.729 95.803 38.068 95.734 38.386 95.734C38.56 95.734 38.722 95.761 38.872 95.815C39.028 95.863 39.16 95.941 39.268 96.049C39.526 95.839 39.802 95.734 40.096 95.734C40.24 95.734 40.375 95.761 40.501 95.815C40.633 95.869 40.747 95.95 40.843 96.058C40.945 96.166 41.026 96.301 41.086 96.463C41.146 96.625 41.176 96.814 41.176 97.03V100H40.501V97.012C40.501 96.796 40.453 96.631 40.357 96.517C40.261 96.403 40.141 96.346 39.997 96.346C39.925 96.346 39.85 96.364 39.772 96.4C39.694 96.436 39.622 96.493 39.556 96.571C39.592 96.709 39.61 96.862 39.61 97.03V98.389H38.935V97.021C38.935 96.811 38.902 96.646 38.836 96.526C38.77 96.406 38.641 96.346 38.449 96.346C38.329 96.346 38.194 96.373 38.044 96.427V100H37.369V95.941ZM43.831 95.725C44.395 95.725 44.83 95.902 45.136 96.256C45.442 96.604 45.595 97.135 45.595 97.849V98.11H42.607C42.637 98.542 42.778 98.872 43.03 99.1C43.288 99.322 43.648 99.433 44.11 99.433C44.374 99.433 44.599 99.412 44.785 99.37C44.971 99.328 45.112 99.283 45.208 99.235L45.307 99.865C45.217 99.913 45.055 99.964 44.821 100.018C44.587 100.072 44.323 100.099 44.029 100.099C43.669 100.099 43.351 100.045 43.075 99.937C42.805 99.823 42.58 99.67 42.4 99.478C42.22 99.286 42.085 99.058 41.995 98.794C41.905 98.524 41.86 98.233 41.86 97.921C41.86 97.549 41.917 97.225 42.031 96.949C42.145 96.673 42.295 96.445 42.481 96.265C42.667 96.085 42.877 95.95 43.111 95.86C43.345 95.77 43.585 95.725 43.831 95.725ZM44.839 97.507C44.839 97.153 44.746 96.874 44.56 96.67C44.374 96.46 44.128 96.355 43.822 96.355C43.648 96.355 43.489 96.388 43.345 96.454C43.207 96.52 43.087 96.607 42.985 96.715C42.883 96.823 42.802 96.946 42.742 97.084C42.682 97.222 42.643 97.363 42.625 97.507H44.839Z" fill="#00E430"/>
<path d="M59.14 97.21C59.14 97.726 59.074 98.164 58.942 98.524C58.816 98.884 58.639 99.178 58.411 99.406C58.189 99.628 57.922 99.79 57.61 99.892C57.304 99.994 56.971 100.045 56.611 100.045C56.239 100.045 55.864 100 55.486 99.91V94.51C55.864 94.42 56.239 94.375 56.611 94.375C56.971 94.375 57.304 94.426 57.61 94.528C57.922 94.63 58.189 94.795 58.411 95.023C58.639 95.251 58.816 95.545 58.942 95.905C59.074 96.265 59.14 96.7 59.14 97.21ZM56.224 99.379C56.374 99.397 56.527 99.406 56.683 99.406C56.953 99.406 57.193 99.367 57.403 99.289C57.613 99.205 57.79 99.076 57.934 98.902C58.078 98.722 58.189 98.494 58.267 98.218C58.345 97.936 58.384 97.6 58.384 97.21C58.384 96.454 58.237 95.899 57.943 95.545C57.655 95.191 57.226 95.014 56.656 95.014C56.578 95.014 56.5 95.017 56.422 95.023C56.35 95.023 56.284 95.029 56.224 95.041V99.379ZM61.381 95.176C61.225 95.176 61.09 95.122 60.976 95.014C60.862 94.906 60.805 94.759 60.805 94.573C60.805 94.387 60.862 94.24 60.976 94.132C61.09 94.024 61.225 93.97 61.381 93.97C61.543 93.97 61.678 94.024 61.786 94.132C61.9 94.24 61.957 94.387 61.957 94.573C61.957 94.759 61.9 94.906 61.786 95.014C61.678 95.122 61.543 95.176 61.381 95.176ZM61.192 96.445H59.986V95.824H61.93V98.389C61.93 98.803 61.987 99.082 62.101 99.226C62.215 99.364 62.386 99.433 62.614 99.433C62.788 99.433 62.947 99.412 63.091 99.37C63.241 99.328 63.358 99.283 63.442 99.235L63.55 99.865C63.514 99.883 63.463 99.907 63.397 99.937C63.331 99.961 63.253 99.985 63.163 100.009C63.079 100.033 62.983 100.054 62.875 100.072C62.773 100.09 62.665 100.099 62.551 100.099C62.287 100.099 62.068 100.063 61.894 99.991C61.72 99.919 61.579 99.811 61.471 99.667C61.369 99.523 61.297 99.346 61.255 99.136C61.213 98.92 61.192 98.671 61.192 98.389V96.445ZM67.159 98.956C67.159 98.806 67.096 98.683 66.97 98.587C66.85 98.491 66.697 98.407 66.511 98.335C66.331 98.263 66.133 98.194 65.917 98.128C65.701 98.056 65.5 97.969 65.314 97.867C65.134 97.765 64.981 97.639 64.855 97.489C64.735 97.339 64.675 97.144 64.675 96.904C64.675 96.568 64.81 96.289 65.08 96.067C65.356 95.839 65.785 95.725 66.367 95.725C66.595 95.725 66.829 95.743 67.069 95.779C67.315 95.809 67.525 95.851 67.699 95.905L67.564 96.571C67.516 96.547 67.45 96.523 67.366 96.499C67.282 96.469 67.186 96.445 67.078 96.427C66.97 96.403 66.853 96.385 66.727 96.373C66.607 96.361 66.49 96.355 66.376 96.355C65.728 96.355 65.404 96.532 65.404 96.886C65.404 97.012 65.464 97.12 65.584 97.21C65.71 97.294 65.866 97.372 66.052 97.444C66.238 97.516 66.439 97.591 66.655 97.669C66.871 97.741 67.072 97.831 67.258 97.939C67.444 98.047 67.597 98.179 67.717 98.335C67.843 98.485 67.906 98.677 67.906 98.911C67.906 99.289 67.759 99.583 67.465 99.793C67.171 99.997 66.706 100.099 66.07 100.099C65.782 100.099 65.518 100.075 65.278 100.027C65.038 99.979 64.81 99.907 64.594 99.811L64.738 99.136C64.948 99.232 65.167 99.313 65.395 99.379C65.629 99.439 65.878 99.469 66.142 99.469C66.82 99.469 67.159 99.298 67.159 98.956ZM70.687 95.824H72.451V96.445H70.687V98.389C70.687 98.599 70.702 98.77 70.732 98.902C70.762 99.034 70.81 99.142 70.876 99.226C70.948 99.304 71.038 99.358 71.146 99.388C71.254 99.418 71.386 99.433 71.542 99.433C71.758 99.433 71.932 99.415 72.064 99.379C72.196 99.343 72.322 99.295 72.442 99.235L72.55 99.865C72.466 99.901 72.331 99.949 72.145 100.009C71.965 100.069 71.74 100.099 71.47 100.099C71.158 100.099 70.903 100.063 70.705 99.991C70.507 99.919 70.351 99.811 70.237 99.667C70.129 99.523 70.054 99.346 70.012 99.136C69.97 98.92 69.949 98.671 69.949 98.389V96.445H69.067V95.824H69.949V94.654L70.687 94.528V95.824ZM75.295 99.469C75.481 99.469 75.646 99.463 75.79 99.451C75.94 99.439 76.063 99.424 76.159 99.406V98.164C76.063 98.134 75.946 98.11 75.808 98.092C75.676 98.074 75.535 98.065 75.385 98.065C75.247 98.065 75.112 98.077 74.98 98.101C74.848 98.119 74.731 98.155 74.629 98.209C74.527 98.263 74.443 98.335 74.377 98.425C74.311 98.509 74.278 98.617 74.278 98.749C74.278 99.019 74.368 99.208 74.548 99.316C74.734 99.418 74.983 99.469 75.295 99.469ZM75.223 95.725C75.535 95.725 75.796 95.764 76.006 95.842C76.222 95.92 76.396 96.028 76.528 96.166C76.66 96.304 76.753 96.472 76.807 96.67C76.861 96.868 76.888 97.084 76.888 97.318V99.928C76.714 99.958 76.483 99.994 76.195 100.036C75.913 100.078 75.622 100.099 75.322 100.099C75.094 100.099 74.872 100.078 74.656 100.036C74.44 100 74.248 99.934 74.08 99.838C73.912 99.736 73.777 99.598 73.675 99.424C73.573 99.25 73.522 99.028 73.522 98.758C73.522 98.518 73.573 98.317 73.675 98.155C73.783 97.987 73.918 97.852 74.08 97.75C74.248 97.648 74.437 97.576 74.647 97.534C74.863 97.486 75.079 97.462 75.295 97.462C75.589 97.462 75.877 97.495 76.159 97.561V97.354C76.159 97.228 76.144 97.108 76.114 96.994C76.09 96.874 76.039 96.766 75.961 96.67C75.889 96.574 75.787 96.499 75.655 96.445C75.529 96.385 75.364 96.355 75.16 96.355C74.902 96.355 74.677 96.373 74.485 96.409C74.293 96.445 74.146 96.481 74.044 96.517L73.954 95.905C74.056 95.857 74.224 95.815 74.458 95.779C74.698 95.743 74.953 95.725 75.223 95.725ZM78.139 95.941C78.409 95.875 78.676 95.824 78.94 95.788C79.21 95.752 79.462 95.734 79.696 95.734C80.254 95.734 80.674 95.878 80.956 96.166C81.244 96.454 81.388 96.916 81.388 97.552V100H80.65V97.687C80.65 97.417 80.626 97.198 80.578 97.03C80.53 96.862 80.461 96.733 80.371 96.643C80.287 96.547 80.182 96.481 80.056 96.445C79.936 96.409 79.804 96.391 79.66 96.391C79.54 96.391 79.411 96.4 79.273 96.418C79.141 96.43 79.012 96.448 78.886 96.472V100H78.139V95.941ZM82.441 97.921C82.441 97.543 82.501 97.216 82.621 96.94C82.741 96.664 82.906 96.436 83.116 96.256C83.326 96.076 83.569 95.944 83.845 95.86C84.127 95.77 84.427 95.725 84.745 95.725C84.949 95.725 85.15 95.74 85.348 95.77C85.552 95.794 85.768 95.842 85.996 95.914L85.825 96.553C85.627 96.481 85.444 96.436 85.276 96.418C85.114 96.394 84.949 96.382 84.781 96.382C84.565 96.382 84.361 96.412 84.169 96.472C83.977 96.526 83.809 96.616 83.665 96.742C83.527 96.862 83.416 97.021 83.332 97.219C83.248 97.411 83.206 97.645 83.206 97.921C83.206 98.185 83.245 98.413 83.323 98.605C83.401 98.791 83.509 98.947 83.647 99.073C83.791 99.193 83.962 99.283 84.16 99.343C84.358 99.403 84.577 99.433 84.817 99.433C85.009 99.433 85.192 99.424 85.366 99.406C85.546 99.382 85.741 99.334 85.951 99.262L86.059 99.883C85.849 99.961 85.636 100.015 85.42 100.045C85.204 100.081 84.97 100.099 84.718 100.099C84.382 100.099 84.073 100.054 83.791 99.964C83.515 99.868 83.275 99.73 83.071 99.55C82.873 99.37 82.717 99.145 82.603 98.875C82.495 98.599 82.441 98.281 82.441 97.921ZM88.831 95.725C89.395 95.725 89.83 95.902 90.136 96.256C90.442 96.604 90.595 97.135 90.595 97.849V98.11H87.607C87.637 98.542 87.778 98.872 88.03 99.1C88.288 99.322 88.648 99.433 89.11 99.433C89.374 99.433 89.599 99.412 89.785 99.37C89.971 99.328 90.112 99.283 90.208 99.235L90.307 99.865C90.217 99.913 90.055 99.964 89.821 100.018C89.587 100.072 89.323 100.099 89.029 100.099C88.669 100.099 88.351 100.045 88.075 99.937C87.805 99.823 87.58 99.67 87.4 99.478C87.22 99.286 87.085 99.058 86.995 98.794C86.905 98.524 86.86 98.233 86.86 97.921C86.86 97.549 86.917 97.225 87.031 96.949C87.145 96.673 87.295 96.445 87.481 96.265C87.667 96.085 87.877 95.95 88.111 95.86C88.345 95.77 88.585 95.725 88.831 95.725ZM89.839 97.507C89.839 97.153 89.746 96.874 89.56 96.67C89.374 96.46 89.128 96.355 88.822 96.355C88.648 96.355 88.489 96.388 88.345 96.454C88.207 96.52 88.087 96.607 87.985 96.715C87.883 96.823 87.802 96.946 87.742 97.084C87.682 97.222 87.643 97.363 87.625 97.507H89.839Z" fill="#00E430"/>
<path d="M111.115 94.375C111.445 94.375 111.733 94.417 111.979 94.501C112.231 94.585 112.438 94.705 112.6 94.861C112.768 95.011 112.891 95.191 112.969 95.401C113.053 95.611 113.095 95.845 113.095 96.103C113.095 96.685 112.924 97.135 112.582 97.453C112.24 97.765 111.727 97.921 111.043 97.921H110.395V100H109.657V94.51C109.765 94.486 109.882 94.465 110.008 94.447C110.14 94.429 110.269 94.414 110.395 94.402C110.527 94.39 110.653 94.384 110.773 94.384C110.899 94.378 111.013 94.375 111.115 94.375ZM111.169 95.014C111.013 95.014 110.863 95.017 110.719 95.023C110.575 95.023 110.467 95.029 110.395 95.041V97.291H111.007C111.457 97.291 111.79 97.201 112.006 97.021C112.228 96.841 112.339 96.544 112.339 96.13C112.339 95.386 111.949 95.014 111.169 95.014ZM116.542 100.099C116.278 100.099 116.059 100.063 115.885 99.991C115.711 99.919 115.573 99.811 115.471 99.667C115.369 99.523 115.297 99.346 115.255 99.136C115.213 98.92 115.192 98.671 115.192 98.389V94.438H113.986V93.808H115.93V98.389C115.93 98.599 115.942 98.77 115.966 98.902C115.996 99.034 116.038 99.142 116.092 99.226C116.152 99.304 116.224 99.358 116.308 99.388C116.392 99.418 116.491 99.433 116.605 99.433C116.779 99.433 116.941 99.412 117.091 99.37C117.241 99.328 117.358 99.283 117.442 99.235L117.55 99.865C117.514 99.883 117.463 99.907 117.397 99.937C117.331 99.961 117.253 99.985 117.163 100.009C117.073 100.033 116.974 100.054 116.866 100.072C116.764 100.09 116.656 100.099 116.542 100.099ZM120.295 99.469C120.481 99.469 120.646 99.463 120.79 99.451C120.94 99.439 121.063 99.424 121.159 99.406V98.164C121.063 98.134 120.946 98.11 120.808 98.092C120.676 98.074 120.535 98.065 120.385 98.065C120.247 98.065 120.112 98.077 119.98 98.101C119.848 98.119 119.731 98.155 119.629 98.209C119.527 98.263 119.443 98.335 119.377 98.425C119.311 98.509 119.278 98.617 119.278 98.749C119.278 99.019 119.368 99.208 119.548 99.316C119.734 99.418 119.983 99.469 120.295 99.469ZM120.223 95.725C120.535 95.725 120.796 95.764 121.006 95.842C121.222 95.92 121.396 96.028 121.528 96.166C121.66 96.304 121.753 96.472 121.807 96.67C121.861 96.868 121.888 97.084 121.888 97.318V99.928C121.714 99.958 121.483 99.994 121.195 100.036C120.913 100.078 120.622 100.099 120.322 100.099C120.094 100.099 119.872 100.078 119.656 100.036C119.44 100 119.248 99.934 119.08 99.838C118.912 99.736 118.777 99.598 118.675 99.424C118.573 99.25 118.522 99.028 118.522 98.758C118.522 98.518 118.573 98.317 118.675 98.155C118.783 97.987 118.918 97.852 119.08 97.75C119.248 97.648 119.437 97.576 119.647 97.534C119.863 97.486 120.079 97.462 120.295 97.462C120.589 97.462 120.877 97.495 121.159 97.561V97.354C121.159 97.228 121.144 97.108 121.114 96.994C121.09 96.874 121.039 96.766 120.961 96.67C120.889 96.574 120.787 96.499 120.655 96.445C120.529 96.385 120.364 96.355 120.16 96.355C119.902 96.355 119.677 96.373 119.485 96.409C119.293 96.445 119.146 96.481 119.044 96.517L118.954 95.905C119.056 95.857 119.224 95.815 119.458 95.779C119.698 95.743 119.953 95.725 120.223 95.725ZM122.959 100.783C123.013 100.813 123.088 100.837 123.184 100.855C123.286 100.873 123.379 100.882 123.463 100.882C123.757 100.882 123.985 100.816 124.147 100.684C124.315 100.558 124.468 100.348 124.606 100.054C124.27 99.418 123.955 98.737 123.661 98.011C123.367 97.279 123.124 96.55 122.932 95.824H123.742C123.802 96.064 123.871 96.325 123.949 96.607C124.033 96.883 124.126 97.168 124.228 97.462C124.33 97.756 124.438 98.053 124.552 98.353C124.672 98.647 124.798 98.929 124.93 99.199C125.026 98.923 125.116 98.65 125.2 98.38C125.284 98.11 125.362 97.84 125.434 97.57C125.506 97.294 125.578 97.015 125.65 96.733C125.722 96.445 125.797 96.142 125.875 95.824H126.649C126.457 96.604 126.241 97.36 126.001 98.092C125.767 98.824 125.515 99.502 125.245 100.126C125.143 100.366 125.032 100.573 124.912 100.747C124.798 100.921 124.672 101.065 124.534 101.179C124.396 101.293 124.24 101.377 124.066 101.431C123.892 101.485 123.694 101.512 123.472 101.512C123.358 101.512 123.232 101.497 123.094 101.467C122.962 101.437 122.872 101.41 122.824 101.386L122.959 100.783ZM129.331 95.725C129.895 95.725 130.33 95.902 130.636 96.256C130.942 96.604 131.095 97.135 131.095 97.849V98.11H128.107C128.137 98.542 128.278 98.872 128.53 99.1C128.788 99.322 129.148 99.433 129.61 99.433C129.874 99.433 130.099 99.412 130.285 99.37C130.471 99.328 130.612 99.283 130.708 99.235L130.807 99.865C130.717 99.913 130.555 99.964 130.321 100.018C130.087 100.072 129.823 100.099 129.529 100.099C129.169 100.099 128.851 100.045 128.575 99.937C128.305 99.823 128.08 99.67 127.9 99.478C127.72 99.286 127.585 99.058 127.495 98.794C127.405 98.524 127.36 98.233 127.36 97.921C127.36 97.549 127.417 97.225 127.531 96.949C127.645 96.673 127.795 96.445 127.981 96.265C128.167 96.085 128.377 95.95 128.611 95.86C128.845 95.77 129.085 95.725 129.331 95.725ZM130.339 97.507C130.339 97.153 130.246 96.874 130.06 96.67C129.874 96.46 129.628 96.355 129.322 96.355C129.148 96.355 128.989 96.388 128.845 96.454C128.707 96.52 128.587 96.607 128.485 96.715C128.383 96.823 128.302 96.946 128.242 97.084C128.182 97.222 128.143 97.363 128.125 97.507H130.339ZM132.463 100V96.049C133.075 95.839 133.693 95.734 134.317 95.734C134.509 95.734 134.692 95.743 134.866 95.761C135.04 95.773 135.232 95.803 135.442 95.851L135.307 96.508C135.115 96.454 134.944 96.421 134.794 96.409C134.65 96.391 134.491 96.382 134.317 96.382C133.951 96.382 133.579 96.433 133.201 96.535V100H132.463ZM139.456 100C139.39 99.838 139.312 99.655 139.222 99.451C139.132 99.247 139.036 99.037 138.934 98.821C138.832 98.605 138.721 98.389 138.601 98.173C138.487 97.957 138.367 97.756 138.241 97.57C138.031 97.906 137.821 98.293 137.611 98.731C137.401 99.163 137.206 99.586 137.026 100H136.225C136.423 99.556 136.654 99.076 136.918 98.56C137.182 98.038 137.464 97.537 137.764 97.057L136.315 94.429H137.134L138.223 96.562L139.393 94.429H140.194L138.718 97.03C139.006 97.498 139.285 97.984 139.555 98.488C139.825 98.992 140.065 99.496 140.275 100H139.456Z" fill="#00E430"/>
<path d="M147.115 94.375C147.445 94.375 147.733 94.417 147.979 94.501C148.231 94.585 148.438 94.705 148.6 94.861C148.768 95.011 148.891 95.191 148.969 95.401C149.053 95.611 149.095 95.845 149.095 96.103C149.095 96.685 148.924 97.135 148.582 97.453C148.24 97.765 147.727 97.921 147.043 97.921H146.395V100H145.657V94.51C145.765 94.486 145.882 94.465 146.008 94.447C146.14 94.429 146.269 94.414 146.395 94.402C146.527 94.39 146.653 94.384 146.773 94.384C146.899 94.378 147.013 94.375 147.115 94.375ZM147.169 95.014C147.013 95.014 146.863 95.017 146.719 95.023C146.575 95.023 146.467 95.029 146.395 95.041V97.291H147.007C147.457 97.291 147.79 97.201 148.006 97.021C148.228 96.841 148.339 96.544 148.339 96.13C148.339 95.386 147.949 95.014 147.169 95.014ZM152.542 100.099C152.278 100.099 152.059 100.063 151.885 99.991C151.711 99.919 151.573 99.811 151.471 99.667C151.369 99.523 151.297 99.346 151.255 99.136C151.213 98.92 151.192 98.671 151.192 98.389V94.438H149.986V93.808H151.93V98.389C151.93 98.599 151.942 98.77 151.966 98.902C151.996 99.034 152.038 99.142 152.092 99.226C152.152 99.304 152.224 99.358 152.308 99.388C152.392 99.418 152.491 99.433 152.605 99.433C152.779 99.433 152.941 99.412 153.091 99.37C153.241 99.328 153.358 99.283 153.442 99.235L153.55 99.865C153.514 99.883 153.463 99.907 153.397 99.937C153.331 99.961 153.253 99.985 153.163 100.009C153.073 100.033 152.974 100.054 152.866 100.072C152.764 100.09 152.656 100.099 152.542 100.099ZM156.295 99.469C156.481 99.469 156.646 99.463 156.79 99.451C156.94 99.439 157.063 99.424 157.159 99.406V98.164C157.063 98.134 156.946 98.11 156.808 98.092C156.676 98.074 156.535 98.065 156.385 98.065C156.247 98.065 156.112 98.077 155.98 98.101C155.848 98.119 155.731 98.155 155.629 98.209C155.527 98.263 155.443 98.335 155.377 98.425C155.311 98.509 155.278 98.617 155.278 98.749C155.278 99.019 155.368 99.208 155.548 99.316C155.734 99.418 155.983 99.469 156.295 99.469ZM156.223 95.725C156.535 95.725 156.796 95.764 157.006 95.842C157.222 95.92 157.396 96.028 157.528 96.166C157.66 96.304 157.753 96.472 157.807 96.67C157.861 96.868 157.888 97.084 157.888 97.318V99.928C157.714 99.958 157.483 99.994 157.195 100.036C156.913 100.078 156.622 100.099 156.322 100.099C156.094 100.099 155.872 100.078 155.656 100.036C155.44 100 155.248 99.934 155.08 99.838C154.912 99.736 154.777 99.598 154.675 99.424C154.573 99.25 154.522 99.028 154.522 98.758C154.522 98.518 154.573 98.317 154.675 98.155C154.783 97.987 154.918 97.852 155.08 97.75C155.248 97.648 155.437 97.576 155.647 97.534C155.863 97.486 156.079 97.462 156.295 97.462C156.589 97.462 156.877 97.495 157.159 97.561V97.354C157.159 97.228 157.144 97.108 157.114 96.994C157.09 96.874 157.039 96.766 156.961 96.67C156.889 96.574 156.787 96.499 156.655 96.445C156.529 96.385 156.364 96.355 156.16 96.355C155.902 96.355 155.677 96.373 155.485 96.409C155.293 96.445 155.146 96.481 155.044 96.517L154.954 95.905C155.056 95.857 155.224 95.815 155.458 95.779C155.698 95.743 155.953 95.725 156.223 95.725ZM158.959 100.783C159.013 100.813 159.088 100.837 159.184 100.855C159.286 100.873 159.379 100.882 159.463 100.882C159.757 100.882 159.985 100.816 160.147 100.684C160.315 100.558 160.468 100.348 160.606 100.054C160.27 99.418 159.955 98.737 159.661 98.011C159.367 97.279 159.124 96.55 158.932 95.824H159.742C159.802 96.064 159.871 96.325 159.949 96.607C160.033 96.883 160.126 97.168 160.228 97.462C160.33 97.756 160.438 98.053 160.552 98.353C160.672 98.647 160.798 98.929 160.93 99.199C161.026 98.923 161.116 98.65 161.2 98.38C161.284 98.11 161.362 97.84 161.434 97.57C161.506 97.294 161.578 97.015 161.65 96.733C161.722 96.445 161.797 96.142 161.875 95.824H162.649C162.457 96.604 162.241 97.36 162.001 98.092C161.767 98.824 161.515 99.502 161.245 100.126C161.143 100.366 161.032 100.573 160.912 100.747C160.798 100.921 160.672 101.065 160.534 101.179C160.396 101.293 160.24 101.377 160.066 101.431C159.892 101.485 159.694 101.512 159.472 101.512C159.358 101.512 159.232 101.497 159.094 101.467C158.962 101.437 158.872 101.41 158.824 101.386L158.959 100.783ZM165.331 95.725C165.895 95.725 166.33 95.902 166.636 96.256C166.942 96.604 167.095 97.135 167.095 97.849V98.11H164.107C164.137 98.542 164.278 98.872 164.53 99.1C164.788 99.322 165.148 99.433 165.61 99.433C165.874 99.433 166.099 99.412 166.285 99.37C166.471 99.328 166.612 99.283 166.708 99.235L166.807 99.865C166.717 99.913 166.555 99.964 166.321 100.018C166.087 100.072 165.823 100.099 165.529 100.099C165.169 100.099 164.851 100.045 164.575 99.937C164.305 99.823 164.08 99.67 163.9 99.478C163.72 99.286 163.585 99.058 163.495 98.794C163.405 98.524 163.36 98.233 163.36 97.921C163.36 97.549 163.417 97.225 163.531 96.949C163.645 96.673 163.795 96.445 163.981 96.265C164.167 96.085 164.377 95.95 164.611 95.86C164.845 95.77 165.085 95.725 165.331 95.725ZM166.339 97.507C166.339 97.153 166.246 96.874 166.06 96.67C165.874 96.46 165.628 96.355 165.322 96.355C165.148 96.355 164.989 96.388 164.845 96.454C164.707 96.52 164.587 96.607 164.485 96.715C164.383 96.823 164.302 96.946 164.242 97.084C164.182 97.222 164.143 97.363 164.125 97.507H166.339ZM168.463 100V96.049C169.075 95.839 169.693 95.734 170.317 95.734C170.509 95.734 170.692 95.743 170.866 95.761C171.04 95.773 171.232 95.803 171.442 95.851L171.307 96.508C171.115 96.454 170.944 96.421 170.794 96.409C170.65 96.391 170.491 96.382 170.317 96.382C169.951 96.382 169.579 96.433 169.201 96.535V100H168.463ZM173.89 100V97.93C173.524 97.33 173.191 96.745 172.891 96.175C172.597 95.605 172.339 95.023 172.117 94.429H172.945C173.119 94.933 173.317 95.416 173.539 95.878C173.767 96.334 174.01 96.805 174.268 97.291C174.544 96.781 174.787 96.298 174.997 95.842C175.213 95.38 175.408 94.909 175.582 94.429H176.392C176.164 95.017 175.903 95.59 175.609 96.148C175.315 96.706 174.988 97.294 174.628 97.912V100H173.89Z" fill="#00E430"/>
<path d="M57.82 353.5C58.26 353.5 58.644 353.556 58.972 353.668C59.308 353.78 59.584 353.94 59.8 354.148C60.024 354.348 60.188 354.588 60.292 354.868C60.404 355.148 60.46 355.46 60.46 355.804C60.46 356.58 60.232 357.18 59.776 357.604C59.32 358.02 58.636 358.228 57.724 358.228H56.86V361H55.876V353.68C56.02 353.648 56.176 353.62 56.344 353.596C56.52 353.572 56.692 353.552 56.86 353.536C57.036 353.52 57.204 353.512 57.364 353.512C57.532 353.504 57.684 353.5 57.82 353.5ZM57.892 354.352C57.684 354.352 57.484 354.356 57.292 354.364C57.1 354.364 56.956 354.372 56.86 354.388V357.388H57.676C58.276 357.388 58.72 357.268 59.008 357.028C59.304 356.788 59.452 356.392 59.452 355.84C59.452 354.848 58.932 354.352 57.892 354.352ZM64.06 360.292C64.308 360.292 64.528 360.284 64.72 360.268C64.92 360.252 65.084 360.232 65.212 360.208V358.552C65.084 358.512 64.928 358.48 64.744 358.456C64.568 358.432 64.38 358.42 64.18 358.42C63.996 358.42 63.816 358.436 63.64 358.468C63.464 358.492 63.308 358.54 63.172 358.612C63.036 358.684 62.924 358.78 62.836 358.9C62.748 359.012 62.704 359.156 62.704 359.332C62.704 359.692 62.824 359.944 63.064 360.088C63.312 360.224 63.644 360.292 64.06 360.292ZM63.964 355.3C64.38 355.3 64.728 355.352 65.008 355.456C65.296 355.56 65.528 355.704 65.704 355.888C65.88 356.072 66.004 356.296 66.076 356.56C66.148 356.824 66.184 357.112 66.184 357.424V360.904C65.952 360.944 65.644 360.992 65.26 361.048C64.884 361.104 64.496 361.132 64.096 361.132C63.792 361.132 63.496 361.104 63.208 361.048C62.92 361 62.664 360.912 62.44 360.784C62.216 360.648 62.036 360.464 61.9 360.232C61.764 360 61.696 359.704 61.696 359.344C61.696 359.024 61.764 358.756 61.9 358.54C62.044 358.316 62.224 358.136 62.44 358C62.664 357.864 62.916 357.768 63.196 357.712C63.484 357.648 63.772 357.616 64.06 357.616C64.452 357.616 64.836 357.66 65.212 357.748V357.472C65.212 357.304 65.192 357.144 65.152 356.992C65.12 356.832 65.052 356.688 64.948 356.56C64.852 356.432 64.716 356.332 64.54 356.26C64.372 356.18 64.152 356.14 63.88 356.14C63.536 356.14 63.236 356.164 62.98 356.212C62.724 356.26 62.528 356.308 62.392 356.356L62.272 355.54C62.408 355.476 62.632 355.42 62.944 355.372C63.264 355.324 63.604 355.3 63.964 355.3ZM68.284 361V355.732C69.1 355.452 69.924 355.312 70.756 355.312C71.012 355.312 71.256 355.324 71.488 355.348C71.72 355.364 71.976 355.404 72.256 355.468L72.076 356.344C71.82 356.272 71.592 356.228 71.392 356.212C71.2 356.188 70.988 356.176 70.756 356.176C70.268 356.176 69.772 356.244 69.268 356.38V361H68.284ZM75.916 355.432H78.268V356.26H75.916V358.852C75.916 359.132 75.936 359.36 75.976 359.536C76.016 359.712 76.08 359.856 76.168 359.968C76.264 360.072 76.384 360.144 76.528 360.184C76.672 360.224 76.848 360.244 77.056 360.244C77.344 360.244 77.576 360.22 77.752 360.172C77.928 360.124 78.096 360.06 78.256 359.98L78.4 360.82C78.288 360.868 78.108 360.932 77.86 361.012C77.62 361.092 77.32 361.132 76.96 361.132C76.544 361.132 76.204 361.084 75.94 360.988C75.676 360.892 75.468 360.748 75.316 360.556C75.172 360.364 75.072 360.128 75.016 359.848C74.96 359.56 74.932 359.228 74.932 358.852V356.26H73.756V355.432H74.932V353.872L75.916 353.704V355.432ZM81.508 354.568C81.3 354.568 81.12 354.496 80.968 354.352C80.816 354.208 80.74 354.012 80.74 353.764C80.74 353.516 80.816 353.32 80.968 353.176C81.12 353.032 81.3 352.96 81.508 352.96C81.724 352.96 81.904 353.032 82.048 353.176C82.2 353.32 82.276 353.516 82.276 353.764C82.276 354.012 82.2 354.208 82.048 354.352C81.904 354.496 81.724 354.568 81.508 354.568ZM81.256 356.26H79.648V355.432H82.24V358.852C82.24 359.404 82.316 359.776 82.468 359.968C82.62 360.152 82.848 360.244 83.152 360.244C83.384 360.244 83.596 360.216 83.788 360.16C83.988 360.104 84.144 360.044 84.256 359.98L84.4 360.82C84.352 360.844 84.284 360.876 84.196 360.916C84.108 360.948 84.004 360.98 83.884 361.012C83.772 361.044 83.644 361.072 83.5 361.096C83.364 361.12 83.22 361.132 83.068 361.132C82.716 361.132 82.424 361.084 82.192 360.988C81.96 360.892 81.772 360.748 81.628 360.556C81.492 360.364 81.396 360.128 81.34 359.848C81.284 359.56 81.256 359.228 81.256 358.852V356.26ZM85.588 358.228C85.588 357.724 85.668 357.288 85.828 356.92C85.988 356.552 86.208 356.248 86.488 356.008C86.768 355.768 87.092 355.592 87.46 355.48C87.836 355.36 88.236 355.3 88.66 355.3C88.932 355.3 89.2 355.32 89.464 355.36C89.736 355.392 90.024 355.456 90.328 355.552L90.1 356.404C89.836 356.308 89.592 356.248 89.368 356.224C89.152 356.192 88.932 356.176 88.708 356.176C88.42 356.176 88.148 356.216 87.892 356.296C87.636 356.368 87.412 356.488 87.22 356.656C87.036 356.816 86.888 357.028 86.776 357.292C86.664 357.548 86.608 357.86 86.608 358.228C86.608 358.58 86.66 358.884 86.764 359.14C86.868 359.388 87.012 359.596 87.196 359.764C87.388 359.924 87.616 360.044 87.88 360.124C88.144 360.204 88.436 360.244 88.756 360.244C89.012 360.244 89.256 360.232 89.488 360.208C89.728 360.176 89.988 360.112 90.268 360.016L90.412 360.844C90.132 360.948 89.848 361.02 89.56 361.06C89.272 361.108 88.96 361.132 88.624 361.132C88.176 361.132 87.764 361.072 87.388 360.952C87.02 360.824 86.7 360.64 86.428 360.4C86.164 360.16 85.956 359.86 85.804 359.5C85.66 359.132 85.588 358.708 85.588 358.228ZM95.056 361.132C94.704 361.132 94.412 361.084 94.18 360.988C93.948 360.892 93.764 360.748 93.628 360.556C93.492 360.364 93.396 360.128 93.34 359.848C93.284 359.56 93.256 359.228 93.256 358.852V353.584H91.648V352.744H94.24V358.852C94.24 359.132 94.256 359.36 94.288 359.536C94.328 359.712 94.384 359.856 94.456 359.968C94.536 360.072 94.632 360.144 94.744 360.184C94.856 360.224 94.988 360.244 95.14 360.244C95.372 360.244 95.588 360.216 95.788 360.16C95.988 360.104 96.144 360.044 96.256 359.98L96.4 360.82C96.352 360.844 96.284 360.876 96.196 360.916C96.108 360.948 96.004 360.98 95.884 361.012C95.764 361.044 95.632 361.072 95.488 361.096C95.352 361.12 95.208 361.132 95.056 361.132ZM100.108 355.3C100.86 355.3 101.44 355.536 101.848 356.008C102.256 356.472 102.46 357.18 102.46 358.132V358.48H98.476C98.516 359.056 98.704 359.496 99.04 359.8C99.384 360.096 99.864 360.244 100.48 360.244C100.832 360.244 101.132 360.216 101.38 360.16C101.628 360.104 101.816 360.044 101.944 359.98L102.076 360.82C101.956 360.884 101.74 360.952 101.428 361.024C101.116 361.096 100.764 361.132 100.372 361.132C99.892 361.132 99.468 361.06 99.1 360.916C98.74 360.764 98.44 360.56 98.2 360.304C97.96 360.048 97.78 359.744 97.66 359.392C97.54 359.032 97.48 358.644 97.48 358.228C97.48 357.732 97.556 357.3 97.708 356.932C97.86 356.564 98.06 356.26 98.308 356.02C98.556 355.78 98.836 355.6 99.148 355.48C99.46 355.36 99.78 355.3 100.108 355.3ZM101.452 357.676C101.452 357.204 101.328 356.832 101.08 356.56C100.832 356.28 100.504 356.14 100.096 356.14C99.864 356.14 99.652 356.184 99.46 356.272C99.276 356.36 99.116 356.476 98.98 356.62C98.844 356.764 98.736 356.928 98.656 357.112C98.576 357.296 98.524 357.484 98.5 357.676H101.452ZM107.608 361C107.52 360.784 107.416 360.54 107.296 360.268C107.176 359.996 107.048 359.716 106.912 359.428C106.776 359.14 106.628 358.852 106.468 358.564C106.316 358.276 106.156 358.008 105.988 357.76C105.708 358.208 105.428 358.724 105.148 359.308C104.868 359.884 104.608 360.448 104.368 361H103.3C103.564 360.408 103.872 359.768 104.224 359.08C104.576 358.384 104.952 357.716 105.352 357.076L103.42 353.572H104.512L105.964 356.416L107.524 353.572H108.592L106.624 357.04C107.008 357.664 107.38 358.312 107.74 358.984C108.1 359.656 108.42 360.328 108.7 361H107.608Z" fill="#00E430"/>
<path d="M92.82 377.5C93.26 377.5 93.644 377.556 93.972 377.668C94.308 377.78 94.584 377.94 94.8 378.148C95.024 378.348 95.188 378.588 95.292 378.868C95.404 379.148 95.46 379.46 95.46 379.804C95.46 380.58 95.232 381.18 94.776 381.604C94.32 382.02 93.636 382.228 92.724 382.228H91.86V385H90.876V377.68C91.02 377.648 91.176 377.62 91.344 377.596C91.52 377.572 91.692 377.552 91.86 377.536C92.036 377.52 92.204 377.512 92.364 377.512C92.532 377.504 92.684 377.5 92.82 377.5ZM92.892 378.352C92.684 378.352 92.484 378.356 92.292 378.364C92.1 378.364 91.956 378.372 91.86 378.388V381.388H92.676C93.276 381.388 93.72 381.268 94.008 381.028C94.304 380.788 94.452 380.392 94.452 379.84C94.452 378.848 93.932 378.352 92.892 378.352ZM99.06 384.292C99.308 384.292 99.528 384.284 99.72 384.268C99.92 384.252 100.084 384.232 100.212 384.208V382.552C100.084 382.512 99.928 382.48 99.744 382.456C99.568 382.432 99.38 382.42 99.18 382.42C98.996 382.42 98.816 382.436 98.64 382.468C98.464 382.492 98.308 382.54 98.172 382.612C98.036 382.684 97.924 382.78 97.836 382.9C97.748 383.012 97.704 383.156 97.704 383.332C97.704 383.692 97.824 383.944 98.064 384.088C98.312 384.224 98.644 384.292 99.06 384.292ZM98.964 379.3C99.38 379.3 99.728 379.352 100.008 379.456C100.296 379.56 100.528 379.704 100.704 379.888C100.88 380.072 101.004 380.296 101.076 380.56C101.148 380.824 101.184 381.112 101.184 381.424V384.904C100.952 384.944 100.644 384.992 100.26 385.048C99.884 385.104 99.496 385.132 99.096 385.132C98.792 385.132 98.496 385.104 98.208 385.048C97.92 385 97.664 384.912 97.44 384.784C97.216 384.648 97.036 384.464 96.9 384.232C96.764 384 96.696 383.704 96.696 383.344C96.696 383.024 96.764 382.756 96.9 382.54C97.044 382.316 97.224 382.136 97.44 382C97.664 381.864 97.916 381.768 98.196 381.712C98.484 381.648 98.772 381.616 99.06 381.616C99.452 381.616 99.836 381.66 100.212 381.748V381.472C100.212 381.304 100.192 381.144 100.152 380.992C100.12 380.832 100.052 380.688 99.948 380.56C99.852 380.432 99.716 380.332 99.54 380.26C99.372 380.18 99.152 380.14 98.88 380.14C98.536 380.14 98.236 380.164 97.98 380.212C97.724 380.26 97.528 380.308 97.392 380.356L97.272 379.54C97.408 379.476 97.632 379.42 97.944 379.372C98.264 379.324 98.604 379.3 98.964 379.3ZM103.284 385V379.732C104.1 379.452 104.924 379.312 105.756 379.312C106.012 379.312 106.256 379.324 106.488 379.348C106.72 379.364 106.976 379.404 107.256 379.468L107.076 380.344C106.82 380.272 106.592 380.228 106.392 380.212C106.2 380.188 105.988 380.176 105.756 380.176C105.268 380.176 104.772 380.244 104.268 380.38V385H103.284ZM110.916 379.432H113.268V380.26H110.916V382.852C110.916 383.132 110.936 383.36 110.976 383.536C111.016 383.712 111.08 383.856 111.168 383.968C111.264 384.072 111.384 384.144 111.528 384.184C111.672 384.224 111.848 384.244 112.056 384.244C112.344 384.244 112.576 384.22 112.752 384.172C112.928 384.124 113.096 384.06 113.256 383.98L113.4 384.82C113.288 384.868 113.108 384.932 112.86 385.012C112.62 385.092 112.32 385.132 111.96 385.132C111.544 385.132 111.204 385.084 110.94 384.988C110.676 384.892 110.468 384.748 110.316 384.556C110.172 384.364 110.072 384.128 110.016 383.848C109.96 383.56 109.932 383.228 109.932 382.852V380.26H108.756V379.432H109.932V377.872L110.916 377.704V379.432ZM116.508 378.568C116.3 378.568 116.12 378.496 115.968 378.352C115.816 378.208 115.74 378.012 115.74 377.764C115.74 377.516 115.816 377.32 115.968 377.176C116.12 377.032 116.3 376.96 116.508 376.96C116.724 376.96 116.904 377.032 117.048 377.176C117.2 377.32 117.276 377.516 117.276 377.764C117.276 378.012 117.2 378.208 117.048 378.352C116.904 378.496 116.724 378.568 116.508 378.568ZM116.256 380.26H114.648V379.432H117.24V382.852C117.24 383.404 117.316 383.776 117.468 383.968C117.62 384.152 117.848 384.244 118.152 384.244C118.384 384.244 118.596 384.216 118.788 384.16C118.988 384.104 119.144 384.044 119.256 383.98L119.4 384.82C119.352 384.844 119.284 384.876 119.196 384.916C119.108 384.948 119.004 384.98 118.884 385.012C118.772 385.044 118.644 385.072 118.5 385.096C118.364 385.12 118.22 385.132 118.068 385.132C117.716 385.132 117.424 385.084 117.192 384.988C116.96 384.892 116.772 384.748 116.628 384.556C116.492 384.364 116.396 384.128 116.34 383.848C116.284 383.56 116.256 383.228 116.256 382.852V380.26ZM120.588 382.228C120.588 381.724 120.668 381.288 120.828 380.92C120.988 380.552 121.208 380.248 121.488 380.008C121.768 379.768 122.092 379.592 122.46 379.48C122.836 379.36 123.236 379.3 123.66 379.3C123.932 379.3 124.2 379.32 124.464 379.36C124.736 379.392 125.024 379.456 125.328 379.552L125.1 380.404C124.836 380.308 124.592 380.248 124.368 380.224C124.152 380.192 123.932 380.176 123.708 380.176C123.42 380.176 123.148 380.216 122.892 380.296C122.636 380.368 122.412 380.488 122.22 380.656C122.036 380.816 121.888 381.028 121.776 381.292C121.664 381.548 121.608 381.86 121.608 382.228C121.608 382.58 121.66 382.884 121.764 383.14C121.868 383.388 122.012 383.596 122.196 383.764C122.388 383.924 122.616 384.044 122.88 384.124C123.144 384.204 123.436 384.244 123.756 384.244C124.012 384.244 124.256 384.232 124.488 384.208C124.728 384.176 124.988 384.112 125.268 384.016L125.412 384.844C125.132 384.948 124.848 385.02 124.56 385.06C124.272 385.108 123.96 385.132 123.624 385.132C123.176 385.132 122.764 385.072 122.388 384.952C122.02 384.824 121.7 384.64 121.428 384.4C121.164 384.16 120.956 383.86 120.804 383.5C120.66 383.132 120.588 382.708 120.588 382.228ZM130.056 385.132C129.704 385.132 129.412 385.084 129.18 384.988C128.948 384.892 128.764 384.748 128.628 384.556C128.492 384.364 128.396 384.128 128.34 383.848C128.284 383.56 128.256 383.228 128.256 382.852V377.584H126.648V376.744H129.24V382.852C129.24 383.132 129.256 383.36 129.288 383.536C129.328 383.712 129.384 383.856 129.456 383.968C129.536 384.072 129.632 384.144 129.744 384.184C129.856 384.224 129.988 384.244 130.14 384.244C130.372 384.244 130.588 384.216 130.788 384.16C130.988 384.104 131.144 384.044 131.256 383.98L131.4 384.82C131.352 384.844 131.284 384.876 131.196 384.916C131.108 384.948 131.004 384.98 130.884 385.012C130.764 385.044 130.632 385.072 130.488 385.096C130.352 385.12 130.208 385.132 130.056 385.132ZM135.108 379.3C135.86 379.3 136.44 379.536 136.848 380.008C137.256 380.472 137.46 381.18 137.46 382.132V382.48H133.476C133.516 383.056 133.704 383.496 134.04 383.8C134.384 384.096 134.864 384.244 135.48 384.244C135.832 384.244 136.132 384.216 136.38 384.16C136.628 384.104 136.816 384.044 136.944 383.98L137.076 384.82C136.956 384.884 136.74 384.952 136.428 385.024C136.116 385.096 135.764 385.132 135.372 385.132C134.892 385.132 134.468 385.06 134.1 384.916C133.74 384.764 133.44 384.56 133.2 384.304C132.96 384.048 132.78 383.744 132.66 383.392C132.54 383.032 132.48 382.644 132.48 382.228C132.48 381.732 132.556 381.3 132.708 380.932C132.86 380.564 133.06 380.26 133.308 380.02C133.556 379.78 133.836 379.6 134.148 379.48C134.46 379.36 134.78 379.3 135.108 379.3ZM136.452 381.676C136.452 381.204 136.328 380.832 136.08 380.56C135.832 380.28 135.504 380.14 135.096 380.14C134.864 380.14 134.652 380.184 134.46 380.272C134.276 380.36 134.116 380.476 133.98 380.62C133.844 380.764 133.736 380.928 133.656 381.112C133.576 381.296 133.524 381.484 133.5 381.676H136.452ZM140.52 385V382.24C140.032 381.44 139.588 380.66 139.188 379.9C138.796 379.14 138.452 378.364 138.156 377.572H139.26C139.492 378.244 139.756 378.888 140.052 379.504C140.356 380.112 140.68 380.74 141.024 381.388C141.392 380.708 141.716 380.064 141.996 379.456C142.284 378.84 142.544 378.212 142.776 377.572H143.856C143.552 378.356 143.204 379.12 142.812 379.864C142.42 380.608 141.984 381.392 141.504 382.216V385H140.52Z" fill="#00E430"/>
<path d="M43.48 189.48C45.0533 189.48 46.2733 189.807 47.14 190.46C48.0067 191.1 48.44 192.153 48.44 193.62C48.44 195.1 48 196.173 47.12 196.84C46.2533 197.493 45.02 197.82 43.42 197.82H42.54V202H40.08V189.78C40.32 189.727 40.5867 189.68 40.88 189.64C41.1867 189.6 41.4933 189.573 41.8 189.56C42.1067 189.533 42.4067 189.513 42.7 189.5C42.9933 189.487 43.2533 189.48 43.48 189.48ZM43.76 191.62C43.6133 191.62 43.4067 191.627 43.14 191.64C42.8867 191.64 42.6867 191.653 42.54 191.68V195.68H43.54C44.3267 195.68 44.92 195.527 45.32 195.22C45.72 194.9 45.92 194.36 45.92 193.6C45.92 192.88 45.72 192.373 45.32 192.08C44.9333 191.773 44.4133 191.62 43.76 191.62ZM54.02 200.24C54.2867 200.24 54.5467 200.24 54.8 200.24C55.0533 200.227 55.2733 200.207 55.46 200.18V198.02C55.3 197.993 55.1067 197.973 54.88 197.96C54.6533 197.933 54.4467 197.92 54.26 197.92C54.0067 197.92 53.76 197.94 53.52 197.98C53.28 198.007 53.0667 198.06 52.88 198.14C52.7067 198.22 52.5667 198.333 52.46 198.48C52.3533 198.627 52.3 198.82 52.3 199.06C52.3 199.487 52.46 199.793 52.78 199.98C53.1 200.153 53.5133 200.24 54.02 200.24ZM53.8 192.36C54.5733 192.36 55.2133 192.453 55.72 192.64C56.24 192.813 56.6533 193.067 56.96 193.4C57.2667 193.72 57.4867 194.12 57.62 194.6C57.7533 195.067 57.82 195.593 57.82 196.18V201.78C57.46 201.86 56.9267 201.953 56.22 202.06C55.5133 202.167 54.72 202.22 53.84 202.22C53.24 202.22 52.6933 202.167 52.2 202.06C51.72 201.953 51.3067 201.78 50.96 201.54C50.6133 201.287 50.3467 200.967 50.16 200.58C49.9733 200.18 49.88 199.693 49.88 199.12C49.88 198.573 49.9867 198.113 50.2 197.74C50.4133 197.367 50.7 197.067 51.06 196.84C51.42 196.613 51.8333 196.453 52.3 196.36C52.7667 196.253 53.2533 196.2 53.76 196.2C54.4 196.2 54.9667 196.253 55.46 196.36V196.06C55.46 195.593 55.3133 195.207 55.02 194.9C54.7267 194.58 54.22 194.42 53.5 194.42C53.0333 194.42 52.58 194.453 52.14 194.52C51.7133 194.587 51.3667 194.667 51.1 194.76L50.76 192.78C51.0667 192.673 51.5 192.58 52.06 192.5C52.62 192.407 53.2 192.36 53.8 192.36ZM67.74 195.1C67.58 195.06 67.3867 195.02 67.16 194.98C66.9467 194.94 66.7267 194.907 66.5 194.88C66.2733 194.84 66.0533 194.813 65.84 194.8C65.6267 194.787 65.4467 194.78 65.3 194.78C64.9533 194.78 64.6133 194.8 64.28 194.84C63.9467 194.867 63.6067 194.927 63.26 195.02V202H60.78V193.22C61.4333 192.98 62.1 192.787 62.78 192.64C63.4733 192.493 64.28 192.42 65.2 192.42C65.3333 192.42 65.52 192.427 65.76 192.44C66.0133 192.453 66.28 192.48 66.56 192.52C66.84 192.547 67.12 192.587 67.4 192.64C67.6933 192.68 67.9533 192.74 68.18 192.82L67.74 195.1ZM71.86 194.64H69.72V192.6H71.86V190.24L74.32 189.84V192.6H78.26V194.64H74.32V198.44C74.32 198.787 74.3533 199.067 74.42 199.28C74.4867 199.493 74.58 199.66 74.7 199.78C74.82 199.9 74.9667 199.98 75.14 200.02C75.3133 200.06 75.5067 200.08 75.72 200.08C75.9467 200.08 76.1533 200.073 76.34 200.06C76.54 200.047 76.7267 200.027 76.9 200C77.0867 199.96 77.2733 199.907 77.46 199.84C77.66 199.773 77.8733 199.687 78.1 199.58L78.44 201.7C77.9867 201.887 77.4933 202.02 76.96 202.1C76.44 202.18 75.9333 202.22 75.44 202.22C74.8667 202.22 74.36 202.173 73.92 202.08C73.48 201.987 73.1067 201.807 72.8 201.54C72.4933 201.273 72.26 200.9 72.1 200.42C71.94 199.927 71.86 199.287 71.86 198.5V194.64ZM84.68 189.9C84.68 190.38 84.5267 190.76 84.22 191.04C83.9133 191.32 83.5467 191.46 83.12 191.46C82.6933 191.46 82.3267 191.32 82.02 191.04C81.7267 190.76 81.58 190.38 81.58 189.9C81.58 189.407 81.7267 189.02 82.02 188.74C82.3267 188.46 82.6933 188.32 83.12 188.32C83.5467 188.32 83.9133 188.46 84.22 188.74C84.5267 189.02 84.68 189.407 84.68 189.9ZM88.34 201.6C87.8333 201.84 87.3533 202 86.9 202.08C86.46 202.173 86.0533 202.22 85.68 202.22C85.04 202.22 84.5 202.127 84.06 201.94C83.6333 201.753 83.2867 201.487 83.02 201.14C82.7667 200.78 82.5867 200.347 82.48 199.84C82.3733 199.333 82.32 198.753 82.32 198.1V194.64H79.72V192.6H84.78V198.42C84.78 198.98 84.88 199.4 85.08 199.68C85.2933 199.947 85.64 200.08 86.12 200.08C86.3467 200.08 86.62 200.053 86.94 200C87.26 199.933 87.62 199.807 88.02 199.62L88.34 201.6ZM89.88 197.3C89.88 196.62 89.9867 195.98 90.2 195.38C90.4133 194.78 90.74 194.26 91.18 193.82C91.62 193.367 92.1733 193.013 92.84 192.76C93.52 192.493 94.3267 192.36 95.26 192.36C95.82 192.36 96.3267 192.4 96.78 192.48C97.2333 192.56 97.6933 192.693 98.16 192.88L97.62 194.86C97.3533 194.767 97.0533 194.687 96.72 194.62C96.4 194.54 95.9867 194.5 95.48 194.5C94.8933 194.5 94.4 194.573 94 194.72C93.6133 194.853 93.3 195.047 93.06 195.3C92.82 195.54 92.6467 195.833 92.54 196.18C92.4333 196.527 92.38 196.9 92.38 197.3C92.38 198.167 92.62 198.847 93.1 199.34C93.5933 199.833 94.4267 200.08 95.6 200.08C95.9867 200.08 96.3867 200.053 96.8 200C97.2267 199.947 97.6133 199.86 97.96 199.74L98.32 201.76C97.9733 201.893 97.5533 202 97.06 202.08C96.5667 202.173 95.9867 202.22 95.32 202.22C94.36 202.22 93.5333 202.093 92.84 201.84C92.16 201.587 91.6 201.24 91.16 200.8C90.72 200.36 90.3933 199.84 90.18 199.24C89.98 198.64 89.88 197.993 89.88 197.3ZM108.34 201.6C108.3 201.627 108.207 201.673 108.06 201.74C107.927 201.807 107.747 201.88 107.52 201.96C107.293 202.027 107.013 202.087 106.68 202.14C106.36 202.193 105.993 202.22 105.58 202.22C104.447 202.22 103.62 201.887 103.1 201.22C102.58 200.54 102.32 199.553 102.32 198.26V190.28H99.72V188.24H104.78V198.44C104.78 199.08 104.907 199.513 105.16 199.74C105.413 199.967 105.733 200.08 106.12 200.08C106.613 200.08 107.027 200.013 107.36 199.88C107.693 199.747 107.913 199.66 108.02 199.62L108.34 201.6ZM109.62 197.38C109.62 196.553 109.747 195.827 110 195.2C110.253 194.573 110.587 194.053 111 193.64C111.413 193.213 111.887 192.893 112.42 192.68C112.953 192.467 113.5 192.36 114.06 192.36C115.447 192.36 116.5 192.773 117.22 193.6C117.94 194.413 118.3 195.607 118.3 197.18C118.3 197.34 118.293 197.507 118.28 197.68C118.28 197.853 118.273 197.993 118.26 198.1H112.16C112.16 198.713 112.413 199.2 112.92 199.56C113.427 199.907 114.08 200.08 114.88 200.08C115.373 200.08 115.84 200.027 116.28 199.92C116.733 199.813 117.113 199.707 117.42 199.6L117.76 201.7C117.333 201.847 116.88 201.967 116.4 202.06C115.92 202.167 115.38 202.22 114.78 202.22C113.98 202.22 113.26 202.12 112.62 201.92C111.993 201.707 111.453 201.4 111 201C110.56 200.587 110.22 200.08 109.98 199.48C109.74 198.88 109.62 198.18 109.62 197.38ZM115.92 196.4C115.92 196.147 115.887 195.907 115.82 195.68C115.753 195.44 115.647 195.227 115.5 195.04C115.353 194.853 115.167 194.707 114.94 194.6C114.713 194.48 114.433 194.42 114.1 194.42C113.78 194.42 113.5 194.473 113.26 194.58C113.033 194.687 112.84 194.833 112.68 195.02C112.533 195.207 112.413 195.42 112.32 195.66C112.24 195.9 112.187 196.147 112.16 196.4H115.92ZM133.48 189.48C135.053 189.48 136.273 189.807 137.14 190.46C138.007 191.1 138.44 192.153 138.44 193.62C138.44 195.1 138 196.173 137.12 196.84C136.253 197.493 135.02 197.82 133.42 197.82H132.54V202H130.08V189.78C130.32 189.727 130.587 189.68 130.88 189.64C131.187 189.6 131.493 189.573 131.8 189.56C132.107 189.533 132.407 189.513 132.7 189.5C132.993 189.487 133.253 189.48 133.48 189.48ZM133.76 191.62C133.613 191.62 133.407 191.627 133.14 191.64C132.887 191.64 132.687 191.653 132.54 191.68V195.68H133.54C134.327 195.68 134.92 195.527 135.32 195.22C135.72 194.9 135.92 194.36 135.92 193.6C135.92 192.88 135.72 192.373 135.32 192.08C134.933 191.773 134.413 191.62 133.76 191.62ZM148.44 197.28C148.44 198.027 148.333 198.707 148.12 199.32C147.907 199.92 147.607 200.44 147.22 200.88C146.833 201.32 146.367 201.66 145.82 201.9C145.287 202.14 144.687 202.26 144.02 202.26C143.353 202.26 142.747 202.14 142.2 201.9C141.667 201.66 141.2 201.32 140.8 200.88C140.413 200.44 140.113 199.92 139.9 199.32C139.687 198.707 139.58 198.027 139.58 197.28C139.58 196.547 139.687 195.88 139.9 195.28C140.127 194.667 140.433 194.147 140.82 193.72C141.22 193.28 141.693 192.947 142.24 192.72C142.787 192.48 143.38 192.36 144.02 192.36C144.673 192.36 145.267 192.48 145.8 192.72C146.347 192.947 146.813 193.28 147.2 193.72C147.6 194.147 147.907 194.667 148.12 195.28C148.333 195.88 148.44 196.547 148.44 197.28ZM142.08 197.3C142.08 198.14 142.227 198.82 142.52 199.34C142.827 199.86 143.313 200.12 143.98 200.12C144.62 200.12 145.1 199.86 145.42 199.34C145.753 198.82 145.92 198.14 145.92 197.3C145.92 196.46 145.767 195.787 145.46 195.28C145.167 194.76 144.687 194.5 144.02 194.5C143.38 194.5 142.893 194.76 142.56 195.28C142.24 195.787 142.08 196.46 142.08 197.3ZM153.56 200.14C154.16 200.14 154.62 200.1 154.94 200.02C155.26 199.927 155.42 199.747 155.42 199.48C155.42 199.307 155.367 199.16 155.26 199.04C155.167 198.92 155.027 198.82 154.84 198.74C154.667 198.647 154.46 198.56 154.22 198.48C153.993 198.4 153.753 198.32 153.5 198.24C153.14 198.133 152.773 198.013 152.4 197.88C152.027 197.733 151.687 197.553 151.38 197.34C151.073 197.127 150.82 196.86 150.62 196.54C150.42 196.207 150.32 195.793 150.32 195.3C150.32 194.9 150.393 194.527 150.54 194.18C150.7 193.82 150.94 193.507 151.26 193.24C151.593 192.96 152.013 192.747 152.52 192.6C153.027 192.44 153.633 192.36 154.34 192.36C154.953 192.36 155.52 192.407 156.04 192.5C156.573 192.593 157.033 192.727 157.42 192.9L157.04 194.98C156.813 194.913 156.46 194.807 155.98 194.66C155.5 194.5 154.96 194.42 154.36 194.42C153.733 194.42 153.307 194.5 153.08 194.66C152.867 194.807 152.76 194.967 152.76 195.14C152.76 195.287 152.807 195.42 152.9 195.54C153.007 195.647 153.14 195.747 153.3 195.84C153.473 195.933 153.667 196.027 153.88 196.12C154.107 196.2 154.347 196.28 154.6 196.36C154.96 196.48 155.333 196.613 155.72 196.76C156.107 196.907 156.453 197.093 156.76 197.32C157.08 197.533 157.34 197.813 157.54 198.16C157.74 198.493 157.84 198.907 157.84 199.4C157.84 199.787 157.767 200.153 157.62 200.5C157.473 200.847 157.227 201.147 156.88 201.4C156.547 201.653 156.107 201.853 155.56 202C155.013 202.147 154.34 202.22 153.54 202.22C152.727 202.22 152.033 202.127 151.46 201.94C150.887 201.753 150.427 201.587 150.08 201.44L150.46 199.38C150.927 199.567 151.42 199.74 151.94 199.9C152.473 200.06 153.013 200.14 153.56 200.14Z" fill="#0079F1"/>
</svg>
