<svg width="221" height="373" viewBox="0 0 221 373" fill="none" xmlns="http://www.w3.org/2000/svg">
<rect x="27.5" y="65.5" width="166" height="241" rx="11.5" stroke="#E62937"/>
<rect x="53.5" y="162.5" width="46" height="48" rx="11.5" stroke="#E62937"/>
<rect x="118.5" y="162.5" width="46" height="48" rx="11.5" stroke="#E62937"/>
<path d="M67.3238 172.717C67.7198 173.102 68.3529 173.093 68.7379 172.697L75.0113 166.244C75.3962 165.848 75.3873 165.215 74.9913 164.83C74.5953 164.445 73.9622 164.454 73.5772 164.85L68.0008 170.586L62.2646 165.01C61.8686 164.625 61.2355 164.634 60.8505 165.03C60.4656 165.426 60.4745 166.059 60.8705 166.444L67.3238 172.717ZM65.0001 29.0141L67.0209 172.015L69.0207 171.986L66.9999 28.9859L65.0001 29.0141Z" fill="white"/>
<path d="M134.493 172.862C134.968 173.142 135.581 172.983 135.862 172.507L140.429 164.752C140.709 164.276 140.55 163.663 140.074 163.383C139.598 163.103 138.986 163.261 138.705 163.737L134.646 170.631L127.752 166.571C127.276 166.291 126.663 166.45 126.383 166.926C126.103 167.402 126.261 168.014 126.737 168.295L134.493 172.862ZM97.0319 29.2505L134.032 172.25L135.968 171.75L98.9681 28.7495L97.0319 29.2505Z" fill="white"/>
<path d="M87.1318 172.496C87.4058 172.976 88.0166 173.142 88.4961 172.868L96.3103 168.403C96.7898 168.129 96.9564 167.518 96.6824 167.039C96.4084 166.559 95.7976 166.392 95.318 166.667L88.3721 170.636L84.403 163.69C84.129 163.21 83.5181 163.044 83.0386 163.318C82.5591 163.592 82.3925 164.202 82.6665 164.682L87.1318 172.496ZM126.035 28.7369L87.0352 171.737L88.9648 172.263L127.965 29.2631L126.035 28.7369Z" fill="white"/>
<path d="M151.269 172.682C151.645 173.086 152.278 173.108 152.682 172.731L159.264 166.594C159.668 166.217 159.69 165.584 159.314 165.18C158.937 164.776 158.304 164.754 157.9 165.131L152.049 170.587L146.594 164.736C146.217 164.332 145.584 164.31 145.18 164.686C144.776 165.063 144.754 165.696 145.131 166.1L151.269 172.682ZM156.001 28.9651L151.001 171.965L152.999 172.035L157.999 29.0349L156.001 28.9651Z" fill="white"/>
<path d="M70.2861 337.7C70.6728 338.095 71.3059 338.101 71.7002 337.714L78.1257 331.412C78.5199 331.025 78.5261 330.392 78.1394 329.998C77.7527 329.604 77.1195 329.597 76.7252 329.984L71.0137 335.586L65.4121 329.874C65.0253 329.48 64.3922 329.474 63.9979 329.861C63.6036 330.247 63.5975 330.88 63.9842 331.275L70.2861 337.7ZM71 233.99L70 336.99L72 337.01L73 234.01L71 233.99Z" fill="white"/>
<path d="M146.293 337.707C146.683 338.098 147.317 338.098 147.707 337.707L154.071 331.343C154.462 330.953 154.462 330.319 154.071 329.929C153.681 329.538 153.047 329.538 152.657 329.929L147 335.586L141.343 329.929C140.953 329.538 140.319 329.538 139.929 329.929C139.538 330.319 139.538 330.953 139.929 331.343L146.293 337.707ZM146 234L146 337L148 337L148 234L146 234Z" fill="white"/>
<path d="M63.68 23C63.5333 22.64 63.36 22.2333 63.16 21.78C62.96 21.3267 62.7467 20.86 62.52 20.38C62.2933 19.9 62.0467 19.42 61.78 18.94C61.5267 18.46 61.26 18.0133 60.98 17.6C60.5133 18.3467 60.0467 19.2067 59.58 20.18C59.1133 21.14 58.68 22.08 58.28 23H56.5C56.94 22.0133 57.4533 20.9467 58.04 19.8C58.6267 18.64 59.2533 17.5267 59.92 16.46L56.7 10.62H58.52L60.94 15.36L63.54 10.62H65.32L62.04 16.4C62.68 17.44 63.3 18.52 63.9 19.64C64.5 20.76 65.0333 21.88 65.5 23H63.68ZM67.5 13.18C68.18 12.9133 68.84 12.58 69.48 12.18C70.12 11.7667 70.7133 11.2467 71.26 10.62H72.42V21.6H74.76V23H68.1V21.6H70.78V12.92C70.6333 13.0533 70.4533 13.1933 70.24 13.34C70.04 13.4733 69.8133 13.6067 69.56 13.74C69.32 13.8733 69.0667 14 68.8 14.12C68.5333 14.24 68.2733 14.34 68.02 14.42L67.5 13.18Z" fill="#00E430"/>
<path d="M92.2 24V19.4C91.3867 18.0667 90.6467 16.7667 89.98 15.5C89.3267 14.2333 88.7533 12.94 88.26 11.62H90.1C90.4867 12.74 90.9267 13.8133 91.42 14.84C91.9267 15.8533 92.4667 16.9 93.04 17.98C93.6533 16.8467 94.1933 15.7733 94.66 14.76C95.14 13.7333 95.5733 12.6867 95.96 11.62H97.76C97.2533 12.9267 96.6733 14.2 96.02 15.44C95.3667 16.68 94.64 17.9867 93.84 19.36V24H92.2ZM99.5 14.18C100.18 13.9133 100.84 13.58 101.48 13.18C102.12 12.7667 102.713 12.2467 103.26 11.62H104.42V22.6H106.76V24H100.1V22.6H102.78V13.92C102.633 14.0533 102.453 14.1933 102.24 14.34C102.04 14.4733 101.813 14.6067 101.56 14.74C101.32 14.8733 101.067 15 100.8 15.12C100.533 15.24 100.273 15.34 100.02 15.42L99.5 14.18Z" fill="#00E430"/>
<path d="M124.68 23C124.533 22.64 124.36 22.2333 124.16 21.78C123.96 21.3267 123.747 20.86 123.52 20.38C123.293 19.9 123.047 19.42 122.78 18.94C122.527 18.46 122.26 18.0133 121.98 17.6C121.513 18.3467 121.047 19.2067 120.58 20.18C120.113 21.14 119.68 22.08 119.28 23H117.5C117.94 22.0133 118.453 20.9467 119.04 19.8C119.627 18.64 120.253 17.5267 120.92 16.46L117.7 10.62H119.52L121.94 15.36L124.54 10.62H126.32L123.04 16.4C123.68 17.44 124.3 18.52 124.9 19.64C125.5 20.76 126.033 21.88 126.5 23H124.68ZM135.4 13.78C135.4 14.2067 135.313 14.62 135.14 15.02C134.98 15.42 134.76 15.8133 134.48 16.2C134.213 16.5867 133.907 16.9667 133.56 17.34C133.213 17.7133 132.86 18.08 132.5 18.44C132.3 18.64 132.067 18.88 131.8 19.16C131.533 19.44 131.28 19.7267 131.04 20.02C130.8 20.3133 130.6 20.6 130.44 20.88C130.28 21.16 130.2 21.4 130.2 21.6H135.9V23H128.4C128.387 22.9333 128.38 22.8667 128.38 22.8C128.38 22.72 128.38 22.6467 128.38 22.58C128.38 22.02 128.473 21.5 128.66 21.02C128.847 20.54 129.087 20.0867 129.38 19.66C129.673 19.2333 130 18.8333 130.36 18.46C130.733 18.0733 131.1 17.7 131.46 17.34C131.753 17.0467 132.033 16.76 132.3 16.48C132.58 16.2 132.82 15.92 133.02 15.64C133.233 15.36 133.4 15.0733 133.52 14.78C133.653 14.4733 133.72 14.16 133.72 13.84C133.72 13.48 133.66 13.1733 133.54 12.92C133.433 12.6667 133.28 12.46 133.08 12.3C132.893 12.1267 132.673 12 132.42 11.92C132.167 11.84 131.893 11.8 131.6 11.8C131.253 11.8 130.933 11.8467 130.64 11.94C130.36 12.0333 130.107 12.1467 129.88 12.28C129.667 12.4133 129.48 12.5467 129.32 12.68C129.16 12.8 129.04 12.9 128.96 12.98L128.14 11.82C128.247 11.7 128.407 11.5533 128.62 11.38C128.833 11.2067 129.087 11.0467 129.38 10.9C129.687 10.74 130.027 10.6067 130.4 10.5C130.773 10.3933 131.173 10.34 131.6 10.34C132.893 10.34 133.847 10.64 134.46 11.24C135.087 11.8267 135.4 12.6733 135.4 13.78Z" fill="#00E430"/>
<path d="M151.2 23V18.4C150.387 17.0667 149.647 15.7667 148.98 14.5C148.327 13.2333 147.753 11.94 147.26 10.62H149.1C149.487 11.74 149.927 12.8133 150.42 13.84C150.927 14.8533 151.467 15.9 152.04 16.98C152.653 15.8467 153.193 14.7733 153.66 13.76C154.14 12.7333 154.573 11.6867 154.96 10.62H156.76C156.253 11.9267 155.673 13.2 155.02 14.44C154.367 15.68 153.64 16.9867 152.84 18.36V23H151.2ZM165.4 13.78C165.4 14.2067 165.313 14.62 165.14 15.02C164.98 15.42 164.76 15.8133 164.48 16.2C164.213 16.5867 163.907 16.9667 163.56 17.34C163.213 17.7133 162.86 18.08 162.5 18.44C162.3 18.64 162.067 18.88 161.8 19.16C161.533 19.44 161.28 19.7267 161.04 20.02C160.8 20.3133 160.6 20.6 160.44 20.88C160.28 21.16 160.2 21.4 160.2 21.6H165.9V23H158.4C158.387 22.9333 158.38 22.8667 158.38 22.8C158.38 22.72 158.38 22.6467 158.38 22.58C158.38 22.02 158.473 21.5 158.66 21.02C158.847 20.54 159.087 20.0867 159.38 19.66C159.673 19.2333 160 18.8333 160.36 18.46C160.733 18.0733 161.1 17.7 161.46 17.34C161.753 17.0467 162.033 16.76 162.3 16.48C162.58 16.2 162.82 15.92 163.02 15.64C163.233 15.36 163.4 15.0733 163.52 14.78C163.653 14.4733 163.72 14.16 163.72 13.84C163.72 13.48 163.66 13.1733 163.54 12.92C163.433 12.6667 163.28 12.46 163.08 12.3C162.893 12.1267 162.673 12 162.42 11.92C162.167 11.84 161.893 11.8 161.6 11.8C161.253 11.8 160.933 11.8467 160.64 11.94C160.36 12.0333 160.107 12.1467 159.88 12.28C159.667 12.4133 159.48 12.5467 159.32 12.68C159.16 12.8 159.04 12.9 158.96 12.98L158.14 11.82C158.247 11.7 158.407 11.5533 158.62 11.38C158.833 11.2067 159.087 11.0467 159.38 10.9C159.687 10.74 160.027 10.6067 160.4 10.5C160.773 10.3933 161.173 10.34 161.6 10.34C162.893 10.34 163.847 10.64 164.46 11.24C165.087 11.8267 165.4 12.6733 165.4 13.78Z" fill="#00E430"/>
<path d="M74.68 359C74.5333 358.64 74.36 358.233 74.16 357.78C73.96 357.327 73.7467 356.86 73.52 356.38C73.2933 355.9 73.0467 355.42 72.78 354.94C72.5267 354.46 72.26 354.013 71.98 353.6C71.5133 354.347 71.0467 355.207 70.58 356.18C70.1133 357.14 69.68 358.08 69.28 359H67.5C67.94 358.013 68.4533 356.947 69.04 355.8C69.6267 354.64 70.2533 353.527 70.92 352.46L67.7 346.62H69.52L71.94 351.36L74.54 346.62H76.32L73.04 352.4C73.68 353.44 74.3 354.52 74.9 355.64C75.5 356.76 76.0333 357.88 76.5 359H74.68Z" fill="#00E430"/>
<path d="M146.2 359V354.4C145.387 353.067 144.647 351.767 143.98 350.5C143.327 349.233 142.753 347.94 142.26 346.62H144.1C144.487 347.74 144.927 348.813 145.42 349.84C145.927 350.853 146.467 351.9 147.04 352.98C147.653 351.847 148.193 350.773 148.66 349.76C149.14 348.733 149.573 347.687 149.96 346.62H151.76C151.253 347.927 150.673 349.2 150.02 350.44C149.367 351.68 148.64 352.987 147.84 354.36V359H146.2Z" fill="#00E430"/>
<path d="M69.04 182L68.67 180.38H66.29L65.93 182H65.09C65.2033 181.56 65.33 181.083 65.47 180.57C65.61 180.057 65.76 179.53 65.92 178.99C66.0867 178.45 66.26 177.91 66.44 177.37C66.62 176.823 66.81 176.303 67.01 175.81H68.03C68.2233 176.303 68.4067 176.823 68.58 177.37C68.76 177.91 68.9267 178.45 69.08 178.99C69.24 179.53 69.39 180.057 69.53 180.57C69.67 181.083 69.7967 181.56 69.91 182H69.04ZM67.49 176.53C67.3367 176.95 67.17 177.437 66.99 177.99C66.81 178.543 66.64 179.113 66.48 179.7H68.48C68.3267 179.1 68.16 178.523 67.98 177.97C67.8067 177.41 67.6433 176.93 67.49 176.53Z" fill="#00E430"/>
<path d="M69.08 226L68.34 222.76H63.58L62.86 226H61.18C61.4067 225.12 61.66 224.167 61.94 223.14C62.22 222.113 62.52 221.06 62.84 219.98C63.1733 218.9 63.52 217.82 63.88 216.74C64.24 215.647 64.62 214.607 65.02 213.62H67.06C67.4467 214.607 67.8133 215.647 68.16 216.74C68.52 217.82 68.8533 218.9 69.16 219.98C69.48 221.06 69.78 222.113 70.06 223.14C70.34 224.167 70.5933 225.12 70.82 226H69.08ZM65.98 215.06C65.6733 215.9 65.34 216.873 64.98 217.98C64.62 219.087 64.28 220.227 63.96 221.4H67.96C67.6533 220.2 67.32 219.047 66.96 217.94C66.6133 216.82 66.2867 215.86 65.98 215.06ZM71.92 220.04H75.28V216.36H76.72V220.04H80.1V221.44H76.72V225.14H75.28V221.44H71.92V220.04ZM85.08 226.1C84.88 226.1 84.6467 226.093 84.38 226.08C84.1133 226.067 83.8467 226.047 83.58 226.02C83.3133 226.007 83.0467 225.98 82.78 225.94C82.5133 225.9 82.28 225.853 82.08 225.8V213.8C82.28 213.747 82.5067 213.7 82.76 213.66C83.0267 213.62 83.2933 213.593 83.56 213.58C83.84 213.553 84.1067 213.533 84.36 213.52C84.6267 213.507 84.8667 213.5 85.08 213.5C85.6933 213.5 86.2667 213.553 86.8 213.66C87.3333 213.767 87.7933 213.947 88.18 214.2C88.58 214.453 88.8867 214.787 89.1 215.2C89.3267 215.613 89.44 216.127 89.44 216.74C89.44 217.033 89.3933 217.32 89.3 217.6C89.2067 217.867 89.0733 218.12 88.9 218.36C88.74 218.6 88.5467 218.813 88.32 219C88.1067 219.173 87.8733 219.307 87.62 219.4C88.3 219.587 88.8667 219.933 89.32 220.44C89.7867 220.933 90.02 221.58 90.02 222.38C90.02 223.607 89.6267 224.533 88.84 225.16C88.0533 225.787 86.8 226.1 85.08 226.1ZM83.72 220.22V224.64C83.7467 224.653 83.8933 224.673 84.16 224.7C84.44 224.713 84.7867 224.72 85.2 224.72C85.6133 224.72 86.0067 224.687 86.38 224.62C86.7667 224.553 87.1067 224.433 87.4 224.26C87.6933 224.073 87.9267 223.833 88.1 223.54C88.2867 223.247 88.38 222.867 88.38 222.4C88.38 221.987 88.2933 221.64 88.12 221.36C87.96 221.08 87.74 220.86 87.46 220.7C87.1933 220.527 86.88 220.407 86.52 220.34C86.16 220.26 85.7867 220.22 85.4 220.22H83.72ZM83.72 218.86H85.02C85.3533 218.86 85.6867 218.827 86.02 218.76C86.3533 218.693 86.6533 218.587 86.92 218.44C87.1867 218.293 87.4 218.093 87.56 217.84C87.72 217.587 87.8 217.267 87.8 216.88C87.8 216.52 87.7267 216.213 87.58 215.96C87.4333 215.707 87.24 215.5 87 215.34C86.76 215.18 86.48 215.067 86.16 215C85.8533 214.933 85.5267 214.9 85.18 214.9C84.8333 214.9 84.5267 214.907 84.26 214.92C84.0067 214.92 83.8267 214.933 83.72 214.96V218.86Z" fill="#00E430"/>
<path d="M136.08 226L135.34 222.76H130.58L129.86 226H128.18C128.407 225.12 128.66 224.167 128.94 223.14C129.22 222.113 129.52 221.06 129.84 219.98C130.173 218.9 130.52 217.82 130.88 216.74C131.24 215.647 131.62 214.607 132.02 213.62H134.06C134.447 214.607 134.813 215.647 135.16 216.74C135.52 217.82 135.853 218.9 136.16 219.98C136.48 221.06 136.78 222.113 137.06 223.14C137.34 224.167 137.593 225.12 137.82 226H136.08ZM132.98 215.06C132.673 215.9 132.34 216.873 131.98 217.98C131.62 219.087 131.28 220.227 130.96 221.4H134.96C134.653 220.2 134.32 219.047 133.96 217.94C133.613 216.82 133.287 215.86 132.98 215.06ZM138.92 220.04H142.28V216.36H143.72V220.04H147.1V221.44H143.72V225.14H142.28V221.44H138.92V220.04ZM152.08 226.1C151.88 226.1 151.647 226.093 151.38 226.08C151.113 226.067 150.847 226.047 150.58 226.02C150.313 226.007 150.047 225.98 149.78 225.94C149.513 225.9 149.28 225.853 149.08 225.8V213.8C149.28 213.747 149.507 213.7 149.76 213.66C150.027 213.62 150.293 213.593 150.56 213.58C150.84 213.553 151.107 213.533 151.36 213.52C151.627 213.507 151.867 213.5 152.08 213.5C152.693 213.5 153.267 213.553 153.8 213.66C154.333 213.767 154.793 213.947 155.18 214.2C155.58 214.453 155.887 214.787 156.1 215.2C156.327 215.613 156.44 216.127 156.44 216.74C156.44 217.033 156.393 217.32 156.3 217.6C156.207 217.867 156.073 218.12 155.9 218.36C155.74 218.6 155.547 218.813 155.32 219C155.107 219.173 154.873 219.307 154.62 219.4C155.3 219.587 155.867 219.933 156.32 220.44C156.787 220.933 157.02 221.58 157.02 222.38C157.02 223.607 156.627 224.533 155.84 225.16C155.053 225.787 153.8 226.1 152.08 226.1ZM150.72 220.22V224.64C150.747 224.653 150.893 224.673 151.16 224.7C151.44 224.713 151.787 224.72 152.2 224.72C152.613 224.72 153.007 224.687 153.38 224.62C153.767 224.553 154.107 224.433 154.4 224.26C154.693 224.073 154.927 223.833 155.1 223.54C155.287 223.247 155.38 222.867 155.38 222.4C155.38 221.987 155.293 221.64 155.12 221.36C154.96 221.08 154.74 220.86 154.46 220.7C154.193 220.527 153.88 220.407 153.52 220.34C153.16 220.26 152.787 220.22 152.4 220.22H150.72ZM150.72 218.86H152.02C152.353 218.86 152.687 218.827 153.02 218.76C153.353 218.693 153.653 218.587 153.92 218.44C154.187 218.293 154.4 218.093 154.56 217.84C154.72 217.587 154.8 217.267 154.8 216.88C154.8 216.52 154.727 216.213 154.58 215.96C154.433 215.707 154.24 215.5 154 215.34C153.76 215.18 153.48 215.067 153.16 215C152.853 214.933 152.527 214.9 152.18 214.9C151.833 214.9 151.527 214.907 151.26 214.92C151.007 214.92 150.827 214.933 150.72 214.96V218.86Z" fill="#00E430"/>
<path d="M88.04 182.05C87.94 182.05 87.8233 182.047 87.69 182.04C87.5567 182.033 87.4233 182.023 87.29 182.01C87.1567 182.003 87.0233 181.99 86.89 181.97C86.7567 181.95 86.64 181.927 86.54 181.9V175.9C86.64 175.873 86.7533 175.85 86.88 175.83C87.0133 175.81 87.1467 175.797 87.28 175.79C87.42 175.777 87.5533 175.767 87.68 175.76C87.8133 175.753 87.9333 175.75 88.04 175.75C88.3467 175.75 88.6333 175.777 88.9 175.83C89.1667 175.883 89.3967 175.973 89.59 176.1C89.79 176.227 89.9433 176.393 90.05 176.6C90.1633 176.807 90.22 177.063 90.22 177.37C90.22 177.517 90.1967 177.66 90.15 177.8C90.1033 177.933 90.0367 178.06 89.95 178.18C89.87 178.3 89.7733 178.407 89.66 178.5C89.5533 178.587 89.4367 178.653 89.31 178.7C89.65 178.793 89.9333 178.967 90.16 179.22C90.3933 179.467 90.51 179.79 90.51 180.19C90.51 180.803 90.3133 181.267 89.92 181.58C89.5267 181.893 88.9 182.05 88.04 182.05ZM87.36 179.11V181.32C87.3733 181.327 87.4467 181.337 87.58 181.35C87.72 181.357 87.8933 181.36 88.1 181.36C88.3067 181.36 88.5033 181.343 88.69 181.31C88.8833 181.277 89.0533 181.217 89.2 181.13C89.3467 181.037 89.4633 180.917 89.55 180.77C89.6433 180.623 89.69 180.433 89.69 180.2C89.69 179.993 89.6467 179.82 89.56 179.68C89.48 179.54 89.37 179.43 89.23 179.35C89.0967 179.263 88.94 179.203 88.76 179.17C88.58 179.13 88.3933 179.11 88.2 179.11H87.36ZM87.36 178.43H88.01C88.1767 178.43 88.3433 178.413 88.51 178.38C88.6767 178.347 88.8267 178.293 88.96 178.22C89.0933 178.147 89.2 178.047 89.28 177.92C89.36 177.793 89.4 177.633 89.4 177.44C89.4 177.26 89.3633 177.107 89.29 176.98C89.2167 176.853 89.12 176.75 89 176.67C88.88 176.59 88.74 176.533 88.58 176.5C88.4267 176.467 88.2633 176.45 88.09 176.45C87.9167 176.45 87.7633 176.453 87.63 176.46C87.5033 176.46 87.4133 176.467 87.36 176.48V178.43Z" fill="#00E430"/>
<path d="M137.04 181L136.67 179.38H134.29L133.93 181H133.09C133.203 180.56 133.33 180.083 133.47 179.57C133.61 179.057 133.76 178.53 133.92 177.99C134.087 177.45 134.26 176.91 134.44 176.37C134.62 175.823 134.81 175.303 135.01 174.81H136.03C136.223 175.303 136.407 175.823 136.58 176.37C136.76 176.91 136.927 177.45 137.08 177.99C137.24 178.53 137.39 179.057 137.53 179.57C137.67 180.083 137.797 180.56 137.91 181H137.04ZM135.49 175.53C135.337 175.95 135.17 176.437 134.99 176.99C134.81 177.543 134.64 178.113 134.48 178.7H136.48C136.327 178.1 136.16 177.523 135.98 176.97C135.807 176.41 135.643 175.93 135.49 175.53Z" fill="#00E430"/>
<path d="M152.04 182.05C151.94 182.05 151.823 182.047 151.69 182.04C151.557 182.033 151.423 182.023 151.29 182.01C151.157 182.003 151.023 181.99 150.89 181.97C150.757 181.95 150.64 181.927 150.54 181.9V175.9C150.64 175.873 150.753 175.85 150.88 175.83C151.013 175.81 151.147 175.797 151.28 175.79C151.42 175.777 151.553 175.767 151.68 175.76C151.813 175.753 151.933 175.75 152.04 175.75C152.347 175.75 152.633 175.777 152.9 175.83C153.167 175.883 153.397 175.973 153.59 176.1C153.79 176.227 153.943 176.393 154.05 176.6C154.163 176.807 154.22 177.063 154.22 177.37C154.22 177.517 154.197 177.66 154.15 177.8C154.103 177.933 154.037 178.06 153.95 178.18C153.87 178.3 153.773 178.407 153.66 178.5C153.553 178.587 153.437 178.653 153.31 178.7C153.65 178.793 153.933 178.967 154.16 179.22C154.393 179.467 154.51 179.79 154.51 180.19C154.51 180.803 154.313 181.267 153.92 181.58C153.527 181.893 152.9 182.05 152.04 182.05ZM151.36 179.11V181.32C151.373 181.327 151.447 181.337 151.58 181.35C151.72 181.357 151.893 181.36 152.1 181.36C152.307 181.36 152.503 181.343 152.69 181.31C152.883 181.277 153.053 181.217 153.2 181.13C153.347 181.037 153.463 180.917 153.55 180.77C153.643 180.623 153.69 180.433 153.69 180.2C153.69 179.993 153.647 179.82 153.56 179.68C153.48 179.54 153.37 179.43 153.23 179.35C153.097 179.263 152.94 179.203 152.76 179.17C152.58 179.13 152.393 179.11 152.2 179.11H151.36ZM151.36 178.43H152.01C152.177 178.43 152.343 178.413 152.51 178.38C152.677 178.347 152.827 178.293 152.96 178.22C153.093 178.147 153.2 178.047 153.28 177.92C153.36 177.793 153.4 177.633 153.4 177.44C153.4 177.26 153.363 177.107 153.29 176.98C153.217 176.853 153.12 176.75 153 176.67C152.88 176.59 152.74 176.533 152.58 176.5C152.427 176.467 152.263 176.45 152.09 176.45C151.917 176.45 151.763 176.453 151.63 176.46C151.503 176.46 151.413 176.467 151.36 176.48V178.43Z" fill="#00E430"/>
<path d="M69.18 201L68.6 198.14H65.3L64.74 201H62.18C62.7667 198.56 63.36 196.34 63.96 194.34C64.56 192.327 65.14 190.42 65.7 188.62H68.38C68.9667 190.433 69.5467 192.36 70.12 194.4C70.7067 196.427 71.2733 198.627 71.82 201H69.18ZM66.98 191.02C66.8467 191.487 66.72 191.933 66.6 192.36C66.4933 192.773 66.3867 193.187 66.28 193.6C66.1867 194 66.0933 194.407 66 194.82C65.92 195.233 65.84 195.66 65.76 196.1H68.18C68.1 195.66 68.02 195.233 67.94 194.82C67.86 194.407 67.7667 194 67.66 193.6C67.5667 193.187 67.46 192.773 67.34 192.36C67.2333 191.933 67.1133 191.487 66.98 191.02ZM75.06 196.24C75.06 197.08 75.2133 197.767 75.52 198.3C75.84 198.833 76.3467 199.1 77.04 199.1C77.24 199.1 77.4267 199.093 77.6 199.08C77.7733 199.067 77.9533 199.047 78.14 199.02V193.9C77.9533 193.793 77.74 193.707 77.5 193.64C77.26 193.56 77.0067 193.52 76.74 193.52C76.1533 193.52 75.7267 193.753 75.46 194.22C75.1933 194.687 75.06 195.36 75.06 196.24ZM80.6 200.72C80.1467 200.867 79.5933 200.987 78.94 201.08C78.2867 201.173 77.6467 201.22 77.02 201.22C75.5533 201.22 74.44 200.787 73.68 199.92C72.9333 199.053 72.56 197.867 72.56 196.36C72.56 194.827 72.8733 193.62 73.5 192.74C74.14 191.847 75.08 191.4 76.32 191.4C76.6533 191.4 76.98 191.44 77.3 191.52C77.62 191.587 77.9 191.687 78.14 191.82V187.54L80.6 187.12V200.72ZM85.06 196.24C85.06 197.08 85.2133 197.767 85.52 198.3C85.84 198.833 86.3467 199.1 87.04 199.1C87.24 199.1 87.4267 199.093 87.6 199.08C87.7733 199.067 87.9533 199.047 88.14 199.02V193.9C87.9533 193.793 87.74 193.707 87.5 193.64C87.26 193.56 87.0067 193.52 86.74 193.52C86.1533 193.52 85.7267 193.753 85.46 194.22C85.1933 194.687 85.06 195.36 85.06 196.24ZM90.6 200.72C90.1467 200.867 89.5933 200.987 88.94 201.08C88.2867 201.173 87.6467 201.22 87.02 201.22C85.5533 201.22 84.44 200.787 83.68 199.92C82.9333 199.053 82.56 197.867 82.56 196.36C82.56 194.827 82.8733 193.62 83.5 192.74C84.14 191.847 85.08 191.4 86.32 191.4C86.6533 191.4 86.98 191.44 87.3 191.52C87.62 191.587 87.9 191.687 88.14 191.82V187.54L90.6 187.12V200.72Z" fill="#0079F1"/>
<path d="M134.18 201L133.6 198.14H130.3L129.74 201H127.18C127.767 198.56 128.36 196.34 128.96 194.34C129.56 192.327 130.14 190.42 130.7 188.62H133.38C133.967 190.433 134.547 192.36 135.12 194.4C135.707 196.427 136.273 198.627 136.82 201H134.18ZM131.98 191.02C131.847 191.487 131.72 191.933 131.6 192.36C131.493 192.773 131.387 193.187 131.28 193.6C131.187 194 131.093 194.407 131 194.82C130.92 195.233 130.84 195.66 130.76 196.1H133.18C133.1 195.66 133.02 195.233 132.94 194.82C132.86 194.407 132.767 194 132.66 193.6C132.567 193.187 132.46 192.773 132.34 192.36C132.233 191.933 132.113 191.487 131.98 191.02ZM140.06 196.24C140.06 197.08 140.213 197.767 140.52 198.3C140.84 198.833 141.347 199.1 142.04 199.1C142.24 199.1 142.427 199.093 142.6 199.08C142.773 199.067 142.953 199.047 143.14 199.02V193.9C142.953 193.793 142.74 193.707 142.5 193.64C142.26 193.56 142.007 193.52 141.74 193.52C141.153 193.52 140.727 193.753 140.46 194.22C140.193 194.687 140.06 195.36 140.06 196.24ZM145.6 200.72C145.147 200.867 144.593 200.987 143.94 201.08C143.287 201.173 142.647 201.22 142.02 201.22C140.553 201.22 139.44 200.787 138.68 199.92C137.933 199.053 137.56 197.867 137.56 196.36C137.56 194.827 137.873 193.62 138.5 192.74C139.14 191.847 140.08 191.4 141.32 191.4C141.653 191.4 141.98 191.44 142.3 191.52C142.62 191.587 142.9 191.687 143.14 191.82V187.54L145.6 187.12V200.72ZM150.06 196.24C150.06 197.08 150.213 197.767 150.52 198.3C150.84 198.833 151.347 199.1 152.04 199.1C152.24 199.1 152.427 199.093 152.6 199.08C152.773 199.067 152.953 199.047 153.14 199.02V193.9C152.953 193.793 152.74 193.707 152.5 193.64C152.26 193.56 152.007 193.52 151.74 193.52C151.153 193.52 150.727 193.753 150.46 194.22C150.193 194.687 150.06 195.36 150.06 196.24ZM155.6 200.72C155.147 200.867 154.593 200.987 153.94 201.08C153.287 201.173 152.647 201.22 152.02 201.22C150.553 201.22 149.44 200.787 148.68 199.92C147.933 199.053 147.56 197.867 147.56 196.36C147.56 194.827 147.873 193.62 148.5 192.74C149.14 191.847 150.08 191.4 151.32 191.4C151.653 191.4 151.98 191.44 152.3 191.52C152.62 191.587 152.9 191.687 153.14 191.82V187.54L155.6 187.12V200.72Z" fill="#0079F1"/>
</svg>
