<svg width="221" height="373" viewBox="0 0 221 373" fill="none" xmlns="http://www.w3.org/2000/svg">
<rect x="27.5" y="65.5" width="166" height="241" rx="11.5" stroke="#E62937"/>
<path d="M70.2929 89.7071C70.6834 90.0976 71.3166 90.0976 71.7071 89.7071L78.0711 83.3431C78.4616 82.9526 78.4616 82.3195 78.0711 81.9289C77.6805 81.5384 77.0474 81.5384 76.6569 81.9289L71 87.5858L65.3431 81.9289C64.9526 81.5384 64.3195 81.5384 63.9289 81.9289C63.5384 82.3195 63.5384 82.9526 63.9289 83.3431L70.2929 89.7071ZM70 29L70 89L72 89L72 29L70 29Z" fill="white"/>
<path d="M99.2929 89.7071C99.6834 90.0976 100.317 90.0976 100.707 89.7071L107.071 83.3431C107.462 82.9526 107.462 82.3195 107.071 81.9289C106.681 81.5384 106.047 81.5384 105.657 81.9289L100 87.5858L94.3431 81.9289C93.9526 81.5384 93.3195 81.5384 92.9289 81.9289C92.5384 82.3195 92.5384 82.9526 92.9289 83.3431L99.2929 89.7071ZM99 29L99 89L101 89L101 29L99 29Z" fill="white"/>
<path d="M126.293 89.7071C126.683 90.0976 127.317 90.0976 127.707 89.7071L134.071 83.3431C134.462 82.9526 134.462 82.3195 134.071 81.9289C133.681 81.5384 133.047 81.5384 132.657 81.9289L127 87.5858L121.343 81.9289C120.953 81.5384 120.319 81.5384 119.929 81.9289C119.538 82.3195 119.538 82.9526 119.929 83.3431L126.293 89.7071ZM126 29L126 89L128 89L128 29L126 29Z" fill="white"/>
<path d="M156.293 89.7071C156.683 90.0976 157.317 90.0976 157.707 89.7071L164.071 83.3431C164.462 82.9526 164.462 82.3195 164.071 81.9289C163.681 81.5384 163.047 81.5384 162.657 81.9289L157 87.5858L151.343 81.9289C150.953 81.5384 150.319 81.5384 149.929 81.9289C149.538 82.3195 149.538 82.9526 149.929 83.3431L156.293 89.7071ZM156 29L156 89L158 89L158 29L156 29Z" fill="white"/>
<path d="M70.2929 337.707C70.6834 338.098 71.3166 338.098 71.7071 337.707L78.0711 331.343C78.4616 330.953 78.4616 330.319 78.0711 329.929C77.6805 329.538 77.0474 329.538 76.6569 329.929L71 335.586L65.3431 329.929C64.9526 329.538 64.3195 329.538 63.9289 329.929C63.5384 330.319 63.5384 330.953 63.9289 331.343L70.2929 337.707ZM70 277L70 337L72 337L72 277L70 277Z" fill="white"/>
<path d="M146.293 337.707C146.683 338.098 147.317 338.098 147.707 337.707L154.071 331.343C154.462 330.953 154.462 330.319 154.071 329.929C153.681 329.538 153.047 329.538 152.657 329.929L147 335.586L141.343 329.929C140.953 329.538 140.319 329.538 139.929 329.929C139.538 330.319 139.538 330.953 139.929 331.343L146.293 337.707ZM146 277L146 337L148 337L148 277L146 277Z" fill="white"/>
<path d="M68.68 23C68.5333 22.64 68.36 22.2333 68.16 21.78C67.96 21.3267 67.7467 20.86 67.52 20.38C67.2933 19.9 67.0467 19.42 66.78 18.94C66.5267 18.46 66.26 18.0133 65.98 17.6C65.5133 18.3467 65.0467 19.2067 64.58 20.18C64.1133 21.14 63.68 22.08 63.28 23H61.5C61.94 22.0133 62.4533 20.9467 63.04 19.8C63.6267 18.64 64.2533 17.5267 64.92 16.46L61.7 10.62H63.52L65.94 15.36L68.54 10.62H70.32L67.04 16.4C67.68 17.44 68.3 18.52 68.9 19.64C69.5 20.76 70.0333 21.88 70.5 23H68.68ZM72.5 13.18C73.18 12.9133 73.84 12.58 74.48 12.18C75.12 11.7667 75.7133 11.2467 76.26 10.62H77.42V21.6H79.76V23H73.1V21.6H75.78V12.92C75.6333 13.0533 75.4533 13.1933 75.24 13.34C75.04 13.4733 74.8133 13.6067 74.56 13.74C74.32 13.8733 74.0667 14 73.8 14.12C73.5333 14.24 73.2733 14.34 73.02 14.42L72.5 13.18Z" fill="#00E430"/>
<path d="M95.2 23V18.4C94.3867 17.0667 93.6467 15.7667 92.98 14.5C92.3267 13.2333 91.7533 11.94 91.26 10.62H93.1C93.4867 11.74 93.9267 12.8133 94.42 13.84C94.9267 14.8533 95.4667 15.9 96.04 16.98C96.6533 15.8467 97.1933 14.7733 97.66 13.76C98.14 12.7333 98.5733 11.6867 98.96 10.62H100.76C100.253 11.9267 99.6733 13.2 99.02 14.44C98.3667 15.68 97.64 16.9867 96.84 18.36V23H95.2ZM102.5 13.18C103.18 12.9133 103.84 12.58 104.48 12.18C105.12 11.7667 105.713 11.2467 106.26 10.62H107.42V21.6H109.76V23H103.1V21.6H105.78V12.92C105.633 13.0533 105.453 13.1933 105.24 13.34C105.04 13.4733 104.813 13.6067 104.56 13.74C104.32 13.8733 104.067 14 103.8 14.12C103.533 14.24 103.273 14.34 103.02 14.42L102.5 13.18Z" fill="#00E430"/>
<path d="M124.68 23C124.533 22.64 124.36 22.2333 124.16 21.78C123.96 21.3267 123.747 20.86 123.52 20.38C123.293 19.9 123.047 19.42 122.78 18.94C122.527 18.46 122.26 18.0133 121.98 17.6C121.513 18.3467 121.047 19.2067 120.58 20.18C120.113 21.14 119.68 22.08 119.28 23H117.5C117.94 22.0133 118.453 20.9467 119.04 19.8C119.627 18.64 120.253 17.5267 120.92 16.46L117.7 10.62H119.52L121.94 15.36L124.54 10.62H126.32L123.04 16.4C123.68 17.44 124.3 18.52 124.9 19.64C125.5 20.76 126.033 21.88 126.5 23H124.68ZM135.4 13.78C135.4 14.2067 135.313 14.62 135.14 15.02C134.98 15.42 134.76 15.8133 134.48 16.2C134.213 16.5867 133.907 16.9667 133.56 17.34C133.213 17.7133 132.86 18.08 132.5 18.44C132.3 18.64 132.067 18.88 131.8 19.16C131.533 19.44 131.28 19.7267 131.04 20.02C130.8 20.3133 130.6 20.6 130.44 20.88C130.28 21.16 130.2 21.4 130.2 21.6H135.9V23H128.4C128.387 22.9333 128.38 22.8667 128.38 22.8C128.38 22.72 128.38 22.6467 128.38 22.58C128.38 22.02 128.473 21.5 128.66 21.02C128.847 20.54 129.087 20.0867 129.38 19.66C129.673 19.2333 130 18.8333 130.36 18.46C130.733 18.0733 131.1 17.7 131.46 17.34C131.753 17.0467 132.033 16.76 132.3 16.48C132.58 16.2 132.82 15.92 133.02 15.64C133.233 15.36 133.4 15.0733 133.52 14.78C133.653 14.4733 133.72 14.16 133.72 13.84C133.72 13.48 133.66 13.1733 133.54 12.92C133.433 12.6667 133.28 12.46 133.08 12.3C132.893 12.1267 132.673 12 132.42 11.92C132.167 11.84 131.893 11.8 131.6 11.8C131.253 11.8 130.933 11.8467 130.64 11.94C130.36 12.0333 130.107 12.1467 129.88 12.28C129.667 12.4133 129.48 12.5467 129.32 12.68C129.16 12.8 129.04 12.9 128.96 12.98L128.14 11.82C128.247 11.7 128.407 11.5533 128.62 11.38C128.833 11.2067 129.087 11.0467 129.38 10.9C129.687 10.74 130.027 10.6067 130.4 10.5C130.773 10.3933 131.173 10.34 131.6 10.34C132.893 10.34 133.847 10.64 134.46 11.24C135.087 11.8267 135.4 12.6733 135.4 13.78Z" fill="#00E430"/>
<path d="M151.2 23V18.4C150.387 17.0667 149.647 15.7667 148.98 14.5C148.327 13.2333 147.753 11.94 147.26 10.62H149.1C149.487 11.74 149.927 12.8133 150.42 13.84C150.927 14.8533 151.467 15.9 152.04 16.98C152.653 15.8467 153.193 14.7733 153.66 13.76C154.14 12.7333 154.573 11.6867 154.96 10.62H156.76C156.253 11.9267 155.673 13.2 155.02 14.44C154.367 15.68 153.64 16.9867 152.84 18.36V23H151.2ZM165.4 13.78C165.4 14.2067 165.313 14.62 165.14 15.02C164.98 15.42 164.76 15.8133 164.48 16.2C164.213 16.5867 163.907 16.9667 163.56 17.34C163.213 17.7133 162.86 18.08 162.5 18.44C162.3 18.64 162.067 18.88 161.8 19.16C161.533 19.44 161.28 19.7267 161.04 20.02C160.8 20.3133 160.6 20.6 160.44 20.88C160.28 21.16 160.2 21.4 160.2 21.6H165.9V23H158.4C158.387 22.9333 158.38 22.8667 158.38 22.8C158.38 22.72 158.38 22.6467 158.38 22.58C158.38 22.02 158.473 21.5 158.66 21.02C158.847 20.54 159.087 20.0867 159.38 19.66C159.673 19.2333 160 18.8333 160.36 18.46C160.733 18.0733 161.1 17.7 161.46 17.34C161.753 17.0467 162.033 16.76 162.3 16.48C162.58 16.2 162.82 15.92 163.02 15.64C163.233 15.36 163.4 15.0733 163.52 14.78C163.653 14.4733 163.72 14.16 163.72 13.84C163.72 13.48 163.66 13.1733 163.54 12.92C163.433 12.6667 163.28 12.46 163.08 12.3C162.893 12.1267 162.673 12 162.42 11.92C162.167 11.84 161.893 11.8 161.6 11.8C161.253 11.8 160.933 11.8467 160.64 11.94C160.36 12.0333 160.107 12.1467 159.88 12.28C159.667 12.4133 159.48 12.5467 159.32 12.68C159.16 12.8 159.04 12.9 158.96 12.98L158.14 11.82C158.247 11.7 158.407 11.5533 158.62 11.38C158.833 11.2067 159.087 11.0467 159.38 10.9C159.687 10.74 160.027 10.6067 160.4 10.5C160.773 10.3933 161.173 10.34 161.6 10.34C162.893 10.34 163.847 10.64 164.46 11.24C165.087 11.8267 165.4 12.6733 165.4 13.78Z" fill="#00E430"/>
<path d="M74.68 359C74.5333 358.64 74.36 358.233 74.16 357.78C73.96 357.327 73.7467 356.86 73.52 356.38C73.2933 355.9 73.0467 355.42 72.78 354.94C72.5267 354.46 72.26 354.013 71.98 353.6C71.5133 354.347 71.0467 355.207 70.58 356.18C70.1133 357.14 69.68 358.08 69.28 359H67.5C67.94 358.013 68.4533 356.947 69.04 355.8C69.6267 354.64 70.2533 353.527 70.92 352.46L67.7 346.62H69.52L71.94 351.36L74.54 346.62H76.32L73.04 352.4C73.68 353.44 74.3 354.52 74.9 355.64C75.5 356.76 76.0333 357.88 76.5 359H74.68Z" fill="#00E430"/>
<path d="M146.2 359V354.4C145.387 353.067 144.647 351.767 143.98 350.5C143.327 349.233 142.753 347.94 142.26 346.62H144.1C144.487 347.74 144.927 348.813 145.42 349.84C145.927 350.853 146.467 351.9 147.04 352.98C147.653 351.847 148.193 350.773 148.66 349.76C149.14 348.733 149.573 347.687 149.96 346.62H151.76C151.253 347.927 150.673 349.2 150.02 350.44C149.367 351.68 148.64 352.987 147.84 354.36V359H146.2Z" fill="#00E430"/>
<path d="M64.04 187.8C64.04 188.4 64.06 188.967 64.1 189.5C64.1533 190.02 64.2467 190.473 64.38 190.86C64.5267 191.247 64.7267 191.553 64.98 191.78C65.2333 192.007 65.5733 192.12 66 192.12C66.4133 192.12 66.7467 192.007 67 191.78C67.2667 191.553 67.4667 191.247 67.6 190.86C67.7467 190.46 67.84 190 67.88 189.48C67.9333 188.96 67.96 188.4 67.96 187.8C67.96 187.2 67.9333 186.64 67.88 186.12C67.84 185.587 67.7467 185.127 67.6 184.74C67.4667 184.353 67.2733 184.047 67.02 183.82C66.7667 183.593 66.4267 183.48 66 183.48C65.5733 183.48 65.2333 183.593 64.98 183.82C64.7267 184.047 64.5267 184.36 64.38 184.76C64.2467 185.147 64.1533 185.6 64.1 186.12C64.06 186.64 64.04 187.2 64.04 187.8ZM61.54 187.8C61.54 185.667 61.9333 184.06 62.72 182.98C63.5067 181.887 64.6 181.34 66 181.34C67.4533 181.34 68.56 181.887 69.32 182.98C70.08 184.06 70.46 185.667 70.46 187.8C70.46 189.933 70.0733 191.547 69.3 192.64C68.5267 193.72 67.4333 194.26 66.02 194.26C64.5667 194.26 63.4533 193.72 62.68 192.64C61.92 191.547 61.54 189.933 61.54 187.8ZM73.78 194V186.64H71.72V184.6H73.78V184.06C73.78 183.3 73.8867 182.673 74.1 182.18C74.3267 181.673 74.6267 181.273 75 180.98C75.3733 180.673 75.8 180.46 76.28 180.34C76.76 180.207 77.2533 180.14 77.76 180.14C78.28 180.14 78.8133 180.187 79.36 180.28C79.9067 180.373 80.4 180.527 80.84 180.74L80.42 182.74C80.1133 182.633 79.7267 182.527 79.26 182.42C78.8067 182.3 78.3733 182.24 77.96 182.24C77.7333 182.24 77.5133 182.26 77.3 182.3C77.1 182.34 76.92 182.427 76.76 182.56C76.6133 182.693 76.4933 182.887 76.4 183.14C76.3067 183.38 76.26 183.7 76.26 184.1V184.6H80.12V186.64H76.26V194H73.78ZM83.78 194V186.64H81.72V184.6H83.78V184.06C83.78 183.3 83.8867 182.673 84.1 182.18C84.3267 181.673 84.6267 181.273 85 180.98C85.3733 180.673 85.8 180.46 86.28 180.34C86.76 180.207 87.2533 180.14 87.76 180.14C88.28 180.14 88.8133 180.187 89.36 180.28C89.9067 180.373 90.4 180.527 90.84 180.74L90.42 182.74C90.1133 182.633 89.7267 182.527 89.26 182.42C88.8067 182.3 88.3733 182.24 87.96 182.24C87.7333 182.24 87.5133 182.26 87.3 182.3C87.1 182.34 86.92 182.427 86.76 182.56C86.6133 182.693 86.4933 182.887 86.4 183.14C86.3067 183.38 86.26 183.7 86.26 184.1V184.6H90.12V186.64H86.26V194H83.78ZM95.56 192.14C96.16 192.14 96.62 192.1 96.94 192.02C97.26 191.927 97.42 191.747 97.42 191.48C97.42 191.307 97.3667 191.16 97.26 191.04C97.1667 190.92 97.0267 190.82 96.84 190.74C96.6667 190.647 96.46 190.56 96.22 190.48C95.9933 190.4 95.7533 190.32 95.5 190.24C95.14 190.133 94.7733 190.013 94.4 189.88C94.0267 189.733 93.6867 189.553 93.38 189.34C93.0733 189.127 92.82 188.86 92.62 188.54C92.42 188.207 92.32 187.793 92.32 187.3C92.32 186.9 92.3933 186.527 92.54 186.18C92.7 185.82 92.94 185.507 93.26 185.24C93.5933 184.96 94.0133 184.747 94.52 184.6C95.0267 184.44 95.6333 184.36 96.34 184.36C96.9533 184.36 97.52 184.407 98.04 184.5C98.5733 184.593 99.0333 184.727 99.42 184.9L99.04 186.98C98.8133 186.913 98.46 186.807 97.98 186.66C97.5 186.5 96.96 186.42 96.36 186.42C95.7333 186.42 95.3067 186.5 95.08 186.66C94.8667 186.807 94.76 186.967 94.76 187.14C94.76 187.287 94.8067 187.42 94.9 187.54C95.0067 187.647 95.14 187.747 95.3 187.84C95.4733 187.933 95.6667 188.027 95.88 188.12C96.1067 188.2 96.3467 188.28 96.6 188.36C96.96 188.48 97.3333 188.613 97.72 188.76C98.1067 188.907 98.4533 189.093 98.76 189.32C99.08 189.533 99.34 189.813 99.54 190.16C99.74 190.493 99.84 190.907 99.84 191.4C99.84 191.787 99.7667 192.153 99.62 192.5C99.4733 192.847 99.2267 193.147 98.88 193.4C98.5467 193.653 98.1067 193.853 97.56 194C97.0133 194.147 96.34 194.22 95.54 194.22C94.7267 194.22 94.0333 194.127 93.46 193.94C92.8867 193.753 92.4267 193.587 92.08 193.44L92.46 191.38C92.9267 191.567 93.42 191.74 93.94 191.9C94.4733 192.06 95.0133 192.14 95.56 192.14ZM101.62 189.38C101.62 188.553 101.747 187.827 102 187.2C102.253 186.573 102.587 186.053 103 185.64C103.413 185.213 103.887 184.893 104.42 184.68C104.953 184.467 105.5 184.36 106.06 184.36C107.447 184.36 108.5 184.773 109.22 185.6C109.94 186.413 110.3 187.607 110.3 189.18C110.3 189.34 110.293 189.507 110.28 189.68C110.28 189.853 110.273 189.993 110.26 190.1H104.16C104.16 190.713 104.413 191.2 104.92 191.56C105.427 191.907 106.08 192.08 106.88 192.08C107.373 192.08 107.84 192.027 108.28 191.92C108.733 191.813 109.113 191.707 109.42 191.6L109.76 193.7C109.333 193.847 108.88 193.967 108.4 194.06C107.92 194.167 107.38 194.22 106.78 194.22C105.98 194.22 105.26 194.12 104.62 193.92C103.993 193.707 103.453 193.4 103 193C102.56 192.587 102.22 192.08 101.98 191.48C101.74 190.88 101.62 190.18 101.62 189.38ZM107.92 188.4C107.92 188.147 107.887 187.907 107.82 187.68C107.753 187.44 107.647 187.227 107.5 187.04C107.353 186.853 107.167 186.707 106.94 186.6C106.713 186.48 106.433 186.42 106.1 186.42C105.78 186.42 105.5 186.473 105.26 186.58C105.033 186.687 104.84 186.833 104.68 187.02C104.533 187.207 104.413 187.42 104.32 187.66C104.24 187.9 104.187 188.147 104.16 188.4H107.92ZM113.86 186.64H111.72V184.6H113.86V182.24L116.32 181.84V184.6H120.26V186.64H116.32V190.44C116.32 190.787 116.353 191.067 116.42 191.28C116.487 191.493 116.58 191.66 116.7 191.78C116.82 191.9 116.967 191.98 117.14 192.02C117.313 192.06 117.507 192.08 117.72 192.08C117.947 192.08 118.153 192.073 118.34 192.06C118.54 192.047 118.727 192.027 118.9 192C119.087 191.96 119.273 191.907 119.46 191.84C119.66 191.773 119.873 191.687 120.1 191.58L120.44 193.7C119.987 193.887 119.493 194.02 118.96 194.1C118.44 194.18 117.933 194.22 117.44 194.22C116.867 194.22 116.36 194.173 115.92 194.08C115.48 193.987 115.107 193.807 114.8 193.54C114.493 193.273 114.26 192.9 114.1 192.42C113.94 191.927 113.86 191.287 113.86 190.5V186.64ZM135.48 181.48C137.053 181.48 138.273 181.807 139.14 182.46C140.007 183.1 140.44 184.153 140.44 185.62C140.44 187.1 140 188.173 139.12 188.84C138.253 189.493 137.02 189.82 135.42 189.82H134.54V194H132.08V181.78C132.32 181.727 132.587 181.68 132.88 181.64C133.187 181.6 133.493 181.573 133.8 181.56C134.107 181.533 134.407 181.513 134.7 181.5C134.993 181.487 135.253 181.48 135.48 181.48ZM135.76 183.62C135.613 183.62 135.407 183.627 135.14 183.64C134.887 183.64 134.687 183.653 134.54 183.68V187.68H135.54C136.327 187.68 136.92 187.527 137.32 187.22C137.72 186.9 137.92 186.36 137.92 185.6C137.92 184.88 137.72 184.373 137.32 184.08C136.933 183.773 136.413 183.62 135.76 183.62ZM150.44 189.28C150.44 190.027 150.333 190.707 150.12 191.32C149.907 191.92 149.607 192.44 149.22 192.88C148.833 193.32 148.367 193.66 147.82 193.9C147.287 194.14 146.687 194.26 146.02 194.26C145.353 194.26 144.747 194.14 144.2 193.9C143.667 193.66 143.2 193.32 142.8 192.88C142.413 192.44 142.113 191.92 141.9 191.32C141.687 190.707 141.58 190.027 141.58 189.28C141.58 188.547 141.687 187.88 141.9 187.28C142.127 186.667 142.433 186.147 142.82 185.72C143.22 185.28 143.693 184.947 144.24 184.72C144.787 184.48 145.38 184.36 146.02 184.36C146.673 184.36 147.267 184.48 147.8 184.72C148.347 184.947 148.813 185.28 149.2 185.72C149.6 186.147 149.907 186.667 150.12 187.28C150.333 187.88 150.44 188.547 150.44 189.28ZM144.08 189.3C144.08 190.14 144.227 190.82 144.52 191.34C144.827 191.86 145.313 192.12 145.98 192.12C146.62 192.12 147.1 191.86 147.42 191.34C147.753 190.82 147.92 190.14 147.92 189.3C147.92 188.46 147.767 187.787 147.46 187.28C147.167 186.76 146.687 186.5 146.02 186.5C145.38 186.5 144.893 186.76 144.56 187.28C144.24 187.787 144.08 188.46 144.08 189.3ZM155.56 192.14C156.16 192.14 156.62 192.1 156.94 192.02C157.26 191.927 157.42 191.747 157.42 191.48C157.42 191.307 157.367 191.16 157.26 191.04C157.167 190.92 157.027 190.82 156.84 190.74C156.667 190.647 156.46 190.56 156.22 190.48C155.993 190.4 155.753 190.32 155.5 190.24C155.14 190.133 154.773 190.013 154.4 189.88C154.027 189.733 153.687 189.553 153.38 189.34C153.073 189.127 152.82 188.86 152.62 188.54C152.42 188.207 152.32 187.793 152.32 187.3C152.32 186.9 152.393 186.527 152.54 186.18C152.7 185.82 152.94 185.507 153.26 185.24C153.593 184.96 154.013 184.747 154.52 184.6C155.027 184.44 155.633 184.36 156.34 184.36C156.953 184.36 157.52 184.407 158.04 184.5C158.573 184.593 159.033 184.727 159.42 184.9L159.04 186.98C158.813 186.913 158.46 186.807 157.98 186.66C157.5 186.5 156.96 186.42 156.36 186.42C155.733 186.42 155.307 186.5 155.08 186.66C154.867 186.807 154.76 186.967 154.76 187.14C154.76 187.287 154.807 187.42 154.9 187.54C155.007 187.647 155.14 187.747 155.3 187.84C155.473 187.933 155.667 188.027 155.88 188.12C156.107 188.2 156.347 188.28 156.6 188.36C156.96 188.48 157.333 188.613 157.72 188.76C158.107 188.907 158.453 189.093 158.76 189.32C159.08 189.533 159.34 189.813 159.54 190.16C159.74 190.493 159.84 190.907 159.84 191.4C159.84 191.787 159.767 192.153 159.62 192.5C159.473 192.847 159.227 193.147 158.88 193.4C158.547 193.653 158.107 193.853 157.56 194C157.013 194.147 156.34 194.22 155.54 194.22C154.727 194.22 154.033 194.127 153.46 193.94C152.887 193.753 152.427 193.587 152.08 193.44L152.46 191.38C152.927 191.567 153.42 191.74 153.94 191.9C154.473 192.06 155.013 192.14 155.56 192.14Z" fill="#0079F1"/>
</svg>
