<svg width="199" height="390" viewBox="0 0 199 390" fill="none" xmlns="http://www.w3.org/2000/svg">
<rect x="4.5" y="58.5" width="189" height="276" rx="11.5" stroke="#E62937" stroke-linejoin="round"/>
<rect x="15.5" y="71.5" width="79" height="79" rx="11.5" stroke="#E62937" stroke-linejoin="round"/>
<path d="M36.2929 90.7071C36.6834 91.0976 37.3166 91.0976 37.7071 90.7071L44.0711 84.3431C44.4616 83.9526 44.4616 83.3195 44.0711 82.9289C43.6805 82.5384 43.0474 82.5384 42.6569 82.9289L37 88.5858L31.3431 82.9289C30.9526 82.5384 30.3195 82.5384 29.9289 82.9289C29.5384 83.3195 29.5384 83.9526 29.9289 84.3431L36.2929 90.7071ZM36 46L36 90L38 90L38 46L36 46Z" fill="white"/>
<path d="M72.2929 90.7071C72.6834 91.0976 73.3166 91.0976 73.7071 90.7071L80.0711 84.3431C80.4616 83.9526 80.4616 83.3195 80.0711 82.9289C79.6805 82.5384 79.0474 82.5384 78.6569 82.9289L73 88.5858L67.3431 82.9289C66.9526 82.5384 66.3195 82.5384 65.9289 82.9289C65.5384 83.3195 65.5384 83.9526 65.9289 84.3431L72.2929 90.7071ZM72 37L72 90L74 90L74 37L72 37Z" fill="white"/>
<path d="M36.2929 167.707C36.6834 168.098 37.3166 168.098 37.7071 167.707L44.0711 161.343C44.4616 160.953 44.4616 160.319 44.0711 159.929C43.6805 159.538 43.0474 159.538 42.6569 159.929L37 165.586L31.3431 159.929C30.9526 159.538 30.3195 159.538 29.9289 159.929C29.5384 160.319 29.5384 160.953 29.9289 161.343L36.2929 167.707ZM36 135L36 167L38 167L38 135L36 135Z" fill="white"/>
<path d="M72.2929 167.707C72.6834 168.098 73.3166 168.098 73.7071 167.707L80.0711 161.343C80.4616 160.953 80.4616 160.319 80.0711 159.929C79.6805 159.538 79.0474 159.538 78.6569 159.929L73 165.586L67.3431 159.929C66.9526 159.538 66.3195 159.538 65.9289 159.929C65.5384 160.319 65.5384 160.953 65.9289 161.343L72.2929 167.707ZM72 135L72 167L74 167L74 135L72 135Z" fill="white"/>
<path d="M80.2929 348.707C80.6834 349.098 81.3166 349.098 81.7071 348.707L88.0711 342.343C88.4616 341.953 88.4616 341.319 88.0711 340.929C87.6805 340.538 87.0474 340.538 86.6569 340.929L81 346.586L75.3431 340.929C74.9526 340.538 74.3195 340.538 73.9289 340.929C73.5384 341.319 73.5384 341.953 73.9289 342.343L80.2929 348.707ZM80 320V348H82V320H80Z" fill="white"/>
<path d="M116.293 372.707C116.683 373.098 117.317 373.098 117.707 372.707L124.071 366.343C124.462 365.953 124.462 365.319 124.071 364.929C123.681 364.538 123.047 364.538 122.657 364.929L117 370.586L111.343 364.929C110.953 364.538 110.319 364.538 109.929 364.929C109.538 365.319 109.538 365.953 109.929 366.343L116.293 372.707ZM116 320V372H118V320H116Z" fill="white"/>
<path d="M124.293 90.7071C124.683 91.0976 125.317 91.0976 125.707 90.7071L132.071 84.3431C132.462 83.9526 132.462 83.3195 132.071 82.9289C131.681 82.5384 131.047 82.5384 130.657 82.9289L125 88.5858L119.343 82.9289C118.953 82.5384 118.319 82.5384 117.929 82.9289C117.538 83.3195 117.538 83.9526 117.929 84.3431L124.293 90.7071ZM124 30V90H126V30H124Z" fill="white"/>
<path d="M160.293 90.7071C160.683 91.0976 161.317 91.0976 161.707 90.7071L168.071 84.3431C168.462 83.9526 168.462 83.3195 168.071 82.9289C167.681 82.5384 167.047 82.5384 166.657 82.9289L161 88.5858L155.343 82.9289C154.953 82.5384 154.319 82.5384 153.929 82.9289C153.538 83.3195 153.538 83.9526 153.929 84.3431L160.293 90.7071ZM160 18V90H162V18H160Z" fill="white"/>
<path d="M27.14 115.74C27.4933 115.74 27.8133 115.78 28.1 115.86C28.3867 115.94 28.6333 116.063 28.84 116.23C29.0467 116.397 29.2033 116.61 29.31 116.87C29.4233 117.123 29.48 117.423 29.48 117.77C29.48 118.13 29.4067 118.457 29.26 118.75C29.1133 119.043 28.87 119.267 28.53 119.42C28.6433 119.593 28.7633 119.787 28.89 120C29.0167 120.207 29.14 120.427 29.26 120.66C29.38 120.887 29.4933 121.117 29.6 121.35C29.7133 121.577 29.81 121.793 29.89 122H28.6C28.4467 121.6 28.2667 121.217 28.06 120.85C27.86 120.477 27.6433 120.1 27.41 119.72H26.77V122H25.54V115.9C25.66 115.873 25.79 115.85 25.93 115.83C26.0767 115.803 26.2233 115.787 26.37 115.78C26.5167 115.767 26.6567 115.757 26.79 115.75C26.9233 115.743 27.04 115.74 27.14 115.74ZM28.23 117.76C28.23 117.433 28.13 117.193 27.93 117.04C27.73 116.887 27.4667 116.81 27.14 116.81C27.0933 116.81 27.0367 116.813 26.97 116.82C26.9033 116.82 26.8367 116.827 26.77 116.84V118.7H27.04C27.46 118.7 27.7633 118.62 27.95 118.46C28.1367 118.293 28.23 118.06 28.23 117.76ZM34.72 119.64C34.72 120.013 34.6667 120.353 34.56 120.66C34.4533 120.96 34.3033 121.22 34.11 121.44C33.9167 121.66 33.6833 121.83 33.41 121.95C33.1433 122.07 32.8433 122.13 32.51 122.13C32.1767 122.13 31.8733 122.07 31.6 121.95C31.3333 121.83 31.1 121.66 30.9 121.44C30.7067 121.22 30.5567 120.96 30.45 120.66C30.3433 120.353 30.29 120.013 30.29 119.64C30.29 119.273 30.3433 118.94 30.45 118.64C30.5633 118.333 30.7167 118.073 30.91 117.86C31.11 117.64 31.3467 117.473 31.62 117.36C31.8933 117.24 32.19 117.18 32.51 117.18C32.8367 117.18 33.1333 117.24 33.4 117.36C33.6733 117.473 33.9067 117.64 34.1 117.86C34.3 118.073 34.4533 118.333 34.56 118.64C34.6667 118.94 34.72 119.273 34.72 119.64ZM31.54 119.65C31.54 120.07 31.6133 120.41 31.76 120.67C31.9133 120.93 32.1567 121.06 32.49 121.06C32.81 121.06 33.05 120.93 33.21 120.67C33.3767 120.41 33.46 120.07 33.46 119.65C33.46 119.23 33.3833 118.893 33.23 118.64C33.0833 118.38 32.8433 118.25 32.51 118.25C32.19 118.25 31.9467 118.38 31.78 118.64C31.62 118.893 31.54 119.23 31.54 119.65ZM36.43 118.32H35.36V117.3H36.43V116.12L37.66 115.92V117.3H39.63V118.32H37.66V120.22C37.66 120.393 37.6767 120.533 37.71 120.64C37.7433 120.747 37.79 120.83 37.85 120.89C37.91 120.95 37.9833 120.99 38.07 121.01C38.1567 121.03 38.2533 121.04 38.36 121.04C38.4733 121.04 38.5767 121.037 38.67 121.03C38.77 121.023 38.8633 121.013 38.95 121C39.0433 120.98 39.1367 120.953 39.23 120.92C39.33 120.887 39.4367 120.843 39.55 120.79L39.72 121.85C39.4933 121.943 39.2467 122.01 38.98 122.05C38.72 122.09 38.4667 122.11 38.22 122.11C37.9333 122.11 37.68 122.087 37.46 122.04C37.24 121.993 37.0533 121.903 36.9 121.77C36.7467 121.637 36.63 121.45 36.55 121.21C36.47 120.963 36.43 120.643 36.43 120.25V118.32ZM42.51 121.12C42.6433 121.12 42.7733 121.12 42.9 121.12C43.0267 121.113 43.1367 121.103 43.23 121.09V120.01C43.15 119.997 43.0533 119.987 42.94 119.98C42.8267 119.967 42.7233 119.96 42.63 119.96C42.5033 119.96 42.38 119.97 42.26 119.99C42.14 120.003 42.0333 120.03 41.94 120.07C41.8533 120.11 41.7833 120.167 41.73 120.24C41.6767 120.313 41.65 120.41 41.65 120.53C41.65 120.743 41.73 120.897 41.89 120.99C42.05 121.077 42.2567 121.12 42.51 121.12ZM42.4 117.18C42.7867 117.18 43.1067 117.227 43.36 117.32C43.62 117.407 43.8267 117.533 43.98 117.7C44.1333 117.86 44.2433 118.06 44.31 118.3C44.3767 118.533 44.41 118.797 44.41 119.09V121.89C44.23 121.93 43.9633 121.977 43.61 122.03C43.2567 122.083 42.86 122.11 42.42 122.11C42.12 122.11 41.8467 122.083 41.6 122.03C41.36 121.977 41.1533 121.89 40.98 121.77C40.8067 121.643 40.6733 121.483 40.58 121.29C40.4867 121.09 40.44 120.847 40.44 120.56C40.44 120.287 40.4933 120.057 40.6 119.87C40.7067 119.683 40.85 119.533 41.03 119.42C41.21 119.307 41.4167 119.227 41.65 119.18C41.8833 119.127 42.1267 119.1 42.38 119.1C42.7 119.1 42.9833 119.127 43.23 119.18V119.03C43.23 118.797 43.1567 118.603 43.01 118.45C42.8633 118.29 42.61 118.21 42.25 118.21C42.0167 118.21 41.79 118.227 41.57 118.26C41.3567 118.293 41.1833 118.333 41.05 118.38L40.88 117.39C41.0333 117.337 41.25 117.29 41.53 117.25C41.81 117.203 42.1 117.18 42.4 117.18ZM46.43 118.32H45.36V117.3H46.43V116.12L47.66 115.92V117.3H49.63V118.32H47.66V120.22C47.66 120.393 47.6767 120.533 47.71 120.64C47.7433 120.747 47.79 120.83 47.85 120.89C47.91 120.95 47.9833 120.99 48.07 121.01C48.1567 121.03 48.2533 121.04 48.36 121.04C48.4733 121.04 48.5767 121.037 48.67 121.03C48.77 121.023 48.8633 121.013 48.95 121C49.0433 120.98 49.1367 120.953 49.23 120.92C49.33 120.887 49.4367 120.843 49.55 120.79L49.72 121.85C49.4933 121.943 49.2467 122.01 48.98 122.05C48.72 122.09 48.4667 122.11 48.22 122.11C47.9333 122.11 47.68 122.087 47.46 122.04C47.24 121.993 47.0533 121.903 46.9 121.77C46.7467 121.637 46.63 121.45 46.55 121.21C46.47 120.963 46.43 120.643 46.43 120.25V118.32ZM50.31 119.69C50.31 119.277 50.3733 118.913 50.5 118.6C50.6267 118.287 50.7933 118.027 51 117.82C51.2067 117.607 51.4433 117.447 51.71 117.34C51.9767 117.233 52.25 117.18 52.53 117.18C53.2233 117.18 53.75 117.387 54.11 117.8C54.47 118.207 54.65 118.803 54.65 119.59C54.65 119.67 54.6467 119.753 54.64 119.84C54.64 119.927 54.6367 119.997 54.63 120.05H51.58C51.58 120.357 51.7067 120.6 51.96 120.78C52.2133 120.953 52.54 121.04 52.94 121.04C53.1867 121.04 53.42 121.013 53.64 120.96C53.8667 120.907 54.0567 120.853 54.21 120.8L54.38 121.85C54.1667 121.923 53.94 121.983 53.7 122.03C53.46 122.083 53.19 122.11 52.89 122.11C52.49 122.11 52.13 122.06 51.81 121.96C51.4967 121.853 51.2267 121.7 51 121.5C50.78 121.293 50.61 121.04 50.49 120.74C50.37 120.44 50.31 120.09 50.31 119.69ZM53.46 119.2C53.46 119.073 53.4433 118.953 53.41 118.84C53.3767 118.72 53.3233 118.613 53.25 118.52C53.1767 118.427 53.0833 118.353 52.97 118.3C52.8567 118.24 52.7167 118.21 52.55 118.21C52.39 118.21 52.25 118.237 52.13 118.29C52.0167 118.343 51.92 118.417 51.84 118.51C51.7667 118.603 51.7067 118.71 51.66 118.83C51.62 118.95 51.5933 119.073 51.58 119.2H53.46ZM62.24 115.74C63.0267 115.74 63.6367 115.903 64.07 116.23C64.5033 116.55 64.72 117.077 64.72 117.81C64.72 118.55 64.5 119.087 64.06 119.42C63.6267 119.747 63.01 119.91 62.21 119.91H61.77V122H60.54V115.89C60.66 115.863 60.7933 115.84 60.94 115.82C61.0933 115.8 61.2467 115.787 61.4 115.78C61.5533 115.767 61.7033 115.757 61.85 115.75C61.9967 115.743 62.1267 115.74 62.24 115.74ZM62.38 116.81C62.3067 116.81 62.2033 116.813 62.07 116.82C61.9433 116.82 61.8433 116.827 61.77 116.84V118.84H62.27C62.6633 118.84 62.96 118.763 63.16 118.61C63.36 118.45 63.46 118.18 63.46 117.8C63.46 117.44 63.36 117.187 63.16 117.04C62.9667 116.887 62.7067 116.81 62.38 116.81ZM69.72 119.64C69.72 120.013 69.6667 120.353 69.56 120.66C69.4533 120.96 69.3033 121.22 69.11 121.44C68.9167 121.66 68.6833 121.83 68.41 121.95C68.1433 122.07 67.8433 122.13 67.51 122.13C67.1767 122.13 66.8733 122.07 66.6 121.95C66.3333 121.83 66.1 121.66 65.9 121.44C65.7067 121.22 65.5567 120.96 65.45 120.66C65.3433 120.353 65.29 120.013 65.29 119.64C65.29 119.273 65.3433 118.94 65.45 118.64C65.5633 118.333 65.7167 118.073 65.91 117.86C66.11 117.64 66.3467 117.473 66.62 117.36C66.8933 117.24 67.19 117.18 67.51 117.18C67.8367 117.18 68.1333 117.24 68.4 117.36C68.6733 117.473 68.9067 117.64 69.1 117.86C69.3 118.073 69.4533 118.333 69.56 118.64C69.6667 118.94 69.72 119.273 69.72 119.64ZM66.54 119.65C66.54 120.07 66.6133 120.41 66.76 120.67C66.9133 120.93 67.1567 121.06 67.49 121.06C67.81 121.06 68.05 120.93 68.21 120.67C68.3767 120.41 68.46 120.07 68.46 119.65C68.46 119.23 68.3833 118.893 68.23 118.64C68.0833 118.38 67.8433 118.25 67.51 118.25C67.19 118.25 66.9467 118.38 66.78 118.64C66.62 118.893 66.54 119.23 66.54 119.65ZM72.84 115.95C72.84 116.19 72.7633 116.38 72.61 116.52C72.4567 116.66 72.2733 116.73 72.06 116.73C71.8467 116.73 71.6633 116.66 71.51 116.52C71.3633 116.38 71.29 116.19 71.29 115.95C71.29 115.703 71.3633 115.51 71.51 115.37C71.6633 115.23 71.8467 115.16 72.06 115.16C72.2733 115.16 72.4567 115.23 72.61 115.37C72.7633 115.51 72.84 115.703 72.84 115.95ZM74.67 121.8C74.4167 121.92 74.1767 122 73.95 122.04C73.73 122.087 73.5267 122.11 73.34 122.11C73.02 122.11 72.75 122.063 72.53 121.97C72.3167 121.877 72.1433 121.743 72.01 121.57C71.8833 121.39 71.7933 121.173 71.74 120.92C71.6867 120.667 71.66 120.377 71.66 120.05V118.32H70.36V117.3H72.89V120.21C72.89 120.49 72.94 120.7 73.04 120.84C73.1467 120.973 73.32 121.04 73.56 121.04C73.6733 121.04 73.81 121.027 73.97 121C74.13 120.967 74.31 120.903 74.51 120.81L74.67 121.8ZM75.63 117.45C75.85 117.39 76.12 117.333 76.44 117.28C76.7667 117.227 77.12 117.2 77.5 117.2C77.8733 117.2 78.1833 117.253 78.43 117.36C78.6767 117.46 78.87 117.607 79.01 117.8C79.1567 117.987 79.26 118.213 79.32 118.48C79.38 118.74 79.41 119.03 79.41 119.35V122H78.18V119.51C78.18 119.07 78.13 118.753 78.03 118.56C77.93 118.367 77.7267 118.27 77.42 118.27C77.3267 118.27 77.2333 118.273 77.14 118.28C77.0533 118.287 76.96 118.297 76.86 118.31V122H75.63V117.45ZM81.43 118.32H80.36V117.3H81.43V116.12L82.66 115.92V117.3H84.63V118.32H82.66V120.22C82.66 120.393 82.6767 120.533 82.71 120.64C82.7433 120.747 82.79 120.83 82.85 120.89C82.91 120.95 82.9833 120.99 83.07 121.01C83.1567 121.03 83.2533 121.04 83.36 121.04C83.4733 121.04 83.5767 121.037 83.67 121.03C83.77 121.023 83.8633 121.013 83.95 121C84.0433 120.98 84.1367 120.953 84.23 120.92C84.33 120.887 84.4367 120.843 84.55 120.79L84.72 121.85C84.4933 121.943 84.2467 122.01 83.98 122.05C83.72 122.09 83.4667 122.11 83.22 122.11C82.9333 122.11 82.68 122.087 82.46 122.04C82.24 121.993 82.0533 121.903 81.9 121.77C81.7467 121.637 81.63 121.45 81.55 121.21C81.47 120.963 81.43 120.643 81.43 120.25V118.32Z" fill="#0079F1"/>
<path d="M27.04 101L26.67 99.38H24.29L23.93 101H23.09C23.2033 100.56 23.33 100.083 23.47 99.57C23.61 99.0567 23.76 98.53 23.92 97.99C24.0867 97.45 24.26 96.91 24.44 96.37C24.62 95.8233 24.81 95.3033 25.01 94.81H26.03C26.2233 95.3033 26.4067 95.8233 26.58 96.37C26.76 96.91 26.9267 97.45 27.08 97.99C27.24 98.53 27.39 99.0567 27.53 99.57C27.67 100.083 27.7967 100.56 27.91 101H27.04ZM25.49 95.53C25.3367 95.95 25.17 96.4367 24.99 96.99C24.81 97.5433 24.64 98.1133 24.48 98.7H26.48C26.3267 98.1 26.16 97.5233 25.98 96.97C25.8067 96.41 25.6433 95.93 25.49 95.53ZM28.71 96.49C29.01 96.4167 29.3067 96.36 29.6 96.32C29.9 96.28 30.18 96.26 30.44 96.26C31.06 96.26 31.5267 96.42 31.84 96.74C32.16 97.06 32.32 97.5733 32.32 98.28V101H31.5V98.43C31.5 98.13 31.4733 97.8867 31.42 97.7C31.3667 97.5133 31.29 97.37 31.19 97.27C31.0967 97.1633 30.98 97.09 30.84 97.05C30.7067 97.01 30.56 96.99 30.4 96.99C30.2667 96.99 30.1233 97 29.97 97.02C29.8233 97.0333 29.68 97.0533 29.54 97.08V101H28.71V96.49ZM36.46 100.57C36.3667 100.623 36.2233 100.68 36.03 100.74C35.8367 100.8 35.6133 100.83 35.36 100.83C35.0867 100.83 34.83 100.787 34.59 100.7C34.3567 100.607 34.15 100.47 33.97 100.29C33.7967 100.103 33.6567 99.87 33.55 99.59C33.45 99.3033 33.4 98.9667 33.4 98.58C33.4 98.24 33.4467 97.93 33.54 97.65C33.64 97.3633 33.78 97.1167 33.96 96.91C34.1467 96.7033 34.3733 96.5433 34.64 96.43C34.9067 96.31 35.21 96.25 35.55 96.25C35.95 96.25 36.29 96.28 36.57 96.34C36.8567 96.3933 37.0967 96.4467 37.29 96.5V100.64C37.29 101.36 37.1067 101.88 36.74 102.2C36.38 102.52 35.8333 102.68 35.1 102.68C34.8 102.68 34.5267 102.657 34.28 102.61C34.04 102.563 33.8267 102.507 33.64 102.44L33.79 101.71C33.9633 101.783 34.16 101.843 34.38 101.89C34.6067 101.937 34.8533 101.96 35.12 101.96C35.6 101.96 35.9433 101.863 36.15 101.67C36.3567 101.477 36.46 101.163 36.46 100.73V100.57ZM36.46 97.09C36.38 97.0633 36.27 97.04 36.13 97.02C35.99 96.9933 35.8 96.98 35.56 96.98C35.1333 96.98 34.8067 97.1267 34.58 97.42C34.36 97.7133 34.25 98.1033 34.25 98.59C34.25 98.8567 34.28 99.0867 34.34 99.28C34.4067 99.4667 34.4933 99.6233 34.6 99.75C34.7133 99.87 34.84 99.96 34.98 100.02C35.12 100.073 35.27 100.1 35.43 100.1C35.6367 100.1 35.83 100.07 36.01 100.01C36.1967 99.95 36.3467 99.88 36.46 99.8V97.09ZM41.38 101.11C41.0867 101.11 40.8433 101.07 40.65 100.99C40.4567 100.91 40.3033 100.79 40.19 100.63C40.0767 100.47 39.9967 100.273 39.95 100.04C39.9033 99.8 39.88 99.5233 39.88 99.21V94.82H38.54V94.12H40.7V99.21C40.7 99.4433 40.7133 99.6333 40.74 99.78C40.7733 99.9267 40.82 100.047 40.88 100.14C40.9467 100.227 41.0267 100.287 41.12 100.32C41.2133 100.353 41.3233 100.37 41.45 100.37C41.6433 100.37 41.8233 100.347 41.99 100.3C42.1567 100.253 42.2867 100.203 42.38 100.15L42.5 100.85C42.46 100.87 42.4033 100.897 42.33 100.93C42.2567 100.957 42.17 100.983 42.07 101.01C41.97 101.037 41.86 101.06 41.74 101.08C41.6267 101.1 41.5067 101.11 41.38 101.11ZM45.59 96.25C46.2167 96.25 46.7 96.4467 47.04 96.84C47.38 97.2267 47.55 97.8167 47.55 98.61V98.9H44.23C44.2633 99.38 44.42 99.7467 44.7 100C44.9867 100.247 45.3867 100.37 45.9 100.37C46.1933 100.37 46.4433 100.347 46.65 100.3C46.8567 100.253 47.0133 100.203 47.12 100.15L47.23 100.85C47.13 100.903 46.95 100.96 46.69 101.02C46.43 101.08 46.1367 101.11 45.81 101.11C45.41 101.11 45.0567 101.05 44.75 100.93C44.45 100.803 44.2 100.633 44 100.42C43.8 100.207 43.65 99.9533 43.55 99.66C43.45 99.36 43.4 99.0367 43.4 98.69C43.4 98.2767 43.4633 97.9167 43.59 97.61C43.7167 97.3033 43.8833 97.05 44.09 96.85C44.2967 96.65 44.53 96.5 44.79 96.4C45.05 96.3 45.3167 96.25 45.59 96.25ZM46.71 98.23C46.71 97.8367 46.6067 97.5267 46.4 97.3C46.1933 97.0667 45.92 96.95 45.58 96.95C45.3867 96.95 45.21 96.9867 45.05 97.06C44.8967 97.1333 44.7633 97.23 44.65 97.35C44.5367 97.47 44.4467 97.6067 44.38 97.76C44.3133 97.9133 44.27 98.07 44.25 98.23H46.71Z" fill="#00E430"/>
<path d="M55.6 97.9C55.6 98.4733 55.5267 98.96 55.38 99.36C55.24 99.76 55.0433 100.087 54.79 100.34C54.5433 100.587 54.2467 100.767 53.9 100.88C53.56 100.993 53.19 101.05 52.79 101.05C52.3767 101.05 51.96 101 51.54 100.9V94.9C51.96 94.8 52.3767 94.75 52.79 94.75C53.19 94.75 53.56 94.8067 53.9 94.92C54.2467 95.0333 54.5433 95.2167 54.79 95.47C55.0433 95.7233 55.24 96.05 55.38 96.45C55.5267 96.85 55.6 97.3333 55.6 97.9ZM52.36 100.31C52.5267 100.33 52.6967 100.34 52.87 100.34C53.17 100.34 53.4367 100.297 53.67 100.21C53.9033 100.117 54.1 99.9733 54.26 99.78C54.42 99.58 54.5433 99.3267 54.63 99.02C54.7167 98.7067 54.76 98.3333 54.76 97.9C54.76 97.06 54.5967 96.4433 54.27 96.05C53.95 95.6567 53.4733 95.46 52.84 95.46C52.7533 95.46 52.6667 95.4633 52.58 95.47C52.5 95.47 52.4267 95.4767 52.36 95.49V100.31ZM58.09 95.64C57.9167 95.64 57.7667 95.58 57.64 95.46C57.5133 95.34 57.45 95.1767 57.45 94.97C57.45 94.7633 57.5133 94.6 57.64 94.48C57.7667 94.36 57.9167 94.3 58.09 94.3C58.27 94.3 58.42 94.36 58.54 94.48C58.6667 94.6 58.73 94.7633 58.73 94.97C58.73 95.1767 58.6667 95.34 58.54 95.46C58.42 95.58 58.27 95.64 58.09 95.64ZM57.88 97.05H56.54V96.36H58.7V99.21C58.7 99.67 58.7633 99.98 58.89 100.14C59.0167 100.293 59.2067 100.37 59.46 100.37C59.6533 100.37 59.83 100.347 59.99 100.3C60.1567 100.253 60.2867 100.203 60.38 100.15L60.5 100.85C60.46 100.87 60.4033 100.897 60.33 100.93C60.2567 100.957 60.17 100.983 60.07 101.01C59.9767 101.037 59.87 101.06 59.75 101.08C59.6367 101.1 59.5167 101.11 59.39 101.11C59.0967 101.11 58.8533 101.07 58.66 100.99C58.4667 100.91 58.31 100.79 58.19 100.63C58.0767 100.47 57.9967 100.273 57.95 100.04C57.9033 99.8 57.88 99.5233 57.88 99.21V97.05ZM64.51 99.84C64.51 99.6733 64.44 99.5367 64.3 99.43C64.1667 99.3233 63.9967 99.23 63.79 99.15C63.59 99.07 63.37 98.9933 63.13 98.92C62.89 98.84 62.6667 98.7433 62.46 98.63C62.26 98.5167 62.09 98.3767 61.95 98.21C61.8167 98.0433 61.75 97.8267 61.75 97.56C61.75 97.1867 61.9 96.8767 62.2 96.63C62.5067 96.3767 62.9833 96.25 63.63 96.25C63.8833 96.25 64.1433 96.27 64.41 96.31C64.6833 96.3433 64.9167 96.39 65.11 96.45L64.96 97.19C64.9067 97.1633 64.8333 97.1367 64.74 97.11C64.6467 97.0767 64.54 97.05 64.42 97.03C64.3 97.0033 64.17 96.9833 64.03 96.97C63.8967 96.9567 63.7667 96.95 63.64 96.95C62.92 96.95 62.56 97.1467 62.56 97.54C62.56 97.68 62.6267 97.8 62.76 97.9C62.9 97.9933 63.0733 98.08 63.28 98.16C63.4867 98.24 63.71 98.3233 63.95 98.41C64.19 98.49 64.4133 98.59 64.62 98.71C64.8267 98.83 64.9967 98.9767 65.13 99.15C65.27 99.3167 65.34 99.53 65.34 99.79C65.34 100.21 65.1767 100.537 64.85 100.77C64.5233 100.997 64.0067 101.11 63.3 101.11C62.98 101.11 62.6867 101.083 62.42 101.03C62.1533 100.977 61.9 100.897 61.66 100.79L61.82 100.04C62.0533 100.147 62.2967 100.237 62.55 100.31C62.81 100.377 63.0867 100.41 63.38 100.41C64.1333 100.41 64.51 100.22 64.51 99.84ZM68.43 96.36H70.39V97.05H68.43V99.21C68.43 99.4433 68.4467 99.6333 68.48 99.78C68.5133 99.9267 68.5667 100.047 68.64 100.14C68.72 100.227 68.82 100.287 68.94 100.32C69.06 100.353 69.2067 100.37 69.38 100.37C69.62 100.37 69.8133 100.35 69.96 100.31C70.1067 100.27 70.2467 100.217 70.38 100.15L70.5 100.85C70.4067 100.89 70.2567 100.943 70.05 101.01C69.85 101.077 69.6 101.11 69.3 101.11C68.9533 101.11 68.67 101.07 68.45 100.99C68.23 100.91 68.0567 100.79 67.93 100.63C67.81 100.47 67.7267 100.273 67.68 100.04C67.6333 99.8 67.61 99.5233 67.61 99.21V97.05H66.63V96.36H67.61V95.06L68.43 94.92V96.36ZM73.55 100.41C73.7567 100.41 73.94 100.403 74.1 100.39C74.2667 100.377 74.4033 100.36 74.51 100.34V98.96C74.4033 98.9267 74.2733 98.9 74.12 98.88C73.9733 98.86 73.8167 98.85 73.65 98.85C73.4967 98.85 73.3467 98.8633 73.2 98.89C73.0533 98.91 72.9233 98.95 72.81 99.01C72.6967 99.07 72.6033 99.15 72.53 99.25C72.4567 99.3433 72.42 99.4633 72.42 99.61C72.42 99.91 72.52 100.12 72.72 100.24C72.9267 100.353 73.2033 100.41 73.55 100.41ZM73.47 96.25C73.8167 96.25 74.1067 96.2933 74.34 96.38C74.58 96.4667 74.7733 96.5867 74.92 96.74C75.0667 96.8933 75.17 97.08 75.23 97.3C75.29 97.52 75.32 97.76 75.32 98.02V100.92C75.1267 100.953 74.87 100.993 74.55 101.04C74.2367 101.087 73.9133 101.11 73.58 101.11C73.3267 101.11 73.08 101.087 72.84 101.04C72.6 101 72.3867 100.927 72.2 100.82C72.0133 100.707 71.8633 100.553 71.75 100.36C71.6367 100.167 71.58 99.92 71.58 99.62C71.58 99.3533 71.6367 99.13 71.75 98.95C71.87 98.7633 72.02 98.6133 72.2 98.5C72.3867 98.3867 72.5967 98.3067 72.83 98.26C73.07 98.2067 73.31 98.18 73.55 98.18C73.8767 98.18 74.1967 98.2167 74.51 98.29V98.06C74.51 97.92 74.4933 97.7867 74.46 97.66C74.4333 97.5267 74.3767 97.4067 74.29 97.3C74.21 97.1933 74.0967 97.11 73.95 97.05C73.81 96.9833 73.6267 96.95 73.4 96.95C73.1133 96.95 72.8633 96.97 72.65 97.01C72.4367 97.05 72.2733 97.09 72.16 97.13L72.06 96.45C72.1733 96.3967 72.36 96.35 72.62 96.31C72.8867 96.27 73.17 96.25 73.47 96.25ZM76.71 96.49C77.01 96.4167 77.3067 96.36 77.6 96.32C77.9 96.28 78.18 96.26 78.44 96.26C79.06 96.26 79.5267 96.42 79.84 96.74C80.16 97.06 80.32 97.5733 80.32 98.28V101H79.5V98.43C79.5 98.13 79.4733 97.8867 79.42 97.7C79.3667 97.5133 79.29 97.37 79.19 97.27C79.0967 97.1633 78.98 97.09 78.84 97.05C78.7067 97.01 78.56 96.99 78.4 96.99C78.2667 96.99 78.1233 97 77.97 97.02C77.8233 97.0333 77.68 97.0533 77.54 97.08V101H76.71V96.49ZM81.49 98.69C81.49 98.27 81.5567 97.9067 81.69 97.6C81.8233 97.2933 82.0067 97.04 82.24 96.84C82.4733 96.64 82.7433 96.4933 83.05 96.4C83.3633 96.3 83.6967 96.25 84.05 96.25C84.2767 96.25 84.5 96.2667 84.72 96.3C84.9467 96.3267 85.1867 96.38 85.44 96.46L85.25 97.17C85.03 97.09 84.8267 97.04 84.64 97.02C84.46 96.9933 84.2767 96.98 84.09 96.98C83.85 96.98 83.6233 97.0133 83.41 97.08C83.1967 97.14 83.01 97.24 82.85 97.38C82.6967 97.5133 82.5733 97.69 82.48 97.91C82.3867 98.1233 82.34 98.3833 82.34 98.69C82.34 98.9833 82.3833 99.2367 82.47 99.45C82.5567 99.6567 82.6767 99.83 82.83 99.97C82.99 100.103 83.18 100.203 83.4 100.27C83.62 100.337 83.8633 100.37 84.13 100.37C84.3433 100.37 84.5467 100.36 84.74 100.34C84.94 100.313 85.1567 100.26 85.39 100.18L85.51 100.87C85.2767 100.957 85.04 101.017 84.8 101.05C84.56 101.09 84.3 101.11 84.02 101.11C83.6467 101.11 83.3033 101.06 82.99 100.96C82.6833 100.853 82.4167 100.7 82.19 100.5C81.97 100.3 81.7967 100.05 81.67 99.75C81.55 99.4433 81.49 99.09 81.49 98.69ZM88.59 96.25C89.2167 96.25 89.7 96.4467 90.04 96.84C90.38 97.2267 90.55 97.8167 90.55 98.61V98.9H87.23C87.2633 99.38 87.42 99.7467 87.7 100C87.9867 100.247 88.3867 100.37 88.9 100.37C89.1933 100.37 89.4433 100.347 89.65 100.3C89.8567 100.253 90.0133 100.203 90.12 100.15L90.23 100.85C90.13 100.903 89.95 100.96 89.69 101.02C89.43 101.08 89.1367 101.11 88.81 101.11C88.41 101.11 88.0567 101.05 87.75 100.93C87.45 100.803 87.2 100.633 87 100.42C86.8 100.207 86.65 99.9533 86.55 99.66C86.45 99.36 86.4 99.0367 86.4 98.69C86.4 98.2767 86.4633 97.9167 86.59 97.61C86.7167 97.3033 86.8833 97.05 87.09 96.85C87.2967 96.65 87.53 96.5 87.79 96.4C88.05 96.3 88.3167 96.25 88.59 96.25ZM89.71 98.23C89.71 97.8367 89.6067 97.5267 89.4 97.3C89.1933 97.0667 88.92 96.95 88.58 96.95C88.3867 96.95 88.21 96.9867 88.05 97.06C87.8967 97.1333 87.7633 97.23 87.65 97.35C87.5367 97.47 87.4467 97.6067 87.38 97.76C87.3133 97.9133 87.27 98.07 87.25 98.23H89.71Z" fill="#00E430"/>
<path d="M30.532 36.572V37.412H28.492V44H27.508V37.412H25.468V36.572H30.532ZM33.508 37.568C33.3 37.568 33.12 37.496 32.968 37.352C32.816 37.208 32.74 37.012 32.74 36.764C32.74 36.516 32.816 36.32 32.968 36.176C33.12 36.032 33.3 35.96 33.508 35.96C33.724 35.96 33.904 36.032 34.048 36.176C34.2 36.32 34.276 36.516 34.276 36.764C34.276 37.012 34.2 37.208 34.048 37.352C33.904 37.496 33.724 37.568 33.508 37.568ZM33.256 39.26H31.648V38.432H34.24V41.852C34.24 42.404 34.316 42.776 34.468 42.968C34.62 43.152 34.848 43.244 35.152 43.244C35.384 43.244 35.596 43.216 35.788 43.16C35.988 43.104 36.144 43.044 36.256 42.98L36.4 43.82C36.352 43.844 36.284 43.876 36.196 43.916C36.108 43.948 36.004 43.98 35.884 44.012C35.772 44.044 35.644 44.072 35.5 44.096C35.364 44.12 35.22 44.132 35.068 44.132C34.716 44.132 34.424 44.084 34.192 43.988C33.96 43.892 33.772 43.748 33.628 43.556C33.492 43.364 33.396 43.128 33.34 42.848C33.284 42.56 33.256 42.228 33.256 41.852V39.26ZM37.492 38.588C37.972 38.404 38.424 38.312 38.848 38.312C39.08 38.312 39.296 38.348 39.496 38.42C39.704 38.484 39.88 38.588 40.024 38.732C40.368 38.452 40.736 38.312 41.128 38.312C41.32 38.312 41.5 38.348 41.668 38.42C41.844 38.492 41.996 38.6 42.124 38.744C42.26 38.888 42.368 39.068 42.448 39.284C42.528 39.5 42.568 39.752 42.568 40.04V44H41.668V40.016C41.668 39.728 41.604 39.508 41.476 39.356C41.348 39.204 41.188 39.128 40.996 39.128C40.9 39.128 40.8 39.152 40.696 39.2C40.592 39.248 40.496 39.324 40.408 39.428C40.456 39.612 40.48 39.816 40.48 40.04V41.852H39.58V40.028C39.58 39.748 39.536 39.528 39.448 39.368C39.36 39.208 39.188 39.128 38.932 39.128C38.772 39.128 38.592 39.164 38.392 39.236V44H37.492V38.588ZM46.108 38.3C46.86 38.3 47.44 38.536 47.848 39.008C48.256 39.472 48.46 40.18 48.46 41.132V41.48H44.476C44.516 42.056 44.704 42.496 45.04 42.8C45.384 43.096 45.864 43.244 46.48 43.244C46.832 43.244 47.132 43.216 47.38 43.16C47.628 43.104 47.816 43.044 47.944 42.98L48.076 43.82C47.956 43.884 47.74 43.952 47.428 44.024C47.116 44.096 46.764 44.132 46.372 44.132C45.892 44.132 45.468 44.06 45.1 43.916C44.74 43.764 44.44 43.56 44.2 43.304C43.96 43.048 43.78 42.744 43.66 42.392C43.54 42.032 43.48 41.644 43.48 41.228C43.48 40.732 43.556 40.3 43.708 39.932C43.86 39.564 44.06 39.26 44.308 39.02C44.556 38.78 44.836 38.6 45.148 38.48C45.46 38.36 45.78 38.3 46.108 38.3ZM47.452 40.676C47.452 40.204 47.328 39.832 47.08 39.56C46.832 39.28 46.504 39.14 46.096 39.14C45.864 39.14 45.652 39.184 45.46 39.272C45.276 39.36 45.116 39.476 44.98 39.62C44.844 39.764 44.736 39.928 44.656 40.112C44.576 40.296 44.524 40.484 44.5 40.676H47.452Z" fill="#00E430"/>
<path d="M57.52 31.28C57.52 31.968 57.432 32.552 57.256 33.032C57.088 33.512 56.852 33.904 56.548 34.208C56.252 34.504 55.896 34.72 55.48 34.856C55.072 34.992 54.628 35.06 54.148 35.06C53.652 35.06 53.152 35 52.648 34.88V27.68C53.152 27.56 53.652 27.5 54.148 27.5C54.628 27.5 55.072 27.568 55.48 27.704C55.896 27.84 56.252 28.06 56.548 28.364C56.852 28.668 57.088 29.06 57.256 29.54C57.432 30.02 57.52 30.6 57.52 31.28ZM53.632 34.172C53.832 34.196 54.036 34.208 54.244 34.208C54.604 34.208 54.924 34.156 55.204 34.052C55.484 33.94 55.72 33.768 55.912 33.536C56.104 33.296 56.252 32.992 56.356 32.624C56.46 32.248 56.512 31.8 56.512 31.28C56.512 30.272 56.316 29.532 55.924 29.06C55.54 28.588 54.968 28.352 54.208 28.352C54.104 28.352 54 28.356 53.896 28.364C53.8 28.364 53.712 28.372 53.632 28.388V34.172ZM60.508 28.568C60.3 28.568 60.12 28.496 59.968 28.352C59.816 28.208 59.74 28.012 59.74 27.764C59.74 27.516 59.816 27.32 59.968 27.176C60.12 27.032 60.3 26.96 60.508 26.96C60.724 26.96 60.904 27.032 61.048 27.176C61.2 27.32 61.276 27.516 61.276 27.764C61.276 28.012 61.2 28.208 61.048 28.352C60.904 28.496 60.724 28.568 60.508 28.568ZM60.256 30.26H58.648V29.432H61.24V32.852C61.24 33.404 61.316 33.776 61.468 33.968C61.62 34.152 61.848 34.244 62.152 34.244C62.384 34.244 62.596 34.216 62.788 34.16C62.988 34.104 63.144 34.044 63.256 33.98L63.4 34.82C63.352 34.844 63.284 34.876 63.196 34.916C63.108 34.948 63.004 34.98 62.884 35.012C62.772 35.044 62.644 35.072 62.5 35.096C62.364 35.12 62.22 35.132 62.068 35.132C61.716 35.132 61.424 35.084 61.192 34.988C60.96 34.892 60.772 34.748 60.628 34.556C60.492 34.364 60.396 34.128 60.34 33.848C60.284 33.56 60.256 33.228 60.256 32.852V30.26ZM68.212 33.608C68.212 33.408 68.128 33.244 67.96 33.116C67.8 32.988 67.596 32.876 67.348 32.78C67.108 32.684 66.844 32.592 66.556 32.504C66.268 32.408 66 32.292 65.752 32.156C65.512 32.02 65.308 31.852 65.14 31.652C64.98 31.452 64.9 31.192 64.9 30.872C64.9 30.424 65.08 30.052 65.44 29.756C65.808 29.452 66.38 29.3 67.156 29.3C67.46 29.3 67.772 29.324 68.092 29.372C68.42 29.412 68.7 29.468 68.932 29.54L68.752 30.428C68.688 30.396 68.6 30.364 68.488 30.332C68.376 30.292 68.248 30.26 68.104 30.236C67.96 30.204 67.804 30.18 67.636 30.164C67.476 30.148 67.32 30.14 67.168 30.14C66.304 30.14 65.872 30.376 65.872 30.848C65.872 31.016 65.952 31.16 66.112 31.28C66.28 31.392 66.488 31.496 66.736 31.592C66.984 31.688 67.252 31.788 67.54 31.892C67.828 31.988 68.096 32.108 68.344 32.252C68.592 32.396 68.796 32.572 68.956 32.78C69.124 32.98 69.208 33.236 69.208 33.548C69.208 34.052 69.012 34.444 68.62 34.724C68.228 34.996 67.608 35.132 66.76 35.132C66.376 35.132 66.024 35.1 65.704 35.036C65.384 34.972 65.08 34.876 64.792 34.748L64.984 33.848C65.264 33.976 65.556 34.084 65.86 34.172C66.172 34.252 66.504 34.292 66.856 34.292C67.76 34.292 68.212 34.064 68.212 33.608ZM72.916 29.432H75.268V30.26H72.916V32.852C72.916 33.132 72.936 33.36 72.976 33.536C73.016 33.712 73.08 33.856 73.168 33.968C73.264 34.072 73.384 34.144 73.528 34.184C73.672 34.224 73.848 34.244 74.056 34.244C74.344 34.244 74.576 34.22 74.752 34.172C74.928 34.124 75.096 34.06 75.256 33.98L75.4 34.82C75.288 34.868 75.108 34.932 74.86 35.012C74.62 35.092 74.32 35.132 73.96 35.132C73.544 35.132 73.204 35.084 72.94 34.988C72.676 34.892 72.468 34.748 72.316 34.556C72.172 34.364 72.072 34.128 72.016 33.848C71.96 33.56 71.932 33.228 71.932 32.852V30.26H70.756V29.432H71.932V27.872L72.916 27.704V29.432ZM79.06 34.292C79.308 34.292 79.528 34.284 79.72 34.268C79.92 34.252 80.084 34.232 80.212 34.208V32.552C80.084 32.512 79.928 32.48 79.744 32.456C79.568 32.432 79.38 32.42 79.18 32.42C78.996 32.42 78.816 32.436 78.64 32.468C78.464 32.492 78.308 32.54 78.172 32.612C78.036 32.684 77.924 32.78 77.836 32.9C77.748 33.012 77.704 33.156 77.704 33.332C77.704 33.692 77.824 33.944 78.064 34.088C78.312 34.224 78.644 34.292 79.06 34.292ZM78.964 29.3C79.38 29.3 79.728 29.352 80.008 29.456C80.296 29.56 80.528 29.704 80.704 29.888C80.88 30.072 81.004 30.296 81.076 30.56C81.148 30.824 81.184 31.112 81.184 31.424V34.904C80.952 34.944 80.644 34.992 80.26 35.048C79.884 35.104 79.496 35.132 79.096 35.132C78.792 35.132 78.496 35.104 78.208 35.048C77.92 35 77.664 34.912 77.44 34.784C77.216 34.648 77.036 34.464 76.9 34.232C76.764 34 76.696 33.704 76.696 33.344C76.696 33.024 76.764 32.756 76.9 32.54C77.044 32.316 77.224 32.136 77.44 32C77.664 31.864 77.916 31.768 78.196 31.712C78.484 31.648 78.772 31.616 79.06 31.616C79.452 31.616 79.836 31.66 80.212 31.748V31.472C80.212 31.304 80.192 31.144 80.152 30.992C80.12 30.832 80.052 30.688 79.948 30.56C79.852 30.432 79.716 30.332 79.54 30.26C79.372 30.18 79.152 30.14 78.88 30.14C78.536 30.14 78.236 30.164 77.98 30.212C77.724 30.26 77.528 30.308 77.392 30.356L77.272 29.54C77.408 29.476 77.632 29.42 77.944 29.372C78.264 29.324 78.604 29.3 78.964 29.3ZM82.852 29.588C83.212 29.5 83.568 29.432 83.92 29.384C84.28 29.336 84.616 29.312 84.928 29.312C85.672 29.312 86.232 29.504 86.608 29.888C86.992 30.272 87.184 30.888 87.184 31.736V35H86.2V31.916C86.2 31.556 86.168 31.264 86.104 31.04C86.04 30.816 85.948 30.644 85.828 30.524C85.716 30.396 85.576 30.308 85.408 30.26C85.248 30.212 85.072 30.188 84.88 30.188C84.72 30.188 84.548 30.2 84.364 30.224C84.188 30.24 84.016 30.264 83.848 30.296V35H82.852V29.588ZM88.588 32.228C88.588 31.724 88.668 31.288 88.828 30.92C88.988 30.552 89.208 30.248 89.488 30.008C89.768 29.768 90.092 29.592 90.46 29.48C90.836 29.36 91.236 29.3 91.66 29.3C91.932 29.3 92.2 29.32 92.464 29.36C92.736 29.392 93.024 29.456 93.328 29.552L93.1 30.404C92.836 30.308 92.592 30.248 92.368 30.224C92.152 30.192 91.932 30.176 91.708 30.176C91.42 30.176 91.148 30.216 90.892 30.296C90.636 30.368 90.412 30.488 90.22 30.656C90.036 30.816 89.888 31.028 89.776 31.292C89.664 31.548 89.608 31.86 89.608 32.228C89.608 32.58 89.66 32.884 89.764 33.14C89.868 33.388 90.012 33.596 90.196 33.764C90.388 33.924 90.616 34.044 90.88 34.124C91.144 34.204 91.436 34.244 91.756 34.244C92.012 34.244 92.256 34.232 92.488 34.208C92.728 34.176 92.988 34.112 93.268 34.016L93.412 34.844C93.132 34.948 92.848 35.02 92.56 35.06C92.272 35.108 91.96 35.132 91.624 35.132C91.176 35.132 90.764 35.072 90.388 34.952C90.02 34.824 89.7 34.64 89.428 34.4C89.164 34.16 88.956 33.86 88.804 33.5C88.66 33.132 88.588 32.708 88.588 32.228ZM97.108 29.3C97.86 29.3 98.44 29.536 98.848 30.008C99.256 30.472 99.46 31.18 99.46 32.132V32.48H95.476C95.516 33.056 95.704 33.496 96.04 33.8C96.384 34.096 96.864 34.244 97.48 34.244C97.832 34.244 98.132 34.216 98.38 34.16C98.628 34.104 98.816 34.044 98.944 33.98L99.076 34.82C98.956 34.884 98.74 34.952 98.428 35.024C98.116 35.096 97.764 35.132 97.372 35.132C96.892 35.132 96.468 35.06 96.1 34.916C95.74 34.764 95.44 34.56 95.2 34.304C94.96 34.048 94.78 33.744 94.66 33.392C94.54 33.032 94.48 32.644 94.48 32.228C94.48 31.732 94.556 31.3 94.708 30.932C94.86 30.564 95.06 30.26 95.308 30.02C95.556 29.78 95.836 29.6 96.148 29.48C96.46 29.36 96.78 29.3 97.108 29.3ZM98.452 31.676C98.452 31.204 98.328 30.832 98.08 30.56C97.832 30.28 97.504 30.14 97.096 30.14C96.864 30.14 96.652 30.184 96.46 30.272C96.276 30.36 96.116 30.476 95.98 30.62C95.844 30.764 95.736 30.928 95.656 31.112C95.576 31.296 95.524 31.484 95.5 31.676H98.452Z" fill="#00E430"/>
<path d="M106.82 20.5C107.26 20.5 107.644 20.556 107.972 20.668C108.308 20.78 108.584 20.94 108.8 21.148C109.024 21.348 109.188 21.588 109.292 21.868C109.404 22.148 109.46 22.46 109.46 22.804C109.46 23.58 109.232 24.18 108.776 24.604C108.32 25.02 107.636 25.228 106.724 25.228H105.86V28H104.876V20.68C105.02 20.648 105.176 20.62 105.344 20.596C105.52 20.572 105.692 20.552 105.86 20.536C106.036 20.52 106.204 20.512 106.364 20.512C106.532 20.504 106.684 20.5 106.82 20.5ZM106.892 21.352C106.684 21.352 106.484 21.356 106.292 21.364C106.1 21.364 105.956 21.372 105.86 21.388V24.388H106.676C107.276 24.388 107.72 24.268 108.008 24.028C108.304 23.788 108.452 23.392 108.452 22.84C108.452 21.848 107.932 21.352 106.892 21.352ZM114.056 28.132C113.704 28.132 113.412 28.084 113.18 27.988C112.948 27.892 112.764 27.748 112.628 27.556C112.492 27.364 112.396 27.128 112.34 26.848C112.284 26.56 112.256 26.228 112.256 25.852V20.584H110.648V19.744H113.24V25.852C113.24 26.132 113.256 26.36 113.288 26.536C113.328 26.712 113.384 26.856 113.456 26.968C113.536 27.072 113.632 27.144 113.744 27.184C113.856 27.224 113.988 27.244 114.14 27.244C114.372 27.244 114.588 27.216 114.788 27.16C114.988 27.104 115.144 27.044 115.256 26.98L115.4 27.82C115.352 27.844 115.284 27.876 115.196 27.916C115.108 27.948 115.004 27.98 114.884 28.012C114.764 28.044 114.632 28.072 114.488 28.096C114.352 28.12 114.208 28.132 114.056 28.132ZM119.06 27.292C119.308 27.292 119.528 27.284 119.72 27.268C119.92 27.252 120.084 27.232 120.212 27.208V25.552C120.084 25.512 119.928 25.48 119.744 25.456C119.568 25.432 119.38 25.42 119.18 25.42C118.996 25.42 118.816 25.436 118.64 25.468C118.464 25.492 118.308 25.54 118.172 25.612C118.036 25.684 117.924 25.78 117.836 25.9C117.748 26.012 117.704 26.156 117.704 26.332C117.704 26.692 117.824 26.944 118.064 27.088C118.312 27.224 118.644 27.292 119.06 27.292ZM118.964 22.3C119.38 22.3 119.728 22.352 120.008 22.456C120.296 22.56 120.528 22.704 120.704 22.888C120.88 23.072 121.004 23.296 121.076 23.56C121.148 23.824 121.184 24.112 121.184 24.424V27.904C120.952 27.944 120.644 27.992 120.26 28.048C119.884 28.104 119.496 28.132 119.096 28.132C118.792 28.132 118.496 28.104 118.208 28.048C117.92 28 117.664 27.912 117.44 27.784C117.216 27.648 117.036 27.464 116.9 27.232C116.764 27 116.696 26.704 116.696 26.344C116.696 26.024 116.764 25.756 116.9 25.54C117.044 25.316 117.224 25.136 117.44 25C117.664 24.864 117.916 24.768 118.196 24.712C118.484 24.648 118.772 24.616 119.06 24.616C119.452 24.616 119.836 24.66 120.212 24.748V24.472C120.212 24.304 120.192 24.144 120.152 23.992C120.12 23.832 120.052 23.688 119.948 23.56C119.852 23.432 119.716 23.332 119.54 23.26C119.372 23.18 119.152 23.14 118.88 23.14C118.536 23.14 118.236 23.164 117.98 23.212C117.724 23.26 117.528 23.308 117.392 23.356L117.272 22.54C117.408 22.476 117.632 22.42 117.944 22.372C118.264 22.324 118.604 22.3 118.964 22.3ZM122.612 29.044C122.684 29.084 122.784 29.116 122.912 29.14C123.048 29.164 123.172 29.176 123.284 29.176C123.676 29.176 123.98 29.088 124.196 28.912C124.42 28.744 124.624 28.464 124.808 28.072C124.36 27.224 123.94 26.316 123.548 25.348C123.156 24.372 122.832 23.4 122.576 22.432H123.656C123.736 22.752 123.828 23.1 123.932 23.476C124.044 23.844 124.168 24.224 124.304 24.616C124.44 25.008 124.584 25.404 124.736 25.804C124.896 26.196 125.064 26.572 125.24 26.932C125.368 26.564 125.488 26.2 125.6 25.84C125.712 25.48 125.816 25.12 125.912 24.76C126.008 24.392 126.104 24.02 126.2 23.644C126.296 23.26 126.396 22.856 126.5 22.432H127.532C127.276 23.472 126.988 24.48 126.668 25.456C126.356 26.432 126.02 27.336 125.66 28.168C125.524 28.488 125.376 28.764 125.216 28.996C125.064 29.228 124.896 29.42 124.712 29.572C124.528 29.724 124.32 29.836 124.088 29.908C123.856 29.98 123.592 30.016 123.296 30.016C123.144 30.016 122.976 29.996 122.792 29.956C122.616 29.916 122.496 29.88 122.432 29.848L122.612 29.044ZM131.108 22.3C131.86 22.3 132.44 22.536 132.848 23.008C133.256 23.472 133.46 24.18 133.46 25.132V25.48H129.476C129.516 26.056 129.704 26.496 130.04 26.8C130.384 27.096 130.864 27.244 131.48 27.244C131.832 27.244 132.132 27.216 132.38 27.16C132.628 27.104 132.816 27.044 132.944 26.98L133.076 27.82C132.956 27.884 132.74 27.952 132.428 28.024C132.116 28.096 131.764 28.132 131.372 28.132C130.892 28.132 130.468 28.06 130.1 27.916C129.74 27.764 129.44 27.56 129.2 27.304C128.96 27.048 128.78 26.744 128.66 26.392C128.54 26.032 128.48 25.644 128.48 25.228C128.48 24.732 128.556 24.3 128.708 23.932C128.86 23.564 129.06 23.26 129.308 23.02C129.556 22.78 129.836 22.6 130.148 22.48C130.46 22.36 130.78 22.3 131.108 22.3ZM132.452 24.676C132.452 24.204 132.328 23.832 132.08 23.56C131.832 23.28 131.504 23.14 131.096 23.14C130.864 23.14 130.652 23.184 130.46 23.272C130.276 23.36 130.116 23.476 129.98 23.62C129.844 23.764 129.736 23.928 129.656 24.112C129.576 24.296 129.524 24.484 129.5 24.676H132.452ZM135.284 28V22.732C136.1 22.452 136.924 22.312 137.756 22.312C138.012 22.312 138.256 22.324 138.488 22.348C138.72 22.364 138.976 22.404 139.256 22.468L139.076 23.344C138.82 23.272 138.592 23.228 138.392 23.212C138.2 23.188 137.988 23.176 137.756 23.176C137.268 23.176 136.772 23.244 136.268 23.38V28H135.284ZM144.608 28C144.52 27.784 144.416 27.54 144.296 27.268C144.176 26.996 144.048 26.716 143.912 26.428C143.776 26.14 143.628 25.852 143.468 25.564C143.316 25.276 143.156 25.008 142.988 24.76C142.708 25.208 142.428 25.724 142.148 26.308C141.868 26.884 141.608 27.448 141.368 28H140.3C140.564 27.408 140.872 26.768 141.224 26.08C141.576 25.384 141.952 24.716 142.352 24.076L140.42 20.572H141.512L142.964 23.416L144.524 20.572H145.592L143.624 24.04C144.008 24.664 144.38 25.312 144.74 25.984C145.1 26.656 145.42 27.328 145.7 28H144.608Z" fill="#00E430"/>
<path d="M142.82 6.5C143.26 6.5 143.644 6.556 143.972 6.668C144.308 6.78 144.584 6.94 144.8 7.148C145.024 7.348 145.188 7.588 145.292 7.868C145.404 8.148 145.46 8.46 145.46 8.804C145.46 9.58 145.232 10.18 144.776 10.604C144.32 11.02 143.636 11.228 142.724 11.228H141.86V14H140.876V6.68C141.02 6.648 141.176 6.62 141.344 6.596C141.52 6.572 141.692 6.552 141.86 6.536C142.036 6.52 142.204 6.512 142.364 6.512C142.532 6.504 142.684 6.5 142.82 6.5ZM142.892 7.352C142.684 7.352 142.484 7.356 142.292 7.364C142.1 7.364 141.956 7.372 141.86 7.388V10.388H142.676C143.276 10.388 143.72 10.268 144.008 10.028C144.304 9.788 144.452 9.392 144.452 8.84C144.452 7.848 143.932 7.352 142.892 7.352ZM150.056 14.132C149.704 14.132 149.412 14.084 149.18 13.988C148.948 13.892 148.764 13.748 148.628 13.556C148.492 13.364 148.396 13.128 148.34 12.848C148.284 12.56 148.256 12.228 148.256 11.852V6.584H146.648V5.744H149.24V11.852C149.24 12.132 149.256 12.36 149.288 12.536C149.328 12.712 149.384 12.856 149.456 12.968C149.536 13.072 149.632 13.144 149.744 13.184C149.856 13.224 149.988 13.244 150.14 13.244C150.372 13.244 150.588 13.216 150.788 13.16C150.988 13.104 151.144 13.044 151.256 12.98L151.4 13.82C151.352 13.844 151.284 13.876 151.196 13.916C151.108 13.948 151.004 13.98 150.884 14.012C150.764 14.044 150.632 14.072 150.488 14.096C150.352 14.12 150.208 14.132 150.056 14.132ZM155.06 13.292C155.308 13.292 155.528 13.284 155.72 13.268C155.92 13.252 156.084 13.232 156.212 13.208V11.552C156.084 11.512 155.928 11.48 155.744 11.456C155.568 11.432 155.38 11.42 155.18 11.42C154.996 11.42 154.816 11.436 154.64 11.468C154.464 11.492 154.308 11.54 154.172 11.612C154.036 11.684 153.924 11.78 153.836 11.9C153.748 12.012 153.704 12.156 153.704 12.332C153.704 12.692 153.824 12.944 154.064 13.088C154.312 13.224 154.644 13.292 155.06 13.292ZM154.964 8.3C155.38 8.3 155.728 8.352 156.008 8.456C156.296 8.56 156.528 8.704 156.704 8.888C156.88 9.072 157.004 9.296 157.076 9.56C157.148 9.824 157.184 10.112 157.184 10.424V13.904C156.952 13.944 156.644 13.992 156.26 14.048C155.884 14.104 155.496 14.132 155.096 14.132C154.792 14.132 154.496 14.104 154.208 14.048C153.92 14 153.664 13.912 153.44 13.784C153.216 13.648 153.036 13.464 152.9 13.232C152.764 13 152.696 12.704 152.696 12.344C152.696 12.024 152.764 11.756 152.9 11.54C153.044 11.316 153.224 11.136 153.44 11C153.664 10.864 153.916 10.768 154.196 10.712C154.484 10.648 154.772 10.616 155.06 10.616C155.452 10.616 155.836 10.66 156.212 10.748V10.472C156.212 10.304 156.192 10.144 156.152 9.992C156.12 9.832 156.052 9.688 155.948 9.56C155.852 9.432 155.716 9.332 155.54 9.26C155.372 9.18 155.152 9.14 154.88 9.14C154.536 9.14 154.236 9.164 153.98 9.212C153.724 9.26 153.528 9.308 153.392 9.356L153.272 8.54C153.408 8.476 153.632 8.42 153.944 8.372C154.264 8.324 154.604 8.3 154.964 8.3ZM158.612 15.044C158.684 15.084 158.784 15.116 158.912 15.14C159.048 15.164 159.172 15.176 159.284 15.176C159.676 15.176 159.98 15.088 160.196 14.912C160.42 14.744 160.624 14.464 160.808 14.072C160.36 13.224 159.94 12.316 159.548 11.348C159.156 10.372 158.832 9.4 158.576 8.432H159.656C159.736 8.752 159.828 9.1 159.932 9.476C160.044 9.844 160.168 10.224 160.304 10.616C160.44 11.008 160.584 11.404 160.736 11.804C160.896 12.196 161.064 12.572 161.24 12.932C161.368 12.564 161.488 12.2 161.6 11.84C161.712 11.48 161.816 11.12 161.912 10.76C162.008 10.392 162.104 10.02 162.2 9.644C162.296 9.26 162.396 8.856 162.5 8.432H163.532C163.276 9.472 162.988 10.48 162.668 11.456C162.356 12.432 162.02 13.336 161.66 14.168C161.524 14.488 161.376 14.764 161.216 14.996C161.064 15.228 160.896 15.42 160.712 15.572C160.528 15.724 160.32 15.836 160.088 15.908C159.856 15.98 159.592 16.016 159.296 16.016C159.144 16.016 158.976 15.996 158.792 15.956C158.616 15.916 158.496 15.88 158.432 15.848L158.612 15.044ZM167.108 8.3C167.86 8.3 168.44 8.536 168.848 9.008C169.256 9.472 169.46 10.18 169.46 11.132V11.48H165.476C165.516 12.056 165.704 12.496 166.04 12.8C166.384 13.096 166.864 13.244 167.48 13.244C167.832 13.244 168.132 13.216 168.38 13.16C168.628 13.104 168.816 13.044 168.944 12.98L169.076 13.82C168.956 13.884 168.74 13.952 168.428 14.024C168.116 14.096 167.764 14.132 167.372 14.132C166.892 14.132 166.468 14.06 166.1 13.916C165.74 13.764 165.44 13.56 165.2 13.304C164.96 13.048 164.78 12.744 164.66 12.392C164.54 12.032 164.48 11.644 164.48 11.228C164.48 10.732 164.556 10.3 164.708 9.932C164.86 9.564 165.06 9.26 165.308 9.02C165.556 8.78 165.836 8.6 166.148 8.48C166.46 8.36 166.78 8.3 167.108 8.3ZM168.452 10.676C168.452 10.204 168.328 9.832 168.08 9.56C167.832 9.28 167.504 9.14 167.096 9.14C166.864 9.14 166.652 9.184 166.46 9.272C166.276 9.36 166.116 9.476 165.98 9.62C165.844 9.764 165.736 9.928 165.656 10.112C165.576 10.296 165.524 10.484 165.5 10.676H168.452ZM171.284 14V8.732C172.1 8.452 172.924 8.312 173.756 8.312C174.012 8.312 174.256 8.324 174.488 8.348C174.72 8.364 174.976 8.404 175.256 8.468L175.076 9.344C174.82 9.272 174.592 9.228 174.392 9.212C174.2 9.188 173.988 9.176 173.756 9.176C173.268 9.176 172.772 9.244 172.268 9.38V14H171.284ZM178.52 14V11.24C178.032 10.44 177.588 9.66 177.188 8.9C176.796 8.14 176.452 7.364 176.156 6.572H177.26C177.492 7.244 177.756 7.888 178.052 8.504C178.356 9.112 178.68 9.74 179.024 10.388C179.392 9.708 179.716 9.064 179.996 8.456C180.284 7.84 180.544 7.212 180.776 6.572H181.856C181.552 7.356 181.204 8.12 180.812 8.864C180.42 9.608 179.984 10.392 179.504 11.216V14H178.52Z" fill="#00E430"/>
<path d="M57.82 353.5C58.26 353.5 58.644 353.556 58.972 353.668C59.308 353.78 59.584 353.94 59.8 354.148C60.024 354.348 60.188 354.588 60.292 354.868C60.404 355.148 60.46 355.46 60.46 355.804C60.46 356.58 60.232 357.18 59.776 357.604C59.32 358.02 58.636 358.228 57.724 358.228H56.86V361H55.876V353.68C56.02 353.648 56.176 353.62 56.344 353.596C56.52 353.572 56.692 353.552 56.86 353.536C57.036 353.52 57.204 353.512 57.364 353.512C57.532 353.504 57.684 353.5 57.82 353.5ZM57.892 354.352C57.684 354.352 57.484 354.356 57.292 354.364C57.1 354.364 56.956 354.372 56.86 354.388V357.388H57.676C58.276 357.388 58.72 357.268 59.008 357.028C59.304 356.788 59.452 356.392 59.452 355.84C59.452 354.848 58.932 354.352 57.892 354.352ZM64.06 360.292C64.308 360.292 64.528 360.284 64.72 360.268C64.92 360.252 65.084 360.232 65.212 360.208V358.552C65.084 358.512 64.928 358.48 64.744 358.456C64.568 358.432 64.38 358.42 64.18 358.42C63.996 358.42 63.816 358.436 63.64 358.468C63.464 358.492 63.308 358.54 63.172 358.612C63.036 358.684 62.924 358.78 62.836 358.9C62.748 359.012 62.704 359.156 62.704 359.332C62.704 359.692 62.824 359.944 63.064 360.088C63.312 360.224 63.644 360.292 64.06 360.292ZM63.964 355.3C64.38 355.3 64.728 355.352 65.008 355.456C65.296 355.56 65.528 355.704 65.704 355.888C65.88 356.072 66.004 356.296 66.076 356.56C66.148 356.824 66.184 357.112 66.184 357.424V360.904C65.952 360.944 65.644 360.992 65.26 361.048C64.884 361.104 64.496 361.132 64.096 361.132C63.792 361.132 63.496 361.104 63.208 361.048C62.92 361 62.664 360.912 62.44 360.784C62.216 360.648 62.036 360.464 61.9 360.232C61.764 360 61.696 359.704 61.696 359.344C61.696 359.024 61.764 358.756 61.9 358.54C62.044 358.316 62.224 358.136 62.44 358C62.664 357.864 62.916 357.768 63.196 357.712C63.484 357.648 63.772 357.616 64.06 357.616C64.452 357.616 64.836 357.66 65.212 357.748V357.472C65.212 357.304 65.192 357.144 65.152 356.992C65.12 356.832 65.052 356.688 64.948 356.56C64.852 356.432 64.716 356.332 64.54 356.26C64.372 356.18 64.152 356.14 63.88 356.14C63.536 356.14 63.236 356.164 62.98 356.212C62.724 356.26 62.528 356.308 62.392 356.356L62.272 355.54C62.408 355.476 62.632 355.42 62.944 355.372C63.264 355.324 63.604 355.3 63.964 355.3ZM68.284 361V355.732C69.1 355.452 69.924 355.312 70.756 355.312C71.012 355.312 71.256 355.324 71.488 355.348C71.72 355.364 71.976 355.404 72.256 355.468L72.076 356.344C71.82 356.272 71.592 356.228 71.392 356.212C71.2 356.188 70.988 356.176 70.756 356.176C70.268 356.176 69.772 356.244 69.268 356.38V361H68.284ZM75.916 355.432H78.268V356.26H75.916V358.852C75.916 359.132 75.936 359.36 75.976 359.536C76.016 359.712 76.08 359.856 76.168 359.968C76.264 360.072 76.384 360.144 76.528 360.184C76.672 360.224 76.848 360.244 77.056 360.244C77.344 360.244 77.576 360.22 77.752 360.172C77.928 360.124 78.096 360.06 78.256 359.98L78.4 360.82C78.288 360.868 78.108 360.932 77.86 361.012C77.62 361.092 77.32 361.132 76.96 361.132C76.544 361.132 76.204 361.084 75.94 360.988C75.676 360.892 75.468 360.748 75.316 360.556C75.172 360.364 75.072 360.128 75.016 359.848C74.96 359.56 74.932 359.228 74.932 358.852V356.26H73.756V355.432H74.932V353.872L75.916 353.704V355.432ZM81.508 354.568C81.3 354.568 81.12 354.496 80.968 354.352C80.816 354.208 80.74 354.012 80.74 353.764C80.74 353.516 80.816 353.32 80.968 353.176C81.12 353.032 81.3 352.96 81.508 352.96C81.724 352.96 81.904 353.032 82.048 353.176C82.2 353.32 82.276 353.516 82.276 353.764C82.276 354.012 82.2 354.208 82.048 354.352C81.904 354.496 81.724 354.568 81.508 354.568ZM81.256 356.26H79.648V355.432H82.24V358.852C82.24 359.404 82.316 359.776 82.468 359.968C82.62 360.152 82.848 360.244 83.152 360.244C83.384 360.244 83.596 360.216 83.788 360.16C83.988 360.104 84.144 360.044 84.256 359.98L84.4 360.82C84.352 360.844 84.284 360.876 84.196 360.916C84.108 360.948 84.004 360.98 83.884 361.012C83.772 361.044 83.644 361.072 83.5 361.096C83.364 361.12 83.22 361.132 83.068 361.132C82.716 361.132 82.424 361.084 82.192 360.988C81.96 360.892 81.772 360.748 81.628 360.556C81.492 360.364 81.396 360.128 81.34 359.848C81.284 359.56 81.256 359.228 81.256 358.852V356.26ZM85.588 358.228C85.588 357.724 85.668 357.288 85.828 356.92C85.988 356.552 86.208 356.248 86.488 356.008C86.768 355.768 87.092 355.592 87.46 355.48C87.836 355.36 88.236 355.3 88.66 355.3C88.932 355.3 89.2 355.32 89.464 355.36C89.736 355.392 90.024 355.456 90.328 355.552L90.1 356.404C89.836 356.308 89.592 356.248 89.368 356.224C89.152 356.192 88.932 356.176 88.708 356.176C88.42 356.176 88.148 356.216 87.892 356.296C87.636 356.368 87.412 356.488 87.22 356.656C87.036 356.816 86.888 357.028 86.776 357.292C86.664 357.548 86.608 357.86 86.608 358.228C86.608 358.58 86.66 358.884 86.764 359.14C86.868 359.388 87.012 359.596 87.196 359.764C87.388 359.924 87.616 360.044 87.88 360.124C88.144 360.204 88.436 360.244 88.756 360.244C89.012 360.244 89.256 360.232 89.488 360.208C89.728 360.176 89.988 360.112 90.268 360.016L90.412 360.844C90.132 360.948 89.848 361.02 89.56 361.06C89.272 361.108 88.96 361.132 88.624 361.132C88.176 361.132 87.764 361.072 87.388 360.952C87.02 360.824 86.7 360.64 86.428 360.4C86.164 360.16 85.956 359.86 85.804 359.5C85.66 359.132 85.588 358.708 85.588 358.228ZM95.056 361.132C94.704 361.132 94.412 361.084 94.18 360.988C93.948 360.892 93.764 360.748 93.628 360.556C93.492 360.364 93.396 360.128 93.34 359.848C93.284 359.56 93.256 359.228 93.256 358.852V353.584H91.648V352.744H94.24V358.852C94.24 359.132 94.256 359.36 94.288 359.536C94.328 359.712 94.384 359.856 94.456 359.968C94.536 360.072 94.632 360.144 94.744 360.184C94.856 360.224 94.988 360.244 95.14 360.244C95.372 360.244 95.588 360.216 95.788 360.16C95.988 360.104 96.144 360.044 96.256 359.98L96.4 360.82C96.352 360.844 96.284 360.876 96.196 360.916C96.108 360.948 96.004 360.98 95.884 361.012C95.764 361.044 95.632 361.072 95.488 361.096C95.352 361.12 95.208 361.132 95.056 361.132ZM100.108 355.3C100.86 355.3 101.44 355.536 101.848 356.008C102.256 356.472 102.46 357.18 102.46 358.132V358.48H98.476C98.516 359.056 98.704 359.496 99.04 359.8C99.384 360.096 99.864 360.244 100.48 360.244C100.832 360.244 101.132 360.216 101.38 360.16C101.628 360.104 101.816 360.044 101.944 359.98L102.076 360.82C101.956 360.884 101.74 360.952 101.428 361.024C101.116 361.096 100.764 361.132 100.372 361.132C99.892 361.132 99.468 361.06 99.1 360.916C98.74 360.764 98.44 360.56 98.2 360.304C97.96 360.048 97.78 359.744 97.66 359.392C97.54 359.032 97.48 358.644 97.48 358.228C97.48 357.732 97.556 357.3 97.708 356.932C97.86 356.564 98.06 356.26 98.308 356.02C98.556 355.78 98.836 355.6 99.148 355.48C99.46 355.36 99.78 355.3 100.108 355.3ZM101.452 357.676C101.452 357.204 101.328 356.832 101.08 356.56C100.832 356.28 100.504 356.14 100.096 356.14C99.864 356.14 99.652 356.184 99.46 356.272C99.276 356.36 99.116 356.476 98.98 356.62C98.844 356.764 98.736 356.928 98.656 357.112C98.576 357.296 98.524 357.484 98.5 357.676H101.452ZM107.608 361C107.52 360.784 107.416 360.54 107.296 360.268C107.176 359.996 107.048 359.716 106.912 359.428C106.776 359.14 106.628 358.852 106.468 358.564C106.316 358.276 106.156 358.008 105.988 357.76C105.708 358.208 105.428 358.724 105.148 359.308C104.868 359.884 104.608 360.448 104.368 361H103.3C103.564 360.408 103.872 359.768 104.224 359.08C104.576 358.384 104.952 357.716 105.352 357.076L103.42 353.572H104.512L105.964 356.416L107.524 353.572H108.592L106.624 357.04C107.008 357.664 107.38 358.312 107.74 358.984C108.1 359.656 108.42 360.328 108.7 361H107.608Z" fill="#00E430"/>
<path d="M92.82 377.5C93.26 377.5 93.644 377.556 93.972 377.668C94.308 377.78 94.584 377.94 94.8 378.148C95.024 378.348 95.188 378.588 95.292 378.868C95.404 379.148 95.46 379.46 95.46 379.804C95.46 380.58 95.232 381.18 94.776 381.604C94.32 382.02 93.636 382.228 92.724 382.228H91.86V385H90.876V377.68C91.02 377.648 91.176 377.62 91.344 377.596C91.52 377.572 91.692 377.552 91.86 377.536C92.036 377.52 92.204 377.512 92.364 377.512C92.532 377.504 92.684 377.5 92.82 377.5ZM92.892 378.352C92.684 378.352 92.484 378.356 92.292 378.364C92.1 378.364 91.956 378.372 91.86 378.388V381.388H92.676C93.276 381.388 93.72 381.268 94.008 381.028C94.304 380.788 94.452 380.392 94.452 379.84C94.452 378.848 93.932 378.352 92.892 378.352ZM99.06 384.292C99.308 384.292 99.528 384.284 99.72 384.268C99.92 384.252 100.084 384.232 100.212 384.208V382.552C100.084 382.512 99.928 382.48 99.744 382.456C99.568 382.432 99.38 382.42 99.18 382.42C98.996 382.42 98.816 382.436 98.64 382.468C98.464 382.492 98.308 382.54 98.172 382.612C98.036 382.684 97.924 382.78 97.836 382.9C97.748 383.012 97.704 383.156 97.704 383.332C97.704 383.692 97.824 383.944 98.064 384.088C98.312 384.224 98.644 384.292 99.06 384.292ZM98.964 379.3C99.38 379.3 99.728 379.352 100.008 379.456C100.296 379.56 100.528 379.704 100.704 379.888C100.88 380.072 101.004 380.296 101.076 380.56C101.148 380.824 101.184 381.112 101.184 381.424V384.904C100.952 384.944 100.644 384.992 100.26 385.048C99.884 385.104 99.496 385.132 99.096 385.132C98.792 385.132 98.496 385.104 98.208 385.048C97.92 385 97.664 384.912 97.44 384.784C97.216 384.648 97.036 384.464 96.9 384.232C96.764 384 96.696 383.704 96.696 383.344C96.696 383.024 96.764 382.756 96.9 382.54C97.044 382.316 97.224 382.136 97.44 382C97.664 381.864 97.916 381.768 98.196 381.712C98.484 381.648 98.772 381.616 99.06 381.616C99.452 381.616 99.836 381.66 100.212 381.748V381.472C100.212 381.304 100.192 381.144 100.152 380.992C100.12 380.832 100.052 380.688 99.948 380.56C99.852 380.432 99.716 380.332 99.54 380.26C99.372 380.18 99.152 380.14 98.88 380.14C98.536 380.14 98.236 380.164 97.98 380.212C97.724 380.26 97.528 380.308 97.392 380.356L97.272 379.54C97.408 379.476 97.632 379.42 97.944 379.372C98.264 379.324 98.604 379.3 98.964 379.3ZM103.284 385V379.732C104.1 379.452 104.924 379.312 105.756 379.312C106.012 379.312 106.256 379.324 106.488 379.348C106.72 379.364 106.976 379.404 107.256 379.468L107.076 380.344C106.82 380.272 106.592 380.228 106.392 380.212C106.2 380.188 105.988 380.176 105.756 380.176C105.268 380.176 104.772 380.244 104.268 380.38V385H103.284ZM110.916 379.432H113.268V380.26H110.916V382.852C110.916 383.132 110.936 383.36 110.976 383.536C111.016 383.712 111.08 383.856 111.168 383.968C111.264 384.072 111.384 384.144 111.528 384.184C111.672 384.224 111.848 384.244 112.056 384.244C112.344 384.244 112.576 384.22 112.752 384.172C112.928 384.124 113.096 384.06 113.256 383.98L113.4 384.82C113.288 384.868 113.108 384.932 112.86 385.012C112.62 385.092 112.32 385.132 111.96 385.132C111.544 385.132 111.204 385.084 110.94 384.988C110.676 384.892 110.468 384.748 110.316 384.556C110.172 384.364 110.072 384.128 110.016 383.848C109.96 383.56 109.932 383.228 109.932 382.852V380.26H108.756V379.432H109.932V377.872L110.916 377.704V379.432ZM116.508 378.568C116.3 378.568 116.12 378.496 115.968 378.352C115.816 378.208 115.74 378.012 115.74 377.764C115.74 377.516 115.816 377.32 115.968 377.176C116.12 377.032 116.3 376.96 116.508 376.96C116.724 376.96 116.904 377.032 117.048 377.176C117.2 377.32 117.276 377.516 117.276 377.764C117.276 378.012 117.2 378.208 117.048 378.352C116.904 378.496 116.724 378.568 116.508 378.568ZM116.256 380.26H114.648V379.432H117.24V382.852C117.24 383.404 117.316 383.776 117.468 383.968C117.62 384.152 117.848 384.244 118.152 384.244C118.384 384.244 118.596 384.216 118.788 384.16C118.988 384.104 119.144 384.044 119.256 383.98L119.4 384.82C119.352 384.844 119.284 384.876 119.196 384.916C119.108 384.948 119.004 384.98 118.884 385.012C118.772 385.044 118.644 385.072 118.5 385.096C118.364 385.12 118.22 385.132 118.068 385.132C117.716 385.132 117.424 385.084 117.192 384.988C116.96 384.892 116.772 384.748 116.628 384.556C116.492 384.364 116.396 384.128 116.34 383.848C116.284 383.56 116.256 383.228 116.256 382.852V380.26ZM120.588 382.228C120.588 381.724 120.668 381.288 120.828 380.92C120.988 380.552 121.208 380.248 121.488 380.008C121.768 379.768 122.092 379.592 122.46 379.48C122.836 379.36 123.236 379.3 123.66 379.3C123.932 379.3 124.2 379.32 124.464 379.36C124.736 379.392 125.024 379.456 125.328 379.552L125.1 380.404C124.836 380.308 124.592 380.248 124.368 380.224C124.152 380.192 123.932 380.176 123.708 380.176C123.42 380.176 123.148 380.216 122.892 380.296C122.636 380.368 122.412 380.488 122.22 380.656C122.036 380.816 121.888 381.028 121.776 381.292C121.664 381.548 121.608 381.86 121.608 382.228C121.608 382.58 121.66 382.884 121.764 383.14C121.868 383.388 122.012 383.596 122.196 383.764C122.388 383.924 122.616 384.044 122.88 384.124C123.144 384.204 123.436 384.244 123.756 384.244C124.012 384.244 124.256 384.232 124.488 384.208C124.728 384.176 124.988 384.112 125.268 384.016L125.412 384.844C125.132 384.948 124.848 385.02 124.56 385.06C124.272 385.108 123.96 385.132 123.624 385.132C123.176 385.132 122.764 385.072 122.388 384.952C122.02 384.824 121.7 384.64 121.428 384.4C121.164 384.16 120.956 383.86 120.804 383.5C120.66 383.132 120.588 382.708 120.588 382.228ZM130.056 385.132C129.704 385.132 129.412 385.084 129.18 384.988C128.948 384.892 128.764 384.748 128.628 384.556C128.492 384.364 128.396 384.128 128.34 383.848C128.284 383.56 128.256 383.228 128.256 382.852V377.584H126.648V376.744H129.24V382.852C129.24 383.132 129.256 383.36 129.288 383.536C129.328 383.712 129.384 383.856 129.456 383.968C129.536 384.072 129.632 384.144 129.744 384.184C129.856 384.224 129.988 384.244 130.14 384.244C130.372 384.244 130.588 384.216 130.788 384.16C130.988 384.104 131.144 384.044 131.256 383.98L131.4 384.82C131.352 384.844 131.284 384.876 131.196 384.916C131.108 384.948 131.004 384.98 130.884 385.012C130.764 385.044 130.632 385.072 130.488 385.096C130.352 385.12 130.208 385.132 130.056 385.132ZM135.108 379.3C135.86 379.3 136.44 379.536 136.848 380.008C137.256 380.472 137.46 381.18 137.46 382.132V382.48H133.476C133.516 383.056 133.704 383.496 134.04 383.8C134.384 384.096 134.864 384.244 135.48 384.244C135.832 384.244 136.132 384.216 136.38 384.16C136.628 384.104 136.816 384.044 136.944 383.98L137.076 384.82C136.956 384.884 136.74 384.952 136.428 385.024C136.116 385.096 135.764 385.132 135.372 385.132C134.892 385.132 134.468 385.06 134.1 384.916C133.74 384.764 133.44 384.56 133.2 384.304C132.96 384.048 132.78 383.744 132.66 383.392C132.54 383.032 132.48 382.644 132.48 382.228C132.48 381.732 132.556 381.3 132.708 380.932C132.86 380.564 133.06 380.26 133.308 380.02C133.556 379.78 133.836 379.6 134.148 379.48C134.46 379.36 134.78 379.3 135.108 379.3ZM136.452 381.676C136.452 381.204 136.328 380.832 136.08 380.56C135.832 380.28 135.504 380.14 135.096 380.14C134.864 380.14 134.652 380.184 134.46 380.272C134.276 380.36 134.116 380.476 133.98 380.62C133.844 380.764 133.736 380.928 133.656 381.112C133.576 381.296 133.524 381.484 133.5 381.676H136.452ZM140.52 385V382.24C140.032 381.44 139.588 380.66 139.188 379.9C138.796 379.14 138.452 378.364 138.156 377.572H139.26C139.492 378.244 139.756 378.888 140.052 379.504C140.356 380.112 140.68 380.74 141.024 381.388C141.392 380.708 141.716 380.064 141.996 379.456C142.284 378.84 142.544 378.212 142.776 377.572H143.856C143.552 378.356 143.204 379.12 142.812 379.864C142.42 380.608 141.984 381.392 141.504 382.216V385H140.52Z" fill="#00E430"/>
<path d="M39.68 183C39.5333 182.64 39.36 182.233 39.16 181.78C38.96 181.327 38.7467 180.86 38.52 180.38C38.2933 179.9 38.0467 179.42 37.78 178.94C37.5267 178.46 37.26 178.013 36.98 177.6C36.5133 178.347 36.0467 179.207 35.58 180.18C35.1133 181.14 34.68 182.08 34.28 183H32.5C32.94 182.013 33.4533 180.947 34.04 179.8C34.6267 178.64 35.2533 177.527 35.92 176.46L32.7 170.62H34.52L36.94 175.36L39.54 170.62H41.32L38.04 176.4C38.68 177.44 39.3 178.52 39.9 179.64C40.5 180.76 41.0333 181.88 41.5 183H39.68Z" fill="#00E430"/>
<path d="M72.2 183V178.4C71.3867 177.067 70.6467 175.767 69.98 174.5C69.3267 173.233 68.7533 171.94 68.26 170.62H70.1C70.4867 171.74 70.9267 172.813 71.42 173.84C71.9267 174.853 72.4667 175.9 73.04 176.98C73.6533 175.847 74.1933 174.773 74.66 173.76C75.14 172.733 75.5733 171.687 75.96 170.62H77.76C77.2533 171.927 76.6733 173.2 76.02 174.44C75.3667 175.68 74.64 176.987 73.84 178.36V183H72.2Z" fill="#00E430"/>
</svg>
