<svg width="221" height="373" viewBox="0 0 221 373" fill="none" xmlns="http://www.w3.org/2000/svg">
<rect x="27.5" y="65.5" width="166" height="241" rx="11.5" stroke="#E62937"/>
<path d="M70.2929 89.7071C70.6834 90.0976 71.3166 90.0976 71.7071 89.7071L78.0711 83.3431C78.4616 82.9526 78.4616 82.3195 78.0711 81.9289C77.6805 81.5384 77.0474 81.5384 76.6569 81.9289L71 87.5858L65.3431 81.9289C64.9526 81.5384 64.3195 81.5384 63.9289 81.9289C63.5384 82.3195 63.5384 82.9526 63.9289 83.3431L70.2929 89.7071ZM70 29L70 89L72 89L72 29L70 29Z" fill="white"/>
<path d="M146.293 89.7071C146.683 90.0976 147.317 90.0976 147.707 89.7071L154.071 83.3431C154.462 82.9526 154.462 82.3195 154.071 81.9289C153.681 81.5384 153.047 81.5384 152.657 81.9289L147 87.5858L141.343 81.9289C140.953 81.5384 140.319 81.5384 139.929 81.9289C139.538 82.3195 139.538 82.9526 139.929 83.3431L146.293 89.7071ZM146 29L146 89L148 89L148 29L146 29Z" fill="white"/>
<path d="M70.2929 337.707C70.6834 338.098 71.3166 338.098 71.7071 337.707L78.0711 331.343C78.4616 330.953 78.4616 330.319 78.0711 329.929C77.6805 329.538 77.0474 329.538 76.6569 329.929L71 335.586L65.3431 329.929C64.9526 329.538 64.3195 329.538 63.9289 329.929C63.5384 330.319 63.5384 330.953 63.9289 331.343L70.2929 337.707ZM70 277L70 337L72 337L72 277L70 277Z" fill="white"/>
<path d="M146.293 337.707C146.683 338.098 147.317 338.098 147.707 337.707L154.071 331.343C154.462 330.953 154.462 330.319 154.071 329.929C153.681 329.538 153.047 329.538 152.657 329.929L147 335.586L141.343 329.929C140.953 329.538 140.319 329.538 139.929 329.929C139.538 330.319 139.538 330.953 139.929 331.343L146.293 337.707ZM146 277L146 337L148 337L148 277L146 277Z" fill="white"/>
<path d="M58.08 26L57.34 22.76H52.58L51.86 26H50.18C50.4067 25.12 50.66 24.1667 50.94 23.14C51.22 22.1133 51.52 21.06 51.84 19.98C52.1733 18.9 52.52 17.82 52.88 16.74C53.24 15.6467 53.62 14.6067 54.02 13.62H56.06C56.4467 14.6067 56.8133 15.6467 57.16 16.74C57.52 17.82 57.8533 18.9 58.16 19.98C58.48 21.06 58.78 22.1133 59.06 23.14C59.34 24.1667 59.5933 25.12 59.82 26H58.08ZM54.98 15.06C54.6733 15.9 54.34 16.8733 53.98 17.98C53.62 19.0867 53.28 20.2267 52.96 21.4H56.96C56.6533 20.2 56.32 19.0467 55.96 17.94C55.6133 16.82 55.2867 15.86 54.98 15.06ZM61.42 16.98C62.02 16.8333 62.6133 16.72 63.2 16.64C63.8 16.56 64.36 16.52 64.88 16.52C66.12 16.52 67.0533 16.84 67.68 17.48C68.32 18.12 68.64 19.1467 68.64 20.56V26H67V20.86C67 20.26 66.9467 19.7733 66.84 19.4C66.7333 19.0267 66.58 18.74 66.38 18.54C66.1933 18.3267 65.96 18.18 65.68 18.1C65.4133 18.02 65.12 17.98 64.8 17.98C64.5333 17.98 64.2467 18 63.94 18.04C63.6467 18.0667 63.36 18.1067 63.08 18.16V26H61.42V16.98ZM76.92 25.14C76.7333 25.2467 76.4467 25.36 76.06 25.48C75.6733 25.6 75.2267 25.66 74.72 25.66C74.1733 25.66 73.66 25.5733 73.18 25.4C72.7133 25.2133 72.3 24.94 71.94 24.58C71.5933 24.2067 71.3133 23.74 71.1 23.18C70.9 22.6067 70.8 21.9333 70.8 21.16C70.8 20.48 70.8933 19.86 71.08 19.3C71.28 18.7267 71.56 18.2333 71.92 17.82C72.2933 17.4067 72.7467 17.0867 73.28 16.86C73.8133 16.62 74.42 16.5 75.1 16.5C75.9 16.5 76.58 16.56 77.14 16.68C77.7133 16.7867 78.1933 16.8933 78.58 17V25.28C78.58 26.72 78.2133 27.76 77.48 28.4C76.76 29.04 75.6667 29.36 74.2 29.36C73.6 29.36 73.0533 29.3133 72.56 29.22C72.08 29.1267 71.6533 29.0133 71.28 28.88L71.58 27.42C71.9267 27.5667 72.32 27.6867 72.76 27.78C73.2133 27.8733 73.7067 27.92 74.24 27.92C75.2 27.92 75.8867 27.7267 76.3 27.34C76.7133 26.9533 76.92 26.3267 76.92 25.46V25.14ZM76.92 18.18C76.76 18.1267 76.54 18.08 76.26 18.04C75.98 17.9867 75.6 17.96 75.12 17.96C74.2667 17.96 73.6133 18.2533 73.16 18.84C72.72 19.4267 72.5 20.2067 72.5 21.18C72.5 21.7133 72.56 22.1733 72.68 22.56C72.8133 22.9333 72.9867 23.2467 73.2 23.5C73.4267 23.74 73.68 23.92 73.96 24.04C74.24 24.1467 74.54 24.2 74.86 24.2C75.2733 24.2 75.66 24.14 76.02 24.02C76.3933 23.9 76.6933 23.76 76.92 23.6V18.18ZM86.76 26.22C86.1733 26.22 85.6867 26.14 85.3 25.98C84.9133 25.82 84.6067 25.58 84.38 25.26C84.1533 24.94 83.9933 24.5467 83.9 24.08C83.8067 23.6 83.76 23.0467 83.76 22.42V13.64H81.08V12.24H85.4V22.42C85.4 22.8867 85.4267 23.2667 85.48 23.56C85.5467 23.8533 85.64 24.0933 85.76 24.28C85.8933 24.4533 86.0533 24.5733 86.24 24.64C86.4267 24.7067 86.6467 24.74 86.9 24.74C87.2867 24.74 87.6467 24.6933 87.98 24.6C88.3133 24.5067 88.5733 24.4067 88.76 24.3L89 25.7C88.92 25.74 88.8067 25.7933 88.66 25.86C88.5133 25.9133 88.34 25.9667 88.14 26.02C87.94 26.0733 87.72 26.12 87.48 26.16C87.2533 26.2 87.0133 26.22 86.76 26.22ZM95.18 16.5C96.4333 16.5 97.4 16.8933 98.08 17.68C98.76 18.4533 99.1 19.6333 99.1 21.22V21.8H92.46C92.5267 22.76 92.84 23.4933 93.4 24C93.9733 24.4933 94.7733 24.74 95.8 24.74C96.3867 24.74 96.8867 24.6933 97.3 24.6C97.7133 24.5067 98.0267 24.4067 98.24 24.3L98.46 25.7C98.26 25.8067 97.9 25.92 97.38 26.04C96.86 26.16 96.2733 26.22 95.62 26.22C94.82 26.22 94.1133 26.1 93.5 25.86C92.9 25.6067 92.4 25.2667 92 24.84C91.6 24.4133 91.3 23.9067 91.1 23.32C90.9 22.72 90.8 22.0733 90.8 21.38C90.8 20.5533 90.9267 19.8333 91.18 19.22C91.4333 18.6067 91.7667 18.1 92.18 17.7C92.5933 17.3 93.06 17 93.58 16.8C94.1 16.6 94.6333 16.5 95.18 16.5ZM97.42 20.46C97.42 19.6733 97.2133 19.0533 96.8 18.6C96.3867 18.1333 95.84 17.9 95.16 17.9C94.7733 17.9 94.42 17.9733 94.1 18.12C93.7933 18.2667 93.5267 18.46 93.3 18.7C93.0733 18.94 92.8933 19.2133 92.76 19.52C92.6267 19.8267 92.54 20.14 92.5 20.46H97.42Z" fill="#00E430"/>
<path d="M116.2 19.8C116.2 20.9467 116.053 21.92 115.76 22.72C115.48 23.52 115.087 24.1733 114.58 24.68C114.087 25.1733 113.493 25.5333 112.8 25.76C112.12 25.9867 111.38 26.1 110.58 26.1C109.753 26.1 108.92 26 108.08 25.8V13.8C108.92 13.6 109.753 13.5 110.58 13.5C111.38 13.5 112.12 13.6133 112.8 13.84C113.493 14.0667 114.087 14.4333 114.58 14.94C115.087 15.4467 115.48 16.1 115.76 16.9C116.053 17.7 116.2 18.6667 116.2 19.8ZM109.72 24.62C110.053 24.66 110.393 24.68 110.74 24.68C111.34 24.68 111.873 24.5933 112.34 24.42C112.807 24.2333 113.2 23.9467 113.52 23.56C113.84 23.16 114.087 22.6533 114.26 22.04C114.433 21.4133 114.52 20.6667 114.52 19.8C114.52 18.12 114.193 16.8867 113.54 16.1C112.9 15.3133 111.947 14.92 110.68 14.92C110.507 14.92 110.333 14.9267 110.16 14.94C110 14.94 109.853 14.9533 109.72 14.98V24.62ZM121.18 15.28C120.833 15.28 120.533 15.16 120.28 14.92C120.027 14.68 119.9 14.3533 119.9 13.94C119.9 13.5267 120.027 13.2 120.28 12.96C120.533 12.72 120.833 12.6 121.18 12.6C121.54 12.6 121.84 12.72 122.08 12.96C122.333 13.2 122.46 13.5267 122.46 13.94C122.46 14.3533 122.333 14.68 122.08 14.92C121.84 15.16 121.54 15.28 121.18 15.28ZM120.76 18.1H118.08V16.72H122.4V22.42C122.4 23.34 122.527 23.96 122.78 24.28C123.033 24.5867 123.413 24.74 123.92 24.74C124.307 24.74 124.66 24.6933 124.98 24.6C125.313 24.5067 125.573 24.4067 125.76 24.3L126 25.7C125.92 25.74 125.807 25.7933 125.66 25.86C125.513 25.9133 125.34 25.9667 125.14 26.02C124.953 26.0733 124.74 26.12 124.5 26.16C124.273 26.2 124.033 26.22 123.78 26.22C123.193 26.22 122.707 26.14 122.32 25.98C121.933 25.82 121.62 25.58 121.38 25.26C121.153 24.94 120.993 24.5467 120.9 24.08C120.807 23.6 120.76 23.0467 120.76 22.42V18.1ZM134.02 23.68C134.02 23.3467 133.88 23.0733 133.6 22.86C133.333 22.6467 132.993 22.46 132.58 22.3C132.18 22.14 131.74 21.9867 131.26 21.84C130.78 21.68 130.333 21.4867 129.92 21.26C129.52 21.0333 129.18 20.7533 128.9 20.42C128.633 20.0867 128.5 19.6533 128.5 19.12C128.5 18.3733 128.8 17.7533 129.4 17.26C130.013 16.7533 130.967 16.5 132.26 16.5C132.767 16.5 133.287 16.54 133.82 16.62C134.367 16.6867 134.833 16.78 135.22 16.9L134.92 18.38C134.813 18.3267 134.667 18.2733 134.48 18.22C134.293 18.1533 134.08 18.1 133.84 18.06C133.6 18.0067 133.34 17.9667 133.06 17.94C132.793 17.9133 132.533 17.9 132.28 17.9C130.84 17.9 130.12 18.2933 130.12 19.08C130.12 19.36 130.253 19.6 130.52 19.8C130.8 19.9867 131.147 20.16 131.56 20.32C131.973 20.48 132.42 20.6467 132.9 20.82C133.38 20.98 133.827 21.18 134.24 21.42C134.653 21.66 134.993 21.9533 135.26 22.3C135.54 22.6333 135.68 23.06 135.68 23.58C135.68 24.42 135.353 25.0733 134.7 25.54C134.047 25.9933 133.013 26.22 131.6 26.22C130.96 26.22 130.373 26.1667 129.84 26.06C129.307 25.9533 128.8 25.7933 128.32 25.58L128.64 24.08C129.107 24.2933 129.593 24.4733 130.1 24.62C130.62 24.7533 131.173 24.82 131.76 24.82C133.267 24.82 134.02 24.44 134.02 23.68ZM141.86 16.72H145.78V18.1H141.86V22.42C141.86 22.8867 141.893 23.2667 141.96 23.56C142.027 23.8533 142.133 24.0933 142.28 24.28C142.44 24.4533 142.64 24.5733 142.88 24.64C143.12 24.7067 143.413 24.74 143.76 24.74C144.24 24.74 144.627 24.7 144.92 24.62C145.213 24.54 145.493 24.4333 145.76 24.3L146 25.7C145.813 25.78 145.513 25.8867 145.1 26.02C144.7 26.1533 144.2 26.22 143.6 26.22C142.907 26.22 142.34 26.14 141.9 25.98C141.46 25.82 141.113 25.58 140.86 25.26C140.62 24.94 140.453 24.5467 140.36 24.08C140.267 23.6 140.22 23.0467 140.22 22.42V18.1H138.26V16.72H140.22V14.12L141.86 13.84V16.72ZM152.1 24.82C152.513 24.82 152.88 24.8067 153.2 24.78C153.533 24.7533 153.807 24.72 154.02 24.68V21.92C153.807 21.8533 153.547 21.8 153.24 21.76C152.947 21.72 152.633 21.7 152.3 21.7C151.993 21.7 151.693 21.7267 151.4 21.78C151.107 21.82 150.847 21.9 150.62 22.02C150.393 22.14 150.207 22.3 150.06 22.5C149.913 22.6867 149.84 22.9267 149.84 23.22C149.84 23.82 150.04 24.24 150.44 24.48C150.853 24.7067 151.407 24.82 152.1 24.82ZM151.94 16.5C152.633 16.5 153.213 16.5867 153.68 16.76C154.16 16.9333 154.547 17.1733 154.84 17.48C155.133 17.7867 155.34 18.16 155.46 18.6C155.58 19.04 155.64 19.52 155.64 20.04V25.84C155.253 25.9067 154.74 25.9867 154.1 26.08C153.473 26.1733 152.827 26.22 152.16 26.22C151.653 26.22 151.16 26.1733 150.68 26.08C150.2 26 149.773 25.8533 149.4 25.64C149.027 25.4133 148.727 25.1067 148.5 24.72C148.273 24.3333 148.16 23.84 148.16 23.24C148.16 22.7067 148.273 22.26 148.5 21.9C148.74 21.5267 149.04 21.2267 149.4 21C149.773 20.7733 150.193 20.6133 150.66 20.52C151.14 20.4133 151.62 20.36 152.1 20.36C152.753 20.36 153.393 20.4333 154.02 20.58V20.12C154.02 19.84 153.987 19.5733 153.92 19.32C153.867 19.0533 153.753 18.8133 153.58 18.6C153.42 18.3867 153.193 18.22 152.9 18.1C152.62 17.9667 152.253 17.9 151.8 17.9C151.227 17.9 150.727 17.94 150.3 18.02C149.873 18.1 149.547 18.18 149.32 18.26L149.12 16.9C149.347 16.7933 149.72 16.7 150.24 16.62C150.773 16.54 151.34 16.5 151.94 16.5ZM158.42 16.98C159.02 16.8333 159.613 16.72 160.2 16.64C160.8 16.56 161.36 16.52 161.88 16.52C163.12 16.52 164.053 16.84 164.68 17.48C165.32 18.12 165.64 19.1467 165.64 20.56V26H164V20.86C164 20.26 163.947 19.7733 163.84 19.4C163.733 19.0267 163.58 18.74 163.38 18.54C163.193 18.3267 162.96 18.18 162.68 18.1C162.413 18.02 162.12 17.98 161.8 17.98C161.533 17.98 161.247 18 160.94 18.04C160.647 18.0667 160.36 18.1067 160.08 18.16V26H158.42V16.98ZM167.98 21.38C167.98 20.54 168.113 19.8133 168.38 19.2C168.647 18.5867 169.013 18.08 169.48 17.68C169.947 17.28 170.487 16.9867 171.1 16.8C171.727 16.6 172.393 16.5 173.1 16.5C173.553 16.5 174 16.5333 174.44 16.6C174.893 16.6533 175.373 16.76 175.88 16.92L175.5 18.34C175.06 18.18 174.653 18.08 174.28 18.04C173.92 17.9867 173.553 17.96 173.18 17.96C172.7 17.96 172.247 18.0267 171.82 18.16C171.393 18.28 171.02 18.48 170.7 18.76C170.393 19.0267 170.147 19.38 169.96 19.82C169.773 20.2467 169.68 20.7667 169.68 21.38C169.68 21.9667 169.767 22.4733 169.94 22.9C170.113 23.3133 170.353 23.66 170.66 23.94C170.98 24.2067 171.36 24.4067 171.8 24.54C172.24 24.6733 172.727 24.74 173.26 24.74C173.687 24.74 174.093 24.72 174.48 24.68C174.88 24.6267 175.313 24.52 175.78 24.36L176.02 25.74C175.553 25.9133 175.08 26.0333 174.6 26.1C174.12 26.18 173.6 26.22 173.04 26.22C172.293 26.22 171.607 26.12 170.98 25.92C170.367 25.7067 169.833 25.4 169.38 25C168.94 24.6 168.593 24.1 168.34 23.5C168.1 22.8867 167.98 22.18 167.98 21.38ZM182.18 16.5C183.433 16.5 184.4 16.8933 185.08 17.68C185.76 18.4533 186.1 19.6333 186.1 21.22V21.8H179.46C179.527 22.76 179.84 23.4933 180.4 24C180.973 24.4933 181.773 24.74 182.8 24.74C183.387 24.74 183.887 24.6933 184.3 24.6C184.713 24.5067 185.027 24.4067 185.24 24.3L185.46 25.7C185.26 25.8067 184.9 25.92 184.38 26.04C183.86 26.16 183.273 26.22 182.62 26.22C181.82 26.22 181.113 26.1 180.5 25.86C179.9 25.6067 179.4 25.2667 179 24.84C178.6 24.4133 178.3 23.9067 178.1 23.32C177.9 22.72 177.8 22.0733 177.8 21.38C177.8 20.5533 177.927 19.8333 178.18 19.22C178.433 18.6067 178.767 18.1 179.18 17.7C179.593 17.3 180.06 17 180.58 16.8C181.1 16.6 181.633 16.5 182.18 16.5ZM184.42 20.46C184.42 19.6733 184.213 19.0533 183.8 18.6C183.387 18.1333 182.84 17.9 182.16 17.9C181.773 17.9 181.42 17.9733 181.1 18.12C180.793 18.2667 180.527 18.46 180.3 18.7C180.073 18.94 179.893 19.2133 179.76 19.52C179.627 19.8267 179.54 20.14 179.5 20.46H184.42Z" fill="#00E430"/>
<path d="M74.68 359C74.5333 358.64 74.36 358.233 74.16 357.78C73.96 357.327 73.7467 356.86 73.52 356.38C73.2933 355.9 73.0467 355.42 72.78 354.94C72.5267 354.46 72.26 354.013 71.98 353.6C71.5133 354.347 71.0467 355.207 70.58 356.18C70.1133 357.14 69.68 358.08 69.28 359H67.5C67.94 358.013 68.4533 356.947 69.04 355.8C69.6267 354.64 70.2533 353.527 70.92 352.46L67.7 346.62H69.52L71.94 351.36L74.54 346.62H76.32L73.04 352.4C73.68 353.44 74.3 354.52 74.9 355.64C75.5 356.76 76.0333 357.88 76.5 359H74.68Z" fill="#00E430"/>
<path d="M146.2 359V354.4C145.387 353.067 144.647 351.767 143.98 350.5C143.327 349.233 142.753 347.94 142.26 346.62H144.1C144.487 347.74 144.927 348.813 145.42 349.84C145.927 350.853 146.467 351.9 147.04 352.98C147.653 351.847 148.193 350.773 148.66 349.76C149.14 348.733 149.573 347.687 149.96 346.62H151.76C151.253 347.927 150.673 349.2 150.02 350.44C149.367 351.68 148.64 352.987 147.84 354.36V359H146.2Z" fill="#00E430"/>
<path d="M55.28 181.48C55.9867 181.48 56.6267 181.56 57.2 181.72C57.7733 181.88 58.2667 182.127 58.68 182.46C59.0933 182.793 59.4067 183.22 59.62 183.74C59.8467 184.247 59.96 184.847 59.96 185.54C59.96 186.26 59.8133 186.913 59.52 187.5C59.2267 188.087 58.74 188.533 58.06 188.84C58.2867 189.187 58.5267 189.573 58.78 190C59.0333 190.413 59.28 190.853 59.52 191.32C59.76 191.773 59.9867 192.233 60.2 192.7C60.4267 193.153 60.62 193.587 60.78 194H58.2C57.8933 193.2 57.5333 192.433 57.12 191.7C56.72 190.953 56.2867 190.2 55.82 189.44H54.54V194H52.08V181.8C52.32 181.747 52.58 181.7 52.86 181.66C53.1533 181.607 53.4467 181.573 53.74 181.56C54.0333 181.533 54.3133 181.513 54.58 181.5C54.8467 181.487 55.08 181.48 55.28 181.48ZM57.46 185.52C57.46 184.867 57.26 184.387 56.86 184.08C56.46 183.773 55.9333 183.62 55.28 183.62C55.1867 183.62 55.0733 183.627 54.94 183.64C54.8067 183.64 54.6733 183.653 54.54 183.68V187.4H55.08C55.92 187.4 56.5267 187.24 56.9 186.92C57.2733 186.587 57.46 186.12 57.46 185.52ZM70.44 189.28C70.44 190.027 70.3333 190.707 70.12 191.32C69.9067 191.92 69.6067 192.44 69.22 192.88C68.8333 193.32 68.3667 193.66 67.82 193.9C67.2867 194.14 66.6867 194.26 66.02 194.26C65.3533 194.26 64.7467 194.14 64.2 193.9C63.6667 193.66 63.2 193.32 62.8 192.88C62.4133 192.44 62.1133 191.92 61.9 191.32C61.6867 190.707 61.58 190.027 61.58 189.28C61.58 188.547 61.6867 187.88 61.9 187.28C62.1267 186.667 62.4333 186.147 62.82 185.72C63.22 185.28 63.6933 184.947 64.24 184.72C64.7867 184.48 65.38 184.36 66.02 184.36C66.6733 184.36 67.2667 184.48 67.8 184.72C68.3467 184.947 68.8133 185.28 69.2 185.72C69.6 186.147 69.9067 186.667 70.12 187.28C70.3333 187.88 70.44 188.547 70.44 189.28ZM64.08 189.3C64.08 190.14 64.2267 190.82 64.52 191.34C64.8267 191.86 65.3133 192.12 65.98 192.12C66.62 192.12 67.1 191.86 67.42 191.34C67.7533 190.82 67.92 190.14 67.92 189.3C67.92 188.46 67.7667 187.787 67.46 187.28C67.1667 186.76 66.6867 186.5 66.02 186.5C65.38 186.5 64.8933 186.76 64.56 187.28C64.24 187.787 64.08 188.46 64.08 189.3ZM73.86 186.64H71.72V184.6H73.86V182.24L76.32 181.84V184.6H80.26V186.64H76.32V190.44C76.32 190.787 76.3533 191.067 76.42 191.28C76.4867 191.493 76.58 191.66 76.7 191.78C76.82 191.9 76.9667 191.98 77.14 192.02C77.3133 192.06 77.5067 192.08 77.72 192.08C77.9467 192.08 78.1533 192.073 78.34 192.06C78.54 192.047 78.7267 192.027 78.9 192C79.0867 191.96 79.2733 191.907 79.46 191.84C79.66 191.773 79.8733 191.687 80.1 191.58L80.44 193.7C79.9867 193.887 79.4933 194.02 78.96 194.1C78.44 194.18 77.9333 194.22 77.44 194.22C76.8667 194.22 76.36 194.173 75.92 194.08C75.48 193.987 75.1067 193.807 74.8 193.54C74.4933 193.273 74.26 192.9 74.1 192.42C73.94 191.927 73.86 191.287 73.86 190.5V186.64ZM86.02 192.24C86.2867 192.24 86.5467 192.24 86.8 192.24C87.0533 192.227 87.2733 192.207 87.46 192.18V190.02C87.3 189.993 87.1067 189.973 86.88 189.96C86.6533 189.933 86.4467 189.92 86.26 189.92C86.0067 189.92 85.76 189.94 85.52 189.98C85.28 190.007 85.0667 190.06 84.88 190.14C84.7067 190.22 84.5667 190.333 84.46 190.48C84.3533 190.627 84.3 190.82 84.3 191.06C84.3 191.487 84.46 191.793 84.78 191.98C85.1 192.153 85.5133 192.24 86.02 192.24ZM85.8 184.36C86.5733 184.36 87.2133 184.453 87.72 184.64C88.24 184.813 88.6533 185.067 88.96 185.4C89.2667 185.72 89.4867 186.12 89.62 186.6C89.7533 187.067 89.82 187.593 89.82 188.18V193.78C89.46 193.86 88.9267 193.953 88.22 194.06C87.5133 194.167 86.72 194.22 85.84 194.22C85.24 194.22 84.6933 194.167 84.2 194.06C83.72 193.953 83.3067 193.78 82.96 193.54C82.6133 193.287 82.3467 192.967 82.16 192.58C81.9733 192.18 81.88 191.693 81.88 191.12C81.88 190.573 81.9867 190.113 82.2 189.74C82.4133 189.367 82.7 189.067 83.06 188.84C83.42 188.613 83.8333 188.453 84.3 188.36C84.7667 188.253 85.2533 188.2 85.76 188.2C86.4 188.2 86.9667 188.253 87.46 188.36V188.06C87.46 187.593 87.3133 187.207 87.02 186.9C86.7267 186.58 86.22 186.42 85.5 186.42C85.0333 186.42 84.58 186.453 84.14 186.52C83.7133 186.587 83.3667 186.667 83.1 186.76L82.76 184.78C83.0667 184.673 83.5 184.58 84.06 184.5C84.62 184.407 85.2 184.36 85.8 184.36ZM93.86 186.64H91.72V184.6H93.86V182.24L96.32 181.84V184.6H100.26V186.64H96.32V190.44C96.32 190.787 96.3533 191.067 96.42 191.28C96.4867 191.493 96.58 191.66 96.7 191.78C96.82 191.9 96.9667 191.98 97.14 192.02C97.3133 192.06 97.5067 192.08 97.72 192.08C97.9467 192.08 98.1533 192.073 98.34 192.06C98.54 192.047 98.7267 192.027 98.9 192C99.0867 191.96 99.2733 191.907 99.46 191.84C99.66 191.773 99.8733 191.687 100.1 191.58L100.44 193.7C99.9867 193.887 99.4933 194.02 98.96 194.1C98.44 194.18 97.9333 194.22 97.44 194.22C96.8667 194.22 96.36 194.173 95.92 194.08C95.48 193.987 95.1067 193.807 94.8 193.54C94.4933 193.273 94.26 192.9 94.1 192.42C93.94 191.927 93.86 191.287 93.86 190.5V186.64ZM101.62 189.38C101.62 188.553 101.747 187.827 102 187.2C102.253 186.573 102.587 186.053 103 185.64C103.413 185.213 103.887 184.893 104.42 184.68C104.953 184.467 105.5 184.36 106.06 184.36C107.447 184.36 108.5 184.773 109.22 185.6C109.94 186.413 110.3 187.607 110.3 189.18C110.3 189.34 110.293 189.507 110.28 189.68C110.28 189.853 110.273 189.993 110.26 190.1H104.16C104.16 190.713 104.413 191.2 104.92 191.56C105.427 191.907 106.08 192.08 106.88 192.08C107.373 192.08 107.84 192.027 108.28 191.92C108.733 191.813 109.113 191.707 109.42 191.6L109.76 193.7C109.333 193.847 108.88 193.967 108.4 194.06C107.92 194.167 107.38 194.22 106.78 194.22C105.98 194.22 105.26 194.12 104.62 193.92C103.993 193.707 103.453 193.4 103 193C102.56 192.587 102.22 192.08 101.98 191.48C101.74 190.88 101.62 190.18 101.62 189.38ZM107.92 188.4C107.92 188.147 107.887 187.907 107.82 187.68C107.753 187.44 107.647 187.227 107.5 187.04C107.353 186.853 107.167 186.707 106.94 186.6C106.713 186.48 106.433 186.42 106.1 186.42C105.78 186.42 105.5 186.473 105.26 186.58C105.033 186.687 104.84 186.833 104.68 187.02C104.533 187.207 104.413 187.42 104.32 187.66C104.24 187.9 104.187 188.147 104.16 188.4H107.92ZM125.48 181.48C127.053 181.48 128.273 181.807 129.14 182.46C130.007 183.1 130.44 184.153 130.44 185.62C130.44 187.1 130 188.173 129.12 188.84C128.253 189.493 127.02 189.82 125.42 189.82H124.54V194H122.08V181.78C122.32 181.727 122.587 181.68 122.88 181.64C123.187 181.6 123.493 181.573 123.8 181.56C124.107 181.533 124.407 181.513 124.7 181.5C124.993 181.487 125.253 181.48 125.48 181.48ZM125.76 183.62C125.613 183.62 125.407 183.627 125.14 183.64C124.887 183.64 124.687 183.653 124.54 183.68V187.68H125.54C126.327 187.68 126.92 187.527 127.32 187.22C127.72 186.9 127.92 186.36 127.92 185.6C127.92 184.88 127.72 184.373 127.32 184.08C126.933 183.773 126.413 183.62 125.76 183.62ZM140.44 189.28C140.44 190.027 140.333 190.707 140.12 191.32C139.907 191.92 139.607 192.44 139.22 192.88C138.833 193.32 138.367 193.66 137.82 193.9C137.287 194.14 136.687 194.26 136.02 194.26C135.353 194.26 134.747 194.14 134.2 193.9C133.667 193.66 133.2 193.32 132.8 192.88C132.413 192.44 132.113 191.92 131.9 191.32C131.687 190.707 131.58 190.027 131.58 189.28C131.58 188.547 131.687 187.88 131.9 187.28C132.127 186.667 132.433 186.147 132.82 185.72C133.22 185.28 133.693 184.947 134.24 184.72C134.787 184.48 135.38 184.36 136.02 184.36C136.673 184.36 137.267 184.48 137.8 184.72C138.347 184.947 138.813 185.28 139.2 185.72C139.6 186.147 139.907 186.667 140.12 187.28C140.333 187.88 140.44 188.547 140.44 189.28ZM134.08 189.3C134.08 190.14 134.227 190.82 134.52 191.34C134.827 191.86 135.313 192.12 135.98 192.12C136.62 192.12 137.1 191.86 137.42 191.34C137.753 190.82 137.92 190.14 137.92 189.3C137.92 188.46 137.767 187.787 137.46 187.28C137.167 186.76 136.687 186.5 136.02 186.5C135.38 186.5 134.893 186.76 134.56 187.28C134.24 187.787 134.08 188.46 134.08 189.3ZM146.68 181.9C146.68 182.38 146.527 182.76 146.22 183.04C145.913 183.32 145.547 183.46 145.12 183.46C144.693 183.46 144.327 183.32 144.02 183.04C143.727 182.76 143.58 182.38 143.58 181.9C143.58 181.407 143.727 181.02 144.02 180.74C144.327 180.46 144.693 180.32 145.12 180.32C145.547 180.32 145.913 180.46 146.22 180.74C146.527 181.02 146.68 181.407 146.68 181.9ZM150.34 193.6C149.833 193.84 149.353 194 148.9 194.08C148.46 194.173 148.053 194.22 147.68 194.22C147.04 194.22 146.5 194.127 146.06 193.94C145.633 193.753 145.287 193.487 145.02 193.14C144.767 192.78 144.587 192.347 144.48 191.84C144.373 191.333 144.32 190.753 144.32 190.1V186.64H141.72V184.6H146.78V190.42C146.78 190.98 146.88 191.4 147.08 191.68C147.293 191.947 147.64 192.08 148.12 192.08C148.347 192.08 148.62 192.053 148.94 192C149.26 191.933 149.62 191.807 150.02 191.62L150.34 193.6ZM152.26 184.9C152.7 184.78 153.24 184.667 153.88 184.56C154.533 184.453 155.24 184.4 156 184.4C156.747 184.4 157.367 184.507 157.86 184.72C158.353 184.92 158.74 185.213 159.02 185.6C159.313 185.973 159.52 186.427 159.64 186.96C159.76 187.48 159.82 188.06 159.82 188.7V194H157.36V189.02C157.36 188.14 157.26 187.507 157.06 187.12C156.86 186.733 156.453 186.54 155.84 186.54C155.653 186.54 155.467 186.547 155.28 186.56C155.107 186.573 154.92 186.593 154.72 186.62V194H152.26V184.9ZM163.86 186.64H161.72V184.6H163.86V182.24L166.32 181.84V184.6H170.26V186.64H166.32V190.44C166.32 190.787 166.353 191.067 166.42 191.28C166.487 191.493 166.58 191.66 166.7 191.78C166.82 191.9 166.967 191.98 167.14 192.02C167.313 192.06 167.507 192.08 167.72 192.08C167.947 192.08 168.153 192.073 168.34 192.06C168.54 192.047 168.727 192.027 168.9 192C169.087 191.96 169.273 191.907 169.46 191.84C169.66 191.773 169.873 191.687 170.1 191.58L170.44 193.7C169.987 193.887 169.493 194.02 168.96 194.1C168.44 194.18 167.933 194.22 167.44 194.22C166.867 194.22 166.36 194.173 165.92 194.08C165.48 193.987 165.107 193.807 164.8 193.54C164.493 193.273 164.26 192.9 164.1 192.42C163.94 191.927 163.86 191.287 163.86 190.5V186.64Z" fill="#0079F1"/>
</svg>
