<svg width="221" height="373" viewBox="0 0 221 373" fill="none" xmlns="http://www.w3.org/2000/svg">
<rect x="49.5" y="87.5" width="42" height="48" rx="11.5" stroke="#E62937"/>
<rect x="49.5" y="206.5" width="42" height="48" rx="11.5" stroke="#E62937"/>
<rect x="99.5" y="98.5" width="42" height="48" rx="11.5" stroke="#E62937"/>
<rect x="120.5" y="206.5" width="42" height="48" rx="11.5" stroke="#E62937"/>
<rect x="27.5" y="65.5" width="166" height="241" rx="11.5" stroke="#E62937"/>
<path d="M70.2929 94.7071C70.6834 95.0976 71.3166 95.0976 71.7071 94.7071L78.0711 88.3431C78.4616 87.9526 78.4616 87.3195 78.0711 86.9289C77.6805 86.5384 77.0474 86.5384 76.6569 86.9289L71 92.5858L65.3431 86.9289C64.9526 86.5384 64.3195 86.5384 63.9289 86.9289C63.5384 87.3195 63.5384 87.9526 63.9289 88.3431L70.2929 94.7071ZM70 29V94H72V29H70Z" fill="white"/>
<path d="M146.293 215.707C146.683 216.098 147.317 216.098 147.707 215.707L154.071 209.343C154.462 208.953 154.462 208.319 154.071 207.929C153.681 207.538 153.047 207.538 152.657 207.929L147 213.586L141.343 207.929C140.953 207.538 140.319 207.538 139.929 207.929C139.538 208.319 139.538 208.953 139.929 209.343L146.293 215.707ZM146 29V215H148V29H146Z" fill="white"/>
<path d="M70.2929 337.707C70.6834 338.098 71.3166 338.098 71.7071 337.707L78.0711 331.343C78.4616 330.953 78.4616 330.319 78.0711 329.929C77.6805 329.538 77.0474 329.538 76.6569 329.929L71 335.586L65.3431 329.929C64.9526 329.538 64.3195 329.538 63.9289 329.929C63.5384 330.319 63.5384 330.953 63.9289 331.343L70.2929 337.707ZM70 277L70 337L72 337L72 277L70 277Z" fill="white"/>
<path d="M141.293 337.707C141.683 338.098 142.317 338.098 142.707 337.707L149.071 331.343C149.462 330.953 149.462 330.319 149.071 329.929C148.681 329.538 148.047 329.538 147.657 329.929L142 335.586L136.343 329.929C135.953 329.538 135.319 329.538 134.929 329.929C134.538 330.319 134.538 330.953 134.929 331.343L141.293 337.707ZM141 277L141 337L143 337L143 277L141 277Z" fill="white"/>
<path d="M54.08 26L53.34 22.76H48.58L47.86 26H46.18C46.4067 25.12 46.66 24.1667 46.94 23.14C47.22 22.1133 47.52 21.06 47.84 19.98C48.1733 18.9 48.52 17.82 48.88 16.74C49.24 15.6467 49.62 14.6067 50.02 13.62H52.06C52.4467 14.6067 52.8133 15.6467 53.16 16.74C53.52 17.82 53.8533 18.9 54.16 19.98C54.48 21.06 54.78 22.1133 55.06 23.14C55.34 24.1667 55.5933 25.12 55.82 26H54.08ZM50.98 15.06C50.6733 15.9 50.34 16.8733 49.98 17.98C49.62 19.0867 49.28 20.2267 48.96 21.4H52.96C52.6533 20.2 52.32 19.0467 51.96 17.94C51.6133 16.82 51.2867 15.86 50.98 15.06ZM57.42 16.98C58.02 16.8333 58.6133 16.72 59.2 16.64C59.8 16.56 60.36 16.52 60.88 16.52C62.12 16.52 63.0533 16.84 63.68 17.48C64.32 18.12 64.64 19.1467 64.64 20.56V26H63V20.86C63 20.26 62.9467 19.7733 62.84 19.4C62.7333 19.0267 62.58 18.74 62.38 18.54C62.1933 18.3267 61.96 18.18 61.68 18.1C61.4133 18.02 61.12 17.98 60.8 17.98C60.5333 17.98 60.2467 18 59.94 18.04C59.6467 18.0667 59.36 18.1067 59.08 18.16V26H57.42V16.98ZM72.92 25.14C72.7333 25.2467 72.4467 25.36 72.06 25.48C71.6733 25.6 71.2267 25.66 70.72 25.66C70.1733 25.66 69.66 25.5733 69.18 25.4C68.7133 25.2133 68.3 24.94 67.94 24.58C67.5933 24.2067 67.3133 23.74 67.1 23.18C66.9 22.6067 66.8 21.9333 66.8 21.16C66.8 20.48 66.8933 19.86 67.08 19.3C67.28 18.7267 67.56 18.2333 67.92 17.82C68.2933 17.4067 68.7467 17.0867 69.28 16.86C69.8133 16.62 70.42 16.5 71.1 16.5C71.9 16.5 72.58 16.56 73.14 16.68C73.7133 16.7867 74.1933 16.8933 74.58 17V25.28C74.58 26.72 74.2133 27.76 73.48 28.4C72.76 29.04 71.6667 29.36 70.2 29.36C69.6 29.36 69.0533 29.3133 68.56 29.22C68.08 29.1267 67.6533 29.0133 67.28 28.88L67.58 27.42C67.9267 27.5667 68.32 27.6867 68.76 27.78C69.2133 27.8733 69.7067 27.92 70.24 27.92C71.2 27.92 71.8867 27.7267 72.3 27.34C72.7133 26.9533 72.92 26.3267 72.92 25.46V25.14ZM72.92 18.18C72.76 18.1267 72.54 18.08 72.26 18.04C71.98 17.9867 71.6 17.96 71.12 17.96C70.2667 17.96 69.6133 18.2533 69.16 18.84C68.72 19.4267 68.5 20.2067 68.5 21.18C68.5 21.7133 68.56 22.1733 68.68 22.56C68.8133 22.9333 68.9867 23.2467 69.2 23.5C69.4267 23.74 69.68 23.92 69.96 24.04C70.24 24.1467 70.54 24.2 70.86 24.2C71.2733 24.2 71.66 24.14 72.02 24.02C72.3933 23.9 72.6933 23.76 72.92 23.6V18.18ZM82.76 26.22C82.1733 26.22 81.6867 26.14 81.3 25.98C80.9133 25.82 80.6067 25.58 80.38 25.26C80.1533 24.94 79.9933 24.5467 79.9 24.08C79.8067 23.6 79.76 23.0467 79.76 22.42V13.64H77.08V12.24H81.4V22.42C81.4 22.8867 81.4267 23.2667 81.48 23.56C81.5467 23.8533 81.64 24.0933 81.76 24.28C81.8933 24.4533 82.0533 24.5733 82.24 24.64C82.4267 24.7067 82.6467 24.74 82.9 24.74C83.2867 24.74 83.6467 24.6933 83.98 24.6C84.3133 24.5067 84.5733 24.4067 84.76 24.3L85 25.7C84.92 25.74 84.8067 25.7933 84.66 25.86C84.5133 25.9133 84.34 25.9667 84.14 26.02C83.94 26.0733 83.72 26.12 83.48 26.16C83.2533 26.2 83.0133 26.22 82.76 26.22ZM91.18 16.5C92.4333 16.5 93.4 16.8933 94.08 17.68C94.76 18.4533 95.1 19.6333 95.1 21.22V21.8H88.46C88.5267 22.76 88.84 23.4933 89.4 24C89.9733 24.4933 90.7733 24.74 91.8 24.74C92.3867 24.74 92.8867 24.6933 93.3 24.6C93.7133 24.5067 94.0267 24.4067 94.24 24.3L94.46 25.7C94.26 25.8067 93.9 25.92 93.38 26.04C92.86 26.16 92.2733 26.22 91.62 26.22C90.82 26.22 90.1133 26.1 89.5 25.86C88.9 25.6067 88.4 25.2667 88 24.84C87.6 24.4133 87.3 23.9067 87.1 23.32C86.9 22.72 86.8 22.0733 86.8 21.38C86.8 20.5533 86.9267 19.8333 87.18 19.22C87.4333 18.6067 87.7667 18.1 88.18 17.7C88.5933 17.3 89.06 17 89.58 16.8C90.1 16.6 90.6333 16.5 91.18 16.5ZM93.42 20.46C93.42 19.6733 93.2133 19.0533 92.8 18.6C92.3867 18.1333 91.84 17.9 91.16 17.9C90.7733 17.9 90.42 17.9733 90.1 18.12C89.7933 18.2667 89.5267 18.46 89.3 18.7C89.0733 18.94 88.8933 19.2133 88.76 19.52C88.6267 19.8267 88.54 20.14 88.5 20.46H93.42Z" fill="#00E430"/>
<path d="M116.2 19.8C116.2 20.9467 116.053 21.92 115.76 22.72C115.48 23.52 115.087 24.1733 114.58 24.68C114.087 25.1733 113.493 25.5333 112.8 25.76C112.12 25.9867 111.38 26.1 110.58 26.1C109.753 26.1 108.92 26 108.08 25.8V13.8C108.92 13.6 109.753 13.5 110.58 13.5C111.38 13.5 112.12 13.6133 112.8 13.84C113.493 14.0667 114.087 14.4333 114.58 14.94C115.087 15.4467 115.48 16.1 115.76 16.9C116.053 17.7 116.2 18.6667 116.2 19.8ZM109.72 24.62C110.053 24.66 110.393 24.68 110.74 24.68C111.34 24.68 111.873 24.5933 112.34 24.42C112.807 24.2333 113.2 23.9467 113.52 23.56C113.84 23.16 114.087 22.6533 114.26 22.04C114.433 21.4133 114.52 20.6667 114.52 19.8C114.52 18.12 114.193 16.8867 113.54 16.1C112.9 15.3133 111.947 14.92 110.68 14.92C110.507 14.92 110.333 14.9267 110.16 14.94C110 14.94 109.853 14.9533 109.72 14.98V24.62ZM121.18 15.28C120.833 15.28 120.533 15.16 120.28 14.92C120.027 14.68 119.9 14.3533 119.9 13.94C119.9 13.5267 120.027 13.2 120.28 12.96C120.533 12.72 120.833 12.6 121.18 12.6C121.54 12.6 121.84 12.72 122.08 12.96C122.333 13.2 122.46 13.5267 122.46 13.94C122.46 14.3533 122.333 14.68 122.08 14.92C121.84 15.16 121.54 15.28 121.18 15.28ZM120.76 18.1H118.08V16.72H122.4V22.42C122.4 23.34 122.527 23.96 122.78 24.28C123.033 24.5867 123.413 24.74 123.92 24.74C124.307 24.74 124.66 24.6933 124.98 24.6C125.313 24.5067 125.573 24.4067 125.76 24.3L126 25.7C125.92 25.74 125.807 25.7933 125.66 25.86C125.513 25.9133 125.34 25.9667 125.14 26.02C124.953 26.0733 124.74 26.12 124.5 26.16C124.273 26.2 124.033 26.22 123.78 26.22C123.193 26.22 122.707 26.14 122.32 25.98C121.933 25.82 121.62 25.58 121.38 25.26C121.153 24.94 120.993 24.5467 120.9 24.08C120.807 23.6 120.76 23.0467 120.76 22.42V18.1ZM134.02 23.68C134.02 23.3467 133.88 23.0733 133.6 22.86C133.333 22.6467 132.993 22.46 132.58 22.3C132.18 22.14 131.74 21.9867 131.26 21.84C130.78 21.68 130.333 21.4867 129.92 21.26C129.52 21.0333 129.18 20.7533 128.9 20.42C128.633 20.0867 128.5 19.6533 128.5 19.12C128.5 18.3733 128.8 17.7533 129.4 17.26C130.013 16.7533 130.967 16.5 132.26 16.5C132.767 16.5 133.287 16.54 133.82 16.62C134.367 16.6867 134.833 16.78 135.22 16.9L134.92 18.38C134.813 18.3267 134.667 18.2733 134.48 18.22C134.293 18.1533 134.08 18.1 133.84 18.06C133.6 18.0067 133.34 17.9667 133.06 17.94C132.793 17.9133 132.533 17.9 132.28 17.9C130.84 17.9 130.12 18.2933 130.12 19.08C130.12 19.36 130.253 19.6 130.52 19.8C130.8 19.9867 131.147 20.16 131.56 20.32C131.973 20.48 132.42 20.6467 132.9 20.82C133.38 20.98 133.827 21.18 134.24 21.42C134.653 21.66 134.993 21.9533 135.26 22.3C135.54 22.6333 135.68 23.06 135.68 23.58C135.68 24.42 135.353 25.0733 134.7 25.54C134.047 25.9933 133.013 26.22 131.6 26.22C130.96 26.22 130.373 26.1667 129.84 26.06C129.307 25.9533 128.8 25.7933 128.32 25.58L128.64 24.08C129.107 24.2933 129.593 24.4733 130.1 24.62C130.62 24.7533 131.173 24.82 131.76 24.82C133.267 24.82 134.02 24.44 134.02 23.68ZM141.86 16.72H145.78V18.1H141.86V22.42C141.86 22.8867 141.893 23.2667 141.96 23.56C142.027 23.8533 142.133 24.0933 142.28 24.28C142.44 24.4533 142.64 24.5733 142.88 24.64C143.12 24.7067 143.413 24.74 143.76 24.74C144.24 24.74 144.627 24.7 144.92 24.62C145.213 24.54 145.493 24.4333 145.76 24.3L146 25.7C145.813 25.78 145.513 25.8867 145.1 26.02C144.7 26.1533 144.2 26.22 143.6 26.22C142.907 26.22 142.34 26.14 141.9 25.98C141.46 25.82 141.113 25.58 140.86 25.26C140.62 24.94 140.453 24.5467 140.36 24.08C140.267 23.6 140.22 23.0467 140.22 22.42V18.1H138.26V16.72H140.22V14.12L141.86 13.84V16.72ZM152.1 24.82C152.513 24.82 152.88 24.8067 153.2 24.78C153.533 24.7533 153.807 24.72 154.02 24.68V21.92C153.807 21.8533 153.547 21.8 153.24 21.76C152.947 21.72 152.633 21.7 152.3 21.7C151.993 21.7 151.693 21.7267 151.4 21.78C151.107 21.82 150.847 21.9 150.62 22.02C150.393 22.14 150.207 22.3 150.06 22.5C149.913 22.6867 149.84 22.9267 149.84 23.22C149.84 23.82 150.04 24.24 150.44 24.48C150.853 24.7067 151.407 24.82 152.1 24.82ZM151.94 16.5C152.633 16.5 153.213 16.5867 153.68 16.76C154.16 16.9333 154.547 17.1733 154.84 17.48C155.133 17.7867 155.34 18.16 155.46 18.6C155.58 19.04 155.64 19.52 155.64 20.04V25.84C155.253 25.9067 154.74 25.9867 154.1 26.08C153.473 26.1733 152.827 26.22 152.16 26.22C151.653 26.22 151.16 26.1733 150.68 26.08C150.2 26 149.773 25.8533 149.4 25.64C149.027 25.4133 148.727 25.1067 148.5 24.72C148.273 24.3333 148.16 23.84 148.16 23.24C148.16 22.7067 148.273 22.26 148.5 21.9C148.74 21.5267 149.04 21.2267 149.4 21C149.773 20.7733 150.193 20.6133 150.66 20.52C151.14 20.4133 151.62 20.36 152.1 20.36C152.753 20.36 153.393 20.4333 154.02 20.58V20.12C154.02 19.84 153.987 19.5733 153.92 19.32C153.867 19.0533 153.753 18.8133 153.58 18.6C153.42 18.3867 153.193 18.22 152.9 18.1C152.62 17.9667 152.253 17.9 151.8 17.9C151.227 17.9 150.727 17.94 150.3 18.02C149.873 18.1 149.547 18.18 149.32 18.26L149.12 16.9C149.347 16.7933 149.72 16.7 150.24 16.62C150.773 16.54 151.34 16.5 151.94 16.5ZM158.42 16.98C159.02 16.8333 159.613 16.72 160.2 16.64C160.8 16.56 161.36 16.52 161.88 16.52C163.12 16.52 164.053 16.84 164.68 17.48C165.32 18.12 165.64 19.1467 165.64 20.56V26H164V20.86C164 20.26 163.947 19.7733 163.84 19.4C163.733 19.0267 163.58 18.74 163.38 18.54C163.193 18.3267 162.96 18.18 162.68 18.1C162.413 18.02 162.12 17.98 161.8 17.98C161.533 17.98 161.247 18 160.94 18.04C160.647 18.0667 160.36 18.1067 160.08 18.16V26H158.42V16.98ZM167.98 21.38C167.98 20.54 168.113 19.8133 168.38 19.2C168.647 18.5867 169.013 18.08 169.48 17.68C169.947 17.28 170.487 16.9867 171.1 16.8C171.727 16.6 172.393 16.5 173.1 16.5C173.553 16.5 174 16.5333 174.44 16.6C174.893 16.6533 175.373 16.76 175.88 16.92L175.5 18.34C175.06 18.18 174.653 18.08 174.28 18.04C173.92 17.9867 173.553 17.96 173.18 17.96C172.7 17.96 172.247 18.0267 171.82 18.16C171.393 18.28 171.02 18.48 170.7 18.76C170.393 19.0267 170.147 19.38 169.96 19.82C169.773 20.2467 169.68 20.7667 169.68 21.38C169.68 21.9667 169.767 22.4733 169.94 22.9C170.113 23.3133 170.353 23.66 170.66 23.94C170.98 24.2067 171.36 24.4067 171.8 24.54C172.24 24.6733 172.727 24.74 173.26 24.74C173.687 24.74 174.093 24.72 174.48 24.68C174.88 24.6267 175.313 24.52 175.78 24.36L176.02 25.74C175.553 25.9133 175.08 26.0333 174.6 26.1C174.12 26.18 173.6 26.22 173.04 26.22C172.293 26.22 171.607 26.12 170.98 25.92C170.367 25.7067 169.833 25.4 169.38 25C168.94 24.6 168.593 24.1 168.34 23.5C168.1 22.8867 167.98 22.18 167.98 21.38ZM182.18 16.5C183.433 16.5 184.4 16.8933 185.08 17.68C185.76 18.4533 186.1 19.6333 186.1 21.22V21.8H179.46C179.527 22.76 179.84 23.4933 180.4 24C180.973 24.4933 181.773 24.74 182.8 24.74C183.387 24.74 183.887 24.6933 184.3 24.6C184.713 24.5067 185.027 24.4067 185.24 24.3L185.46 25.7C185.26 25.8067 184.9 25.92 184.38 26.04C183.86 26.16 183.273 26.22 182.62 26.22C181.82 26.22 181.113 26.1 180.5 25.86C179.9 25.6067 179.4 25.2667 179 24.84C178.6 24.4133 178.3 23.9067 178.1 23.32C177.9 22.72 177.8 22.0733 177.8 21.38C177.8 20.5533 177.927 19.8333 178.18 19.22C178.433 18.6067 178.767 18.1 179.18 17.7C179.593 17.3 180.06 17 180.58 16.8C181.1 16.6 181.633 16.5 182.18 16.5ZM184.42 20.46C184.42 19.6733 184.213 19.0533 183.8 18.6C183.387 18.1333 182.84 17.9 182.16 17.9C181.773 17.9 181.42 17.9733 181.1 18.12C180.793 18.2667 180.527 18.46 180.3 18.7C180.073 18.94 179.893 19.2133 179.76 19.52C179.627 19.8267 179.54 20.14 179.5 20.46H184.42Z" fill="#00E430"/>
<path d="M74.68 359C74.5333 358.64 74.36 358.233 74.16 357.78C73.96 357.327 73.7467 356.86 73.52 356.38C73.2933 355.9 73.0467 355.42 72.78 354.94C72.5267 354.46 72.26 354.013 71.98 353.6C71.5133 354.347 71.0467 355.207 70.58 356.18C70.1133 357.14 69.68 358.08 69.28 359H67.5C67.94 358.013 68.4533 356.947 69.04 355.8C69.6267 354.64 70.2533 353.527 70.92 352.46L67.7 346.62H69.52L71.94 351.36L74.54 346.62H76.32L73.04 352.4C73.68 353.44 74.3 354.52 74.9 355.64C75.5 356.76 76.0333 357.88 76.5 359H74.68Z" fill="#00E430"/>
<path d="M141.2 359V354.4C140.387 353.067 139.647 351.767 138.98 350.5C138.327 349.233 137.753 347.94 137.26 346.62H139.1C139.487 347.74 139.927 348.813 140.42 349.84C140.927 350.853 141.467 351.9 142.04 352.98C142.653 351.847 143.193 350.773 143.66 349.76C144.14 348.733 144.573 347.687 144.96 346.62H146.76C146.253 347.927 145.673 349.2 145.02 350.44C144.367 351.68 143.64 352.987 142.84 354.36V359H141.2Z" fill="#00E430"/>
<path d="M133.482 215.855C133.954 216.141 134.569 215.991 134.855 215.518L139.52 207.822C139.806 207.349 139.655 206.734 139.183 206.448C138.711 206.162 138.096 206.313 137.81 206.785L133.663 213.626L126.822 209.48C126.349 209.194 125.734 209.345 125.448 209.817C125.162 210.289 125.313 210.904 125.785 211.19L133.482 215.855ZM120.029 162.238L133.029 215.238L134.971 214.762L121.971 161.762L120.029 162.238Z" fill="white"/>
<path d="M79.0187 215.807C78.9123 216.349 79.2653 216.875 79.8073 216.981L88.6385 218.716C89.1804 218.822 89.706 218.469 89.8125 217.927C89.9189 217.386 89.5659 216.86 89.024 216.753L81.174 215.211L82.716 207.362C82.8224 206.82 82.4694 206.294 81.9274 206.188C81.3855 206.081 80.8599 206.434 80.7535 206.976L79.0187 215.807ZM146.442 170.17L79.4424 215.17L80.5576 216.83L147.558 171.83L146.442 170.17Z" fill="white"/>
<path d="M64.261 218.674C64.6331 219.082 65.2656 219.111 65.6738 218.739L72.3244 212.675C72.7325 212.303 72.7617 211.671 72.3896 211.262C72.0175 210.854 71.385 210.825 70.9768 211.197L65.0652 216.587L59.6752 210.676C59.3031 210.268 58.6706 210.238 58.2625 210.61C57.8543 210.983 57.8252 211.615 58.1973 212.023L64.261 218.674ZM67.0011 152.954L64.0011 217.954L65.9989 218.046L68.9989 153.046L67.0011 152.954Z" fill="white"/>
<path d="M121.148 105.989C121.694 105.907 122.071 105.398 121.989 104.852L120.659 95.951C120.577 95.4048 120.068 95.0282 119.522 95.1098C118.976 95.1914 118.599 95.7004 118.681 96.2466L119.863 104.159L111.951 105.341C111.405 105.423 111.028 105.932 111.11 106.478C111.191 107.024 111.7 107.401 112.247 107.319L121.148 105.989ZM70.4052 68.8038L120.405 105.804L121.595 104.196L71.5948 67.1962L70.4052 68.8038Z" fill="white"/>
<path d="M40.808 146.304C41.312 146.304 41.696 146.208 41.96 146.016C42.224 145.824 42.356 145.536 42.356 145.152C42.356 144.92 42.308 144.724 42.212 144.564C42.116 144.396 41.988 144.252 41.828 144.132C41.668 144.004 41.488 143.896 41.288 143.808C41.088 143.712 40.884 143.624 40.676 143.544C40.436 143.448 40.204 143.34 39.98 143.22C39.764 143.1 39.568 142.96 39.392 142.8C39.224 142.64 39.088 142.452 38.984 142.236C38.888 142.02 38.84 141.764 38.84 141.468C38.84 140.82 39.044 140.316 39.452 139.956C39.86 139.588 40.428 139.404 41.156 139.404C41.356 139.404 41.552 139.42 41.744 139.452C41.944 139.476 42.128 139.508 42.296 139.548C42.464 139.588 42.612 139.636 42.74 139.692C42.876 139.748 42.984 139.804 43.064 139.86L42.752 140.688C42.592 140.592 42.372 140.496 42.092 140.4C41.812 140.304 41.5 140.256 41.156 140.256C40.796 140.256 40.484 140.348 40.22 140.532C39.956 140.708 39.824 140.976 39.824 141.336C39.824 141.544 39.86 141.72 39.932 141.864C40.012 142.008 40.116 142.136 40.244 142.248C40.38 142.352 40.536 142.448 40.712 142.536C40.888 142.624 41.08 142.712 41.288 142.8C41.592 142.928 41.868 143.056 42.116 143.184C42.372 143.312 42.588 143.464 42.764 143.64C42.948 143.816 43.088 144.024 43.184 144.264C43.288 144.504 43.34 144.796 43.34 145.14C43.34 145.788 43.12 146.288 42.68 146.64C42.248 146.984 41.624 147.156 40.808 147.156C40.544 147.156 40.296 147.136 40.064 147.096C39.832 147.064 39.624 147.02 39.44 146.964C39.264 146.908 39.108 146.852 38.972 146.796C38.836 146.74 38.732 146.688 38.66 146.64L38.96 145.824C39.12 145.912 39.356 146.016 39.668 146.136C39.98 146.248 40.36 146.304 40.808 146.304ZM46.508 140.568C46.3 140.568 46.12 140.496 45.968 140.352C45.816 140.208 45.74 140.012 45.74 139.764C45.74 139.516 45.816 139.32 45.968 139.176C46.12 139.032 46.3 138.96 46.508 138.96C46.724 138.96 46.904 139.032 47.048 139.176C47.2 139.32 47.276 139.516 47.276 139.764C47.276 140.012 47.2 140.208 47.048 140.352C46.904 140.496 46.724 140.568 46.508 140.568ZM46.256 142.26H44.648V141.432H47.24V144.852C47.24 145.404 47.316 145.776 47.468 145.968C47.62 146.152 47.848 146.244 48.152 146.244C48.384 146.244 48.596 146.216 48.788 146.16C48.988 146.104 49.144 146.044 49.256 145.98L49.4 146.82C49.352 146.844 49.284 146.876 49.196 146.916C49.108 146.948 49.004 146.98 48.884 147.012C48.772 147.044 48.644 147.072 48.5 147.096C48.364 147.12 48.22 147.132 48.068 147.132C47.716 147.132 47.424 147.084 47.192 146.988C46.96 146.892 46.772 146.748 46.628 146.556C46.492 146.364 46.396 146.128 46.34 145.848C46.284 145.56 46.256 145.228 46.256 144.852V142.26ZM50.852 141.588C51.212 141.5 51.568 141.432 51.92 141.384C52.28 141.336 52.616 141.312 52.928 141.312C53.672 141.312 54.232 141.504 54.608 141.888C54.992 142.272 55.184 142.888 55.184 143.736V147H54.2V143.916C54.2 143.556 54.168 143.264 54.104 143.04C54.04 142.816 53.948 142.644 53.828 142.524C53.716 142.396 53.576 142.308 53.408 142.26C53.248 142.212 53.072 142.188 52.88 142.188C52.72 142.188 52.548 142.2 52.364 142.224C52.188 142.24 52.016 142.264 51.848 142.296V147H50.852V141.588ZM60.608 139.308C59.864 139.884 59.296 140.548 58.904 141.3C58.512 142.052 58.316 142.872 58.316 143.76C58.316 144.208 58.36 144.632 58.448 145.032C58.544 145.432 58.684 145.816 58.868 146.184C59.06 146.552 59.3 146.908 59.588 147.252C59.884 147.596 60.232 147.94 60.632 148.284L60.092 149.004C59.172 148.324 58.484 147.536 58.028 146.64C57.58 145.736 57.356 144.784 57.356 143.784C57.356 142.792 57.584 141.844 58.04 140.94C58.496 140.036 59.18 139.252 60.092 138.588L60.62 139.308H60.608ZM66.848 147L66.404 145.056H63.548L63.116 147H62.108C62.244 146.472 62.396 145.9 62.564 145.284C62.732 144.668 62.912 144.036 63.104 143.388C63.304 142.74 63.512 142.092 63.728 141.444C63.944 140.788 64.172 140.164 64.412 139.572H65.636C65.868 140.164 66.088 140.788 66.296 141.444C66.512 142.092 66.712 142.74 66.896 143.388C67.088 144.036 67.268 144.668 67.436 145.284C67.604 145.9 67.756 146.472 67.892 147H66.848ZM64.988 140.436C64.804 140.94 64.604 141.524 64.388 142.188C64.172 142.852 63.968 143.536 63.776 144.24H66.176C65.992 143.52 65.792 142.828 65.576 142.164C65.368 141.492 65.172 140.916 64.988 140.436ZM68.852 141.588C69.212 141.5 69.568 141.432 69.92 141.384C70.28 141.336 70.616 141.312 70.928 141.312C71.672 141.312 72.232 141.504 72.608 141.888C72.992 142.272 73.184 142.888 73.184 143.736V147H72.2V143.916C72.2 143.556 72.168 143.264 72.104 143.04C72.04 142.816 71.948 142.644 71.828 142.524C71.716 142.396 71.576 142.308 71.408 142.26C71.248 142.212 71.072 142.188 70.88 142.188C70.72 142.188 70.548 142.2 70.364 142.224C70.188 142.24 70.016 142.264 69.848 142.296V147H68.852V141.588ZM78.152 146.484C78.04 146.548 77.868 146.616 77.636 146.688C77.404 146.76 77.136 146.796 76.832 146.796C76.504 146.796 76.196 146.744 75.908 146.64C75.628 146.528 75.38 146.364 75.164 146.148C74.956 145.924 74.788 145.644 74.66 145.308C74.54 144.964 74.48 144.56 74.48 144.096C74.48 143.688 74.536 143.316 74.648 142.98C74.768 142.636 74.936 142.34 75.152 142.092C75.376 141.844 75.648 141.652 75.968 141.516C76.288 141.372 76.652 141.3 77.06 141.3C77.54 141.3 77.948 141.336 78.284 141.408C78.628 141.472 78.916 141.536 79.148 141.6V146.568C79.148 147.432 78.928 148.056 78.488 148.44C78.056 148.824 77.4 149.016 76.52 149.016C76.16 149.016 75.832 148.988 75.536 148.932C75.248 148.876 74.992 148.808 74.768 148.728L74.948 147.852C75.156 147.94 75.392 148.012 75.656 148.068C75.928 148.124 76.224 148.152 76.544 148.152C77.12 148.152 77.532 148.036 77.78 147.804C78.028 147.572 78.152 147.196 78.152 146.676V146.484ZM78.152 142.308C78.056 142.276 77.924 142.248 77.756 142.224C77.588 142.192 77.36 142.176 77.072 142.176C76.56 142.176 76.168 142.352 75.896 142.704C75.632 143.056 75.5 143.524 75.5 144.108C75.5 144.428 75.536 144.704 75.608 144.936C75.688 145.16 75.792 145.348 75.92 145.5C76.056 145.644 76.208 145.752 76.376 145.824C76.544 145.888 76.724 145.92 76.916 145.92C77.164 145.92 77.396 145.884 77.612 145.812C77.836 145.74 78.016 145.656 78.152 145.56V142.308ZM84.056 147.132C83.704 147.132 83.412 147.084 83.18 146.988C82.948 146.892 82.764 146.748 82.628 146.556C82.492 146.364 82.396 146.128 82.34 145.848C82.284 145.56 82.256 145.228 82.256 144.852V139.584H80.648V138.744H83.24V144.852C83.24 145.132 83.256 145.36 83.288 145.536C83.328 145.712 83.384 145.856 83.456 145.968C83.536 146.072 83.632 146.144 83.744 146.184C83.856 146.224 83.988 146.244 84.14 146.244C84.372 146.244 84.588 146.216 84.788 146.16C84.988 146.104 85.144 146.044 85.256 145.98L85.4 146.82C85.352 146.844 85.284 146.876 85.196 146.916C85.108 146.948 85.004 146.98 84.884 147.012C84.764 147.044 84.632 147.072 84.488 147.096C84.352 147.12 84.208 147.132 84.056 147.132ZM89.108 141.3C89.86 141.3 90.44 141.536 90.848 142.008C91.256 142.472 91.46 143.18 91.46 144.132V144.48H87.476C87.516 145.056 87.704 145.496 88.04 145.8C88.384 146.096 88.864 146.244 89.48 146.244C89.832 146.244 90.132 146.216 90.38 146.16C90.628 146.104 90.816 146.044 90.944 145.98L91.076 146.82C90.956 146.884 90.74 146.952 90.428 147.024C90.116 147.096 89.764 147.132 89.372 147.132C88.892 147.132 88.468 147.06 88.1 146.916C87.74 146.764 87.44 146.56 87.2 146.304C86.96 146.048 86.78 145.744 86.66 145.392C86.54 145.032 86.48 144.644 86.48 144.228C86.48 143.732 86.556 143.3 86.708 142.932C86.86 142.564 87.06 142.26 87.308 142.02C87.556 141.78 87.836 141.6 88.148 141.48C88.46 141.36 88.78 141.3 89.108 141.3ZM90.452 143.676C90.452 143.204 90.328 142.832 90.08 142.56C89.832 142.28 89.504 142.14 89.096 142.14C88.864 142.14 88.652 142.184 88.46 142.272C88.276 142.36 88.116 142.476 87.98 142.62C87.844 142.764 87.736 142.928 87.656 143.112C87.576 143.296 87.524 143.484 87.5 143.676H90.452ZM93.38 148.284C94.124 147.708 94.692 147.044 95.084 146.292C95.484 145.54 95.684 144.72 95.684 143.832C95.684 143.384 95.636 142.96 95.54 142.56C95.452 142.16 95.312 141.776 95.12 141.408C94.928 141.04 94.684 140.684 94.388 140.34C94.1 139.996 93.756 139.652 93.356 139.308L93.896 138.588C94.816 139.268 95.5 140.06 95.948 140.964C96.404 141.86 96.632 142.808 96.632 143.808C96.632 144.304 96.572 144.792 96.452 145.272C96.34 145.752 96.168 146.216 95.936 146.664C95.712 147.104 95.428 147.52 95.084 147.912C94.748 148.312 94.352 148.676 93.896 149.004L93.368 148.284H93.38Z" fill="#00E430"/>
<path d="M95.52 157.688C95.24 157.848 94.94 157.964 94.62 158.036C94.308 158.116 93.972 158.156 93.612 158.156C93.172 158.156 92.764 158.08 92.388 157.928C92.02 157.768 91.7 157.532 91.428 157.22C91.156 156.9 90.94 156.496 90.78 156.008C90.628 155.52 90.552 154.944 90.552 154.28C90.552 153.648 90.632 153.092 90.792 152.612C90.96 152.132 91.184 151.728 91.464 151.4C91.744 151.072 92.072 150.824 92.448 150.656C92.824 150.488 93.224 150.404 93.648 150.404C93.944 150.404 94.244 150.444 94.548 150.524C94.86 150.604 95.164 150.736 95.46 150.92L95.172 151.736C94.644 151.432 94.148 151.28 93.684 151.28C93.356 151.28 93.06 151.352 92.796 151.496C92.54 151.632 92.32 151.832 92.136 152.096C91.952 152.36 91.808 152.676 91.704 153.044C91.608 153.412 91.56 153.824 91.56 154.28C91.56 154.792 91.612 155.236 91.716 155.612C91.828 155.988 91.98 156.3 92.172 156.548C92.364 156.796 92.592 156.98 92.856 157.1C93.128 157.22 93.42 157.28 93.732 157.28C93.964 157.28 94.208 157.252 94.464 157.196C94.72 157.132 94.984 157.024 95.256 156.872L95.52 157.688ZM101.52 155.216C101.52 155.656 101.456 156.056 101.328 156.416C101.208 156.768 101.036 157.072 100.812 157.328C100.588 157.584 100.32 157.784 100.008 157.928C99.696 158.064 99.356 158.132 98.988 158.132C98.628 158.132 98.292 158.064 97.98 157.928C97.676 157.784 97.412 157.584 97.188 157.328C96.964 157.072 96.788 156.768 96.66 156.416C96.54 156.056 96.48 155.656 96.48 155.216C96.48 154.776 96.54 154.376 96.66 154.016C96.788 153.656 96.964 153.352 97.188 153.104C97.412 152.848 97.676 152.652 97.98 152.516C98.292 152.372 98.628 152.3 98.988 152.3C99.356 152.3 99.696 152.372 100.008 152.516C100.32 152.652 100.588 152.848 100.812 153.104C101.036 153.352 101.208 153.656 101.328 154.016C101.456 154.376 101.52 154.776 101.52 155.216ZM100.5 155.216C100.5 154.584 100.364 154.088 100.092 153.728C99.82 153.36 99.452 153.176 98.988 153.176C98.532 153.176 98.168 153.36 97.896 153.728C97.632 154.088 97.5 154.584 97.5 155.216C97.5 155.84 97.632 156.336 97.896 156.704C98.168 157.064 98.532 157.244 98.988 157.244C99.452 157.244 99.82 157.064 100.092 156.704C100.364 156.336 100.5 155.84 100.5 155.216ZM106.212 156.608C106.212 156.408 106.128 156.244 105.96 156.116C105.8 155.988 105.596 155.876 105.348 155.78C105.108 155.684 104.844 155.592 104.556 155.504C104.268 155.408 104 155.292 103.752 155.156C103.512 155.02 103.308 154.852 103.14 154.652C102.98 154.452 102.9 154.192 102.9 153.872C102.9 153.424 103.08 153.052 103.44 152.756C103.808 152.452 104.38 152.3 105.156 152.3C105.46 152.3 105.772 152.324 106.092 152.372C106.42 152.412 106.7 152.468 106.932 152.54L106.752 153.428C106.688 153.396 106.6 153.364 106.488 153.332C106.376 153.292 106.248 153.26 106.104 153.236C105.96 153.204 105.804 153.18 105.636 153.164C105.476 153.148 105.32 153.14 105.168 153.14C104.304 153.14 103.872 153.376 103.872 153.848C103.872 154.016 103.952 154.16 104.112 154.28C104.28 154.392 104.488 154.496 104.736 154.592C104.984 154.688 105.252 154.788 105.54 154.892C105.828 154.988 106.096 155.108 106.344 155.252C106.592 155.396 106.796 155.572 106.956 155.78C107.124 155.98 107.208 156.236 107.208 156.548C107.208 157.052 107.012 157.444 106.62 157.724C106.228 157.996 105.608 158.132 104.76 158.132C104.376 158.132 104.024 158.1 103.704 158.036C103.384 157.972 103.08 157.876 102.792 157.748L102.984 156.848C103.264 156.976 103.556 157.084 103.86 157.172C104.172 157.252 104.504 157.292 104.856 157.292C105.76 157.292 106.212 157.064 106.212 156.608ZM112.608 150.308C111.864 150.884 111.296 151.548 110.904 152.3C110.512 153.052 110.316 153.872 110.316 154.76C110.316 155.208 110.36 155.632 110.448 156.032C110.544 156.432 110.684 156.816 110.868 157.184C111.06 157.552 111.3 157.908 111.588 158.252C111.884 158.596 112.232 158.94 112.632 159.284L112.092 160.004C111.172 159.324 110.484 158.536 110.028 157.64C109.58 156.736 109.356 155.784 109.356 154.784C109.356 153.792 109.584 152.844 110.04 151.94C110.496 151.036 111.18 150.252 112.092 149.588L112.62 150.308H112.608ZM118.848 158L118.404 156.056H115.548L115.116 158H114.108C114.244 157.472 114.396 156.9 114.564 156.284C114.732 155.668 114.912 155.036 115.104 154.388C115.304 153.74 115.512 153.092 115.728 152.444C115.944 151.788 116.172 151.164 116.412 150.572H117.636C117.868 151.164 118.088 151.788 118.296 152.444C118.512 153.092 118.712 153.74 118.896 154.388C119.088 155.036 119.268 155.668 119.436 156.284C119.604 156.9 119.756 157.472 119.892 158H118.848ZM116.988 151.436C116.804 151.94 116.604 152.524 116.388 153.188C116.172 153.852 115.968 154.536 115.776 155.24H118.176C117.992 154.52 117.792 153.828 117.576 153.164C117.368 152.492 117.172 151.916 116.988 151.436ZM120.852 152.588C121.212 152.5 121.568 152.432 121.92 152.384C122.28 152.336 122.616 152.312 122.928 152.312C123.672 152.312 124.232 152.504 124.608 152.888C124.992 153.272 125.184 153.888 125.184 154.736V158H124.2V154.916C124.2 154.556 124.168 154.264 124.104 154.04C124.04 153.816 123.948 153.644 123.828 153.524C123.716 153.396 123.576 153.308 123.408 153.26C123.248 153.212 123.072 153.188 122.88 153.188C122.72 153.188 122.548 153.2 122.364 153.224C122.188 153.24 122.016 153.264 121.848 153.296V158H120.852V152.588ZM130.152 157.484C130.04 157.548 129.868 157.616 129.636 157.688C129.404 157.76 129.136 157.796 128.832 157.796C128.504 157.796 128.196 157.744 127.908 157.64C127.628 157.528 127.38 157.364 127.164 157.148C126.956 156.924 126.788 156.644 126.66 156.308C126.54 155.964 126.48 155.56 126.48 155.096C126.48 154.688 126.536 154.316 126.648 153.98C126.768 153.636 126.936 153.34 127.152 153.092C127.376 152.844 127.648 152.652 127.968 152.516C128.288 152.372 128.652 152.3 129.06 152.3C129.54 152.3 129.948 152.336 130.284 152.408C130.628 152.472 130.916 152.536 131.148 152.6V157.568C131.148 158.432 130.928 159.056 130.488 159.44C130.056 159.824 129.4 160.016 128.52 160.016C128.16 160.016 127.832 159.988 127.536 159.932C127.248 159.876 126.992 159.808 126.768 159.728L126.948 158.852C127.156 158.94 127.392 159.012 127.656 159.068C127.928 159.124 128.224 159.152 128.544 159.152C129.12 159.152 129.532 159.036 129.78 158.804C130.028 158.572 130.152 158.196 130.152 157.676V157.484ZM130.152 153.308C130.056 153.276 129.924 153.248 129.756 153.224C129.588 153.192 129.36 153.176 129.072 153.176C128.56 153.176 128.168 153.352 127.896 153.704C127.632 154.056 127.5 154.524 127.5 155.108C127.5 155.428 127.536 155.704 127.608 155.936C127.688 156.16 127.792 156.348 127.92 156.5C128.056 156.644 128.208 156.752 128.376 156.824C128.544 156.888 128.724 156.92 128.916 156.92C129.164 156.92 129.396 156.884 129.612 156.812C129.836 156.74 130.016 156.656 130.152 156.56V153.308ZM136.056 158.132C135.704 158.132 135.412 158.084 135.18 157.988C134.948 157.892 134.764 157.748 134.628 157.556C134.492 157.364 134.396 157.128 134.34 156.848C134.284 156.56 134.256 156.228 134.256 155.852V150.584H132.648V149.744H135.24V155.852C135.24 156.132 135.256 156.36 135.288 156.536C135.328 156.712 135.384 156.856 135.456 156.968C135.536 157.072 135.632 157.144 135.744 157.184C135.856 157.224 135.988 157.244 136.14 157.244C136.372 157.244 136.588 157.216 136.788 157.16C136.988 157.104 137.144 157.044 137.256 156.98L137.4 157.82C137.352 157.844 137.284 157.876 137.196 157.916C137.108 157.948 137.004 157.98 136.884 158.012C136.764 158.044 136.632 158.072 136.488 158.096C136.352 158.12 136.208 158.132 136.056 158.132ZM141.108 152.3C141.86 152.3 142.44 152.536 142.848 153.008C143.256 153.472 143.46 154.18 143.46 155.132V155.48H139.476C139.516 156.056 139.704 156.496 140.04 156.8C140.384 157.096 140.864 157.244 141.48 157.244C141.832 157.244 142.132 157.216 142.38 157.16C142.628 157.104 142.816 157.044 142.944 156.98L143.076 157.82C142.956 157.884 142.74 157.952 142.428 158.024C142.116 158.096 141.764 158.132 141.372 158.132C140.892 158.132 140.468 158.06 140.1 157.916C139.74 157.764 139.44 157.56 139.2 157.304C138.96 157.048 138.78 156.744 138.66 156.392C138.54 156.032 138.48 155.644 138.48 155.228C138.48 154.732 138.556 154.3 138.708 153.932C138.86 153.564 139.06 153.26 139.308 153.02C139.556 152.78 139.836 152.6 140.148 152.48C140.46 152.36 140.78 152.3 141.108 152.3ZM142.452 154.676C142.452 154.204 142.328 153.832 142.08 153.56C141.832 153.28 141.504 153.14 141.096 153.14C140.864 153.14 140.652 153.184 140.46 153.272C140.276 153.36 140.116 153.476 139.98 153.62C139.844 153.764 139.736 153.928 139.656 154.112C139.576 154.296 139.524 154.484 139.5 154.676H142.452ZM145.38 159.284C146.124 158.708 146.692 158.044 147.084 157.292C147.484 156.54 147.684 155.72 147.684 154.832C147.684 154.384 147.636 153.96 147.54 153.56C147.452 153.16 147.312 152.776 147.12 152.408C146.928 152.04 146.684 151.684 146.388 151.34C146.1 150.996 145.756 150.652 145.356 150.308L145.896 149.588C146.816 150.268 147.5 151.06 147.948 151.964C148.404 152.86 148.632 153.808 148.632 154.808C148.632 155.304 148.572 155.792 148.452 156.272C148.34 156.752 148.168 157.216 147.936 157.664C147.712 158.104 147.428 158.52 147.084 158.912C146.748 159.312 146.352 159.676 145.896 160.004L145.368 159.284H145.38Z" fill="#00E430"/>
<path d="M63.04 107L62.67 105.38H60.29L59.93 107H59.09C59.2033 106.56 59.33 106.083 59.47 105.57C59.61 105.057 59.76 104.53 59.92 103.99C60.0867 103.45 60.26 102.91 60.44 102.37C60.62 101.823 60.81 101.303 61.01 100.81H62.03C62.2233 101.303 62.4067 101.823 62.58 102.37C62.76 102.91 62.9267 103.45 63.08 103.99C63.24 104.53 63.39 105.057 63.53 105.57C63.67 106.083 63.7967 106.56 63.91 107H63.04ZM61.49 101.53C61.3367 101.95 61.17 102.437 60.99 102.99C60.81 103.543 60.64 104.113 60.48 104.7H62.48C62.3267 104.1 62.16 103.523 61.98 102.97C61.8067 102.41 61.6433 101.93 61.49 101.53ZM64.71 102.49C65.01 102.417 65.3067 102.36 65.6 102.32C65.9 102.28 66.18 102.26 66.44 102.26C67.06 102.26 67.5267 102.42 67.84 102.74C68.16 103.06 68.32 103.573 68.32 104.28V107H67.5V104.43C67.5 104.13 67.4733 103.887 67.42 103.7C67.3667 103.513 67.29 103.37 67.19 103.27C67.0967 103.163 66.98 103.09 66.84 103.05C66.7067 103.01 66.56 102.99 66.4 102.99C66.2667 102.99 66.1233 103 65.97 103.02C65.8233 103.033 65.68 103.053 65.54 103.08V107H64.71V102.49ZM72.46 106.57C72.3667 106.623 72.2233 106.68 72.03 106.74C71.8367 106.8 71.6133 106.83 71.36 106.83C71.0867 106.83 70.83 106.787 70.59 106.7C70.3567 106.607 70.15 106.47 69.97 106.29C69.7967 106.103 69.6567 105.87 69.55 105.59C69.45 105.303 69.4 104.967 69.4 104.58C69.4 104.24 69.4467 103.93 69.54 103.65C69.64 103.363 69.78 103.117 69.96 102.91C70.1467 102.703 70.3733 102.543 70.64 102.43C70.9067 102.31 71.21 102.25 71.55 102.25C71.95 102.25 72.29 102.28 72.57 102.34C72.8567 102.393 73.0967 102.447 73.29 102.5V106.64C73.29 107.36 73.1067 107.88 72.74 108.2C72.38 108.52 71.8333 108.68 71.1 108.68C70.8 108.68 70.5267 108.657 70.28 108.61C70.04 108.563 69.8267 108.507 69.64 108.44L69.79 107.71C69.9633 107.783 70.16 107.843 70.38 107.89C70.6067 107.937 70.8533 107.96 71.12 107.96C71.6 107.96 71.9433 107.863 72.15 107.67C72.3567 107.477 72.46 107.163 72.46 106.73V106.57ZM72.46 103.09C72.38 103.063 72.27 103.04 72.13 103.02C71.99 102.993 71.8 102.98 71.56 102.98C71.1333 102.98 70.8067 103.127 70.58 103.42C70.36 103.713 70.25 104.103 70.25 104.59C70.25 104.857 70.28 105.087 70.34 105.28C70.4067 105.467 70.4933 105.623 70.6 105.75C70.7133 105.87 70.84 105.96 70.98 106.02C71.12 106.073 71.27 106.1 71.43 106.1C71.6367 106.1 71.83 106.07 72.01 106.01C72.1967 105.95 72.3467 105.88 72.46 105.8V103.09ZM77.38 107.11C77.0867 107.11 76.8433 107.07 76.65 106.99C76.4567 106.91 76.3033 106.79 76.19 106.63C76.0767 106.47 75.9967 106.273 75.95 106.04C75.9033 105.8 75.88 105.523 75.88 105.21V100.82H74.54V100.12H76.7V105.21C76.7 105.443 76.7133 105.633 76.74 105.78C76.7733 105.927 76.82 106.047 76.88 106.14C76.9467 106.227 77.0267 106.287 77.12 106.32C77.2133 106.353 77.3233 106.37 77.45 106.37C77.6433 106.37 77.8233 106.347 77.99 106.3C78.1567 106.253 78.2867 106.203 78.38 106.15L78.5 106.85C78.46 106.87 78.4033 106.897 78.33 106.93C78.2567 106.957 78.17 106.983 78.07 107.01C77.97 107.037 77.86 107.06 77.74 107.08C77.6267 107.1 77.5067 107.11 77.38 107.11ZM81.59 102.25C82.2167 102.25 82.7 102.447 83.04 102.84C83.38 103.227 83.55 103.817 83.55 104.61V104.9H80.23C80.2633 105.38 80.42 105.747 80.7 106C80.9867 106.247 81.3867 106.37 81.9 106.37C82.1933 106.37 82.4433 106.347 82.65 106.3C82.8567 106.253 83.0133 106.203 83.12 106.15L83.23 106.85C83.13 106.903 82.95 106.96 82.69 107.02C82.43 107.08 82.1367 107.11 81.81 107.11C81.41 107.11 81.0567 107.05 80.75 106.93C80.45 106.803 80.2 106.633 80 106.42C79.8 106.207 79.65 105.953 79.55 105.66C79.45 105.36 79.4 105.037 79.4 104.69C79.4 104.277 79.4633 103.917 79.59 103.61C79.7167 103.303 79.8833 103.05 80.09 102.85C80.2967 102.65 80.53 102.5 80.79 102.4C81.05 102.3 81.3167 102.25 81.59 102.25ZM82.71 104.23C82.71 103.837 82.6067 103.527 82.4 103.3C82.1933 103.067 81.92 102.95 81.58 102.95C81.3867 102.95 81.21 102.987 81.05 103.06C80.8967 103.133 80.7633 103.23 80.65 103.35C80.5367 103.47 80.4467 103.607 80.38 103.76C80.3133 103.913 80.27 104.07 80.25 104.23H82.71Z" fill="#00E430"/>
<path d="M65.32 119.1C65.5267 119.1 65.6967 119.08 65.83 119.04C65.97 118.993 66.08 118.933 66.16 118.86C66.24 118.78 66.2933 118.693 66.32 118.6C66.3533 118.5 66.37 118.4 66.37 118.3C66.37 118.173 66.3333 118.06 66.26 117.96C66.1867 117.86 66.0933 117.773 65.98 117.7C65.8667 117.62 65.74 117.55 65.6 117.49C65.46 117.423 65.32 117.363 65.18 117.31C64.9933 117.243 64.8 117.167 64.6 117.08C64.4 116.993 64.2167 116.883 64.05 116.75C63.89 116.617 63.7567 116.453 63.65 116.26C63.5433 116.06 63.49 115.813 63.49 115.52C63.49 114.94 63.6767 114.487 64.05 114.16C64.43 113.833 64.95 113.67 65.61 113.67C65.99 113.67 66.32 113.713 66.6 113.8C66.8867 113.887 67.1267 113.983 67.32 114.09L66.96 115.04C66.7933 114.947 66.6067 114.867 66.4 114.8C66.2 114.733 65.9667 114.7 65.7 114.7C65.0467 114.7 64.72 114.937 64.72 115.41C64.72 115.53 64.7533 115.637 64.82 115.73C64.8867 115.817 64.97 115.897 65.07 115.97C65.1767 116.037 65.2933 116.097 65.42 116.15C65.5533 116.203 65.6833 116.253 65.81 116.3C66.0033 116.373 66.2033 116.457 66.41 116.55C66.6233 116.637 66.8167 116.757 66.99 116.91C67.17 117.057 67.3167 117.243 67.43 117.47C67.5433 117.69 67.6 117.97 67.6 118.31C67.6 118.89 67.41 119.34 67.03 119.66C66.6567 119.973 66.0867 120.13 65.32 120.13C64.8067 120.13 64.3967 120.077 64.09 119.97C63.7833 119.857 63.5533 119.753 63.4 119.66L63.76 118.66C63.94 118.767 64.1533 118.867 64.4 118.96C64.6533 119.053 64.96 119.1 65.32 119.1ZM70.84 113.95C70.84 114.19 70.7633 114.38 70.61 114.52C70.4567 114.66 70.2733 114.73 70.06 114.73C69.8467 114.73 69.6633 114.66 69.51 114.52C69.3633 114.38 69.29 114.19 69.29 113.95C69.29 113.703 69.3633 113.51 69.51 113.37C69.6633 113.23 69.8467 113.16 70.06 113.16C70.2733 113.16 70.4567 113.23 70.61 113.37C70.7633 113.51 70.84 113.703 70.84 113.95ZM72.67 119.8C72.4167 119.92 72.1767 120 71.95 120.04C71.73 120.087 71.5267 120.11 71.34 120.11C71.02 120.11 70.75 120.063 70.53 119.97C70.3167 119.877 70.1433 119.743 70.01 119.57C69.8833 119.39 69.7933 119.173 69.74 118.92C69.6867 118.667 69.66 118.377 69.66 118.05V116.32H68.36V115.3H70.89V118.21C70.89 118.49 70.94 118.7 71.04 118.84C71.1467 118.973 71.32 119.04 71.56 119.04C71.6733 119.04 71.81 119.027 71.97 119C72.13 118.967 72.31 118.903 72.51 118.81L72.67 119.8ZM73.63 115.45C73.85 115.39 74.12 115.333 74.44 115.28C74.7667 115.227 75.12 115.2 75.5 115.2C75.8733 115.2 76.1833 115.253 76.43 115.36C76.6767 115.46 76.87 115.607 77.01 115.8C77.1567 115.987 77.26 116.213 77.32 116.48C77.38 116.74 77.41 117.03 77.41 117.35V120H76.18V117.51C76.18 117.07 76.13 116.753 76.03 116.56C75.93 116.367 75.7267 116.27 75.42 116.27C75.3267 116.27 75.2333 116.273 75.14 116.28C75.0533 116.287 74.96 116.297 74.86 116.31V120H73.63V115.45Z" fill="#0079F1"/>
<path d="M51.61 229.81C51.6567 229.95 51.7133 230.13 51.78 230.35C51.8533 230.57 51.93 230.807 52.01 231.06C52.09 231.313 52.17 231.57 52.25 231.83C52.33 232.09 52.4067 232.33 52.48 232.55C52.56 232.303 52.6433 232.05 52.73 231.79C52.8167 231.523 52.9 231.27 52.98 231.03C53.06 230.783 53.1333 230.553 53.2 230.34C53.2667 230.127 53.3267 229.95 53.38 229.81H54.4C54.4467 230.35 54.49 230.877 54.53 231.39C54.5767 231.903 54.6133 232.413 54.64 232.92C54.6733 233.42 54.7 233.927 54.72 234.44C54.74 234.947 54.7567 235.467 54.77 236H53.64L53.7 231.19L52.94 233.81H52.04L51.31 231.19L51.36 236H50.23C50.25 235.493 50.27 234.967 50.29 234.42C50.3167 233.873 50.3433 233.33 50.37 232.79C50.3967 232.25 50.4267 231.727 50.46 231.22C50.5 230.713 50.5433 230.243 50.59 229.81H51.61ZM59.38 235.84C59.1533 235.9 58.8767 235.96 58.55 236.02C58.23 236.08 57.88 236.11 57.5 236.11C57.1133 236.11 56.7967 236.057 56.55 235.95C56.3033 235.843 56.1067 235.693 55.96 235.5C55.82 235.3 55.7233 235.067 55.67 234.8C55.6167 234.533 55.59 234.24 55.59 233.92V231.3H56.82V233.76C56.82 234.193 56.87 234.517 56.97 234.73C57.0767 234.937 57.28 235.04 57.58 235.04C57.7667 235.04 57.9533 235.023 58.14 234.99V231.3H59.38V235.84ZM64.67 235.8C64.65 235.813 64.6033 235.837 64.53 235.87C64.4633 235.903 64.3733 235.94 64.26 235.98C64.1467 236.013 64.0067 236.043 63.84 236.07C63.68 236.097 63.4967 236.11 63.29 236.11C62.7233 236.11 62.31 235.943 62.05 235.61C61.79 235.27 61.66 234.777 61.66 234.13V230.14H60.36V229.12H62.89V234.22C62.89 234.54 62.9533 234.757 63.08 234.87C63.2067 234.983 63.3667 235.04 63.56 235.04C63.8067 235.04 64.0133 235.007 64.18 234.94C64.3467 234.873 64.4567 234.83 64.51 234.81L64.67 235.8ZM66.43 232.32H65.36V231.3H66.43V230.12L67.66 229.92V231.3H69.63V232.32H67.66V234.22C67.66 234.393 67.6767 234.533 67.71 234.64C67.7433 234.747 67.79 234.83 67.85 234.89C67.91 234.95 67.9833 234.99 68.07 235.01C68.1567 235.03 68.2533 235.04 68.36 235.04C68.4733 235.04 68.5767 235.037 68.67 235.03C68.77 235.023 68.8633 235.013 68.95 235C69.0433 234.98 69.1367 234.953 69.23 234.92C69.33 234.887 69.4367 234.843 69.55 234.79L69.72 235.85C69.4933 235.943 69.2467 236.01 68.98 236.05C68.72 236.09 68.4667 236.11 68.22 236.11C67.9333 236.11 67.68 236.087 67.46 236.04C67.24 235.993 67.0533 235.903 66.9 235.77C66.7467 235.637 66.63 235.45 66.55 235.21C66.47 234.963 66.43 234.643 66.43 234.25V232.32ZM72.84 229.95C72.84 230.19 72.7633 230.38 72.61 230.52C72.4567 230.66 72.2733 230.73 72.06 230.73C71.8467 230.73 71.6633 230.66 71.51 230.52C71.3633 230.38 71.29 230.19 71.29 229.95C71.29 229.703 71.3633 229.51 71.51 229.37C71.6633 229.23 71.8467 229.16 72.06 229.16C72.2733 229.16 72.4567 229.23 72.61 229.37C72.7633 229.51 72.84 229.703 72.84 229.95ZM74.67 235.8C74.4167 235.92 74.1767 236 73.95 236.04C73.73 236.087 73.5267 236.11 73.34 236.11C73.02 236.11 72.75 236.063 72.53 235.97C72.3167 235.877 72.1433 235.743 72.01 235.57C71.8833 235.39 71.7933 235.173 71.74 234.92C71.6867 234.667 71.66 234.377 71.66 234.05V232.32H70.36V231.3H72.89V234.21C72.89 234.49 72.94 234.7 73.04 234.84C73.1467 234.973 73.32 235.04 73.56 235.04C73.6733 235.04 73.81 235.027 73.97 235C74.13 234.967 74.31 234.903 74.51 234.81L74.67 235.8ZM78.44 233.69C78.44 233.27 78.3567 232.927 78.19 232.66C78.0233 232.387 77.77 232.25 77.43 232.25C77.3367 232.25 77.2367 232.257 77.13 232.27C77.0233 232.277 76.9333 232.283 76.86 232.29V234.87C76.94 234.923 77.0467 234.967 77.18 235C77.3133 235.033 77.4467 235.05 77.58 235.05C77.8733 235.05 78.09 234.933 78.23 234.7C78.37 234.46 78.44 234.123 78.44 233.69ZM79.69 233.65C79.69 234.01 79.65 234.343 79.57 234.65C79.49 234.95 79.3733 235.21 79.22 235.43C79.0667 235.643 78.8733 235.81 78.64 235.93C78.4067 236.05 78.1367 236.11 77.83 236.11C77.5167 236.11 77.1933 236.033 76.86 235.88V237.65H75.63V231.45C75.8567 231.377 76.1333 231.317 76.46 231.27C76.7933 231.223 77.12 231.2 77.44 231.2C78.1667 231.2 78.7233 231.42 79.11 231.86C79.4967 232.3 79.69 232.897 79.69 233.65ZM84.67 235.8C84.65 235.813 84.6033 235.837 84.53 235.87C84.4633 235.903 84.3733 235.94 84.26 235.98C84.1467 236.013 84.0067 236.043 83.84 236.07C83.68 236.097 83.4967 236.11 83.29 236.11C82.7233 236.11 82.31 235.943 82.05 235.61C81.79 235.27 81.66 234.777 81.66 234.13V230.14H80.36V229.12H82.89V234.22C82.89 234.54 82.9533 234.757 83.08 234.87C83.2067 234.983 83.3667 235.04 83.56 235.04C83.8067 235.04 84.0133 235.007 84.18 234.94C84.3467 234.873 84.4567 234.83 84.51 234.81L84.67 235.8ZM89.72 231.3C89.5933 231.74 89.47 232.173 89.35 232.6C89.2367 233.02 89.1167 233.433 88.99 233.84C88.8633 234.24 88.7267 234.633 88.58 235.02C88.44 235.407 88.2867 235.783 88.12 236.15C87.9933 236.417 87.8667 236.647 87.74 236.84C87.62 237.033 87.4833 237.19 87.33 237.31C87.1833 237.437 87.0167 237.53 86.83 237.59C86.65 237.65 86.4367 237.68 86.19 237.68C85.9833 237.68 85.7933 237.663 85.62 237.63C85.4533 237.597 85.3133 237.553 85.2 237.5L85.43 236.47C85.5633 236.53 85.68 236.57 85.78 236.59C85.8867 236.617 86 236.63 86.12 236.63C86.36 236.63 86.5533 236.55 86.7 236.39C86.8467 236.23 86.9633 236.04 87.05 235.82C86.7567 235.233 86.4633 234.563 86.17 233.81C85.8767 233.05 85.61 232.213 85.37 231.3H86.65C86.71 231.547 86.7767 231.81 86.85 232.09C86.93 232.37 87.0133 232.65 87.1 232.93C87.1867 233.21 87.2767 233.487 87.37 233.76C87.47 234.027 87.57 234.277 87.67 234.51C87.7367 234.277 87.8067 234.027 87.88 233.76C87.9533 233.487 88.0233 233.213 88.09 232.94C88.1567 232.66 88.22 232.38 88.28 232.1C88.3467 231.82 88.4067 231.553 88.46 231.3H89.72Z" fill="#0079F1"/>
<path d="M123.61 229.81C123.657 229.95 123.713 230.13 123.78 230.35C123.853 230.57 123.93 230.807 124.01 231.06C124.09 231.313 124.17 231.57 124.25 231.83C124.33 232.09 124.407 232.33 124.48 232.55C124.56 232.303 124.643 232.05 124.73 231.79C124.817 231.523 124.9 231.27 124.98 231.03C125.06 230.783 125.133 230.553 125.2 230.34C125.267 230.127 125.327 229.95 125.38 229.81H126.4C126.447 230.35 126.49 230.877 126.53 231.39C126.577 231.903 126.613 232.413 126.64 232.92C126.673 233.42 126.7 233.927 126.72 234.44C126.74 234.947 126.757 235.467 126.77 236H125.64L125.7 231.19L124.94 233.81H124.04L123.31 231.19L123.36 236H122.23C122.25 235.493 122.27 234.967 122.29 234.42C122.317 233.873 122.343 233.33 122.37 232.79C122.397 232.25 122.427 231.727 122.46 231.22C122.5 230.713 122.543 230.243 122.59 229.81H123.61ZM131.38 235.84C131.153 235.9 130.877 235.96 130.55 236.02C130.23 236.08 129.88 236.11 129.5 236.11C129.113 236.11 128.797 236.057 128.55 235.95C128.303 235.843 128.107 235.693 127.96 235.5C127.82 235.3 127.723 235.067 127.67 234.8C127.617 234.533 127.59 234.24 127.59 233.92V231.3H128.82V233.76C128.82 234.193 128.87 234.517 128.97 234.73C129.077 234.937 129.28 235.04 129.58 235.04C129.767 235.04 129.953 235.023 130.14 234.99V231.3H131.38V235.84ZM136.67 235.8C136.65 235.813 136.603 235.837 136.53 235.87C136.463 235.903 136.373 235.94 136.26 235.98C136.147 236.013 136.007 236.043 135.84 236.07C135.68 236.097 135.497 236.11 135.29 236.11C134.723 236.11 134.31 235.943 134.05 235.61C133.79 235.27 133.66 234.777 133.66 234.13V230.14H132.36V229.12H134.89V234.22C134.89 234.54 134.953 234.757 135.08 234.87C135.207 234.983 135.367 235.04 135.56 235.04C135.807 235.04 136.013 235.007 136.18 234.94C136.347 234.873 136.457 234.83 136.51 234.81L136.67 235.8ZM138.43 232.32H137.36V231.3H138.43V230.12L139.66 229.92V231.3H141.63V232.32H139.66V234.22C139.66 234.393 139.677 234.533 139.71 234.64C139.743 234.747 139.79 234.83 139.85 234.89C139.91 234.95 139.983 234.99 140.07 235.01C140.157 235.03 140.253 235.04 140.36 235.04C140.473 235.04 140.577 235.037 140.67 235.03C140.77 235.023 140.863 235.013 140.95 235C141.043 234.98 141.137 234.953 141.23 234.92C141.33 234.887 141.437 234.843 141.55 234.79L141.72 235.85C141.493 235.943 141.247 236.01 140.98 236.05C140.72 236.09 140.467 236.11 140.22 236.11C139.933 236.11 139.68 236.087 139.46 236.04C139.24 235.993 139.053 235.903 138.9 235.77C138.747 235.637 138.63 235.45 138.55 235.21C138.47 234.963 138.43 234.643 138.43 234.25V232.32ZM144.84 229.95C144.84 230.19 144.763 230.38 144.61 230.52C144.457 230.66 144.273 230.73 144.06 230.73C143.847 230.73 143.663 230.66 143.51 230.52C143.363 230.38 143.29 230.19 143.29 229.95C143.29 229.703 143.363 229.51 143.51 229.37C143.663 229.23 143.847 229.16 144.06 229.16C144.273 229.16 144.457 229.23 144.61 229.37C144.763 229.51 144.84 229.703 144.84 229.95ZM146.67 235.8C146.417 235.92 146.177 236 145.95 236.04C145.73 236.087 145.527 236.11 145.34 236.11C145.02 236.11 144.75 236.063 144.53 235.97C144.317 235.877 144.143 235.743 144.01 235.57C143.883 235.39 143.793 235.173 143.74 234.92C143.687 234.667 143.66 234.377 143.66 234.05V232.32H142.36V231.3H144.89V234.21C144.89 234.49 144.94 234.7 145.04 234.84C145.147 234.973 145.32 235.04 145.56 235.04C145.673 235.04 145.81 235.027 145.97 235C146.13 234.967 146.31 234.903 146.51 234.81L146.67 235.8ZM150.44 233.69C150.44 233.27 150.357 232.927 150.19 232.66C150.023 232.387 149.77 232.25 149.43 232.25C149.337 232.25 149.237 232.257 149.13 232.27C149.023 232.277 148.933 232.283 148.86 232.29V234.87C148.94 234.923 149.047 234.967 149.18 235C149.313 235.033 149.447 235.05 149.58 235.05C149.873 235.05 150.09 234.933 150.23 234.7C150.37 234.46 150.44 234.123 150.44 233.69ZM151.69 233.65C151.69 234.01 151.65 234.343 151.57 234.65C151.49 234.95 151.373 235.21 151.22 235.43C151.067 235.643 150.873 235.81 150.64 235.93C150.407 236.05 150.137 236.11 149.83 236.11C149.517 236.11 149.193 236.033 148.86 235.88V237.65H147.63V231.45C147.857 231.377 148.133 231.317 148.46 231.27C148.793 231.223 149.12 231.2 149.44 231.2C150.167 231.2 150.723 231.42 151.11 231.86C151.497 232.3 151.69 232.897 151.69 233.65ZM156.67 235.8C156.65 235.813 156.603 235.837 156.53 235.87C156.463 235.903 156.373 235.94 156.26 235.98C156.147 236.013 156.007 236.043 155.84 236.07C155.68 236.097 155.497 236.11 155.29 236.11C154.723 236.11 154.31 235.943 154.05 235.61C153.79 235.27 153.66 234.777 153.66 234.13V230.14H152.36V229.12H154.89V234.22C154.89 234.54 154.953 234.757 155.08 234.87C155.207 234.983 155.367 235.04 155.56 235.04C155.807 235.04 156.013 235.007 156.18 234.94C156.347 234.873 156.457 234.83 156.51 234.81L156.67 235.8ZM161.72 231.3C161.593 231.74 161.47 232.173 161.35 232.6C161.237 233.02 161.117 233.433 160.99 233.84C160.863 234.24 160.727 234.633 160.58 235.02C160.44 235.407 160.287 235.783 160.12 236.15C159.993 236.417 159.867 236.647 159.74 236.84C159.62 237.033 159.483 237.19 159.33 237.31C159.183 237.437 159.017 237.53 158.83 237.59C158.65 237.65 158.437 237.68 158.19 237.68C157.983 237.68 157.793 237.663 157.62 237.63C157.453 237.597 157.313 237.553 157.2 237.5L157.43 236.47C157.563 236.53 157.68 236.57 157.78 236.59C157.887 236.617 158 236.63 158.12 236.63C158.36 236.63 158.553 236.55 158.7 236.39C158.847 236.23 158.963 236.04 159.05 235.82C158.757 235.233 158.463 234.563 158.17 233.81C157.877 233.05 157.61 232.213 157.37 231.3H158.65C158.71 231.547 158.777 231.81 158.85 232.09C158.93 232.37 159.013 232.65 159.1 232.93C159.187 233.21 159.277 233.487 159.37 233.76C159.47 234.027 159.57 234.277 159.67 234.51C159.737 234.277 159.807 234.027 159.88 233.76C159.953 233.487 160.023 233.213 160.09 232.94C160.157 232.66 160.22 232.38 160.28 232.1C160.347 231.82 160.407 231.553 160.46 231.3H161.72Z" fill="#0079F1"/>
<path d="M115.96 127.13C115.087 127.13 114.42 126.85 113.96 126.29C113.5 125.73 113.27 124.933 113.27 123.9C113.27 123.387 113.34 122.93 113.48 122.53C113.62 122.13 113.813 121.793 114.06 121.52C114.313 121.24 114.61 121.03 114.95 120.89C115.297 120.743 115.673 120.67 116.08 120.67C116.3 120.67 116.497 120.69 116.67 120.73C116.85 120.763 117.007 120.803 117.14 120.85C117.273 120.897 117.383 120.947 117.47 121C117.563 121.053 117.633 121.093 117.68 121.12L117.36 122.1C117.207 122 117.02 121.917 116.8 121.85C116.587 121.777 116.34 121.74 116.06 121.74C115.867 121.74 115.677 121.777 115.49 121.85C115.31 121.917 115.147 122.033 115 122.2C114.86 122.36 114.743 122.577 114.65 122.85C114.563 123.123 114.52 123.463 114.52 123.87C114.52 124.577 114.64 125.12 114.88 125.5C115.127 125.873 115.527 126.06 116.08 126.06C116.4 126.06 116.663 126.023 116.87 125.95C117.083 125.877 117.253 125.803 117.38 125.73L117.69 126.7C117.517 126.807 117.28 126.907 116.98 127C116.687 127.087 116.347 127.13 115.96 127.13ZM122.72 124.64C122.72 125.013 122.667 125.353 122.56 125.66C122.453 125.96 122.303 126.22 122.11 126.44C121.917 126.66 121.683 126.83 121.41 126.95C121.143 127.07 120.843 127.13 120.51 127.13C120.177 127.13 119.873 127.07 119.6 126.95C119.333 126.83 119.1 126.66 118.9 126.44C118.707 126.22 118.557 125.96 118.45 125.66C118.343 125.353 118.29 125.013 118.29 124.64C118.29 124.273 118.343 123.94 118.45 123.64C118.563 123.333 118.717 123.073 118.91 122.86C119.11 122.64 119.347 122.473 119.62 122.36C119.893 122.24 120.19 122.18 120.51 122.18C120.837 122.18 121.133 122.24 121.4 122.36C121.673 122.473 121.907 122.64 122.1 122.86C122.3 123.073 122.453 123.333 122.56 123.64C122.667 123.94 122.72 124.273 122.72 124.64ZM119.54 124.65C119.54 125.07 119.613 125.41 119.76 125.67C119.913 125.93 120.157 126.06 120.49 126.06C120.81 126.06 121.05 125.93 121.21 125.67C121.377 125.41 121.46 125.07 121.46 124.65C121.46 124.23 121.383 123.893 121.23 123.64C121.083 123.38 120.843 123.25 120.51 123.25C120.19 123.25 119.947 123.38 119.78 123.64C119.62 123.893 119.54 124.23 119.54 124.65ZM125.28 126.07C125.58 126.07 125.81 126.05 125.97 126.01C126.13 125.963 126.21 125.873 126.21 125.74C126.21 125.653 126.183 125.58 126.13 125.52C126.083 125.46 126.013 125.41 125.92 125.37C125.833 125.323 125.73 125.28 125.61 125.24C125.497 125.2 125.377 125.16 125.25 125.12C125.07 125.067 124.887 125.007 124.7 124.94C124.513 124.867 124.343 124.777 124.19 124.67C124.037 124.563 123.91 124.43 123.81 124.27C123.71 124.103 123.66 123.897 123.66 123.65C123.66 123.45 123.697 123.263 123.77 123.09C123.85 122.91 123.97 122.753 124.13 122.62C124.297 122.48 124.507 122.373 124.76 122.3C125.013 122.22 125.317 122.18 125.67 122.18C125.977 122.18 126.26 122.203 126.52 122.25C126.787 122.297 127.017 122.363 127.21 122.45L127.02 123.49C126.907 123.457 126.73 123.403 126.49 123.33C126.25 123.25 125.98 123.21 125.68 123.21C125.367 123.21 125.153 123.25 125.04 123.33C124.933 123.403 124.88 123.483 124.88 123.57C124.88 123.643 124.903 123.71 124.95 123.77C125.003 123.823 125.07 123.873 125.15 123.92C125.237 123.967 125.333 124.013 125.44 124.06C125.553 124.1 125.673 124.14 125.8 124.18C125.98 124.24 126.167 124.307 126.36 124.38C126.553 124.453 126.727 124.547 126.88 124.66C127.04 124.767 127.17 124.907 127.27 125.08C127.37 125.247 127.42 125.453 127.42 125.7C127.42 125.893 127.383 126.077 127.31 126.25C127.237 126.423 127.113 126.573 126.94 126.7C126.773 126.827 126.553 126.927 126.28 127C126.007 127.073 125.67 127.11 125.27 127.11C124.863 127.11 124.517 127.063 124.23 126.97C123.943 126.877 123.713 126.793 123.54 126.72L123.73 125.69C123.963 125.783 124.21 125.87 124.47 125.95C124.737 126.03 125.007 126.07 125.28 126.07Z" fill="#0079F1"/>
<path d="M112.04 114L111.67 112.38H109.29L108.93 114H108.09C108.203 113.56 108.33 113.083 108.47 112.57C108.61 112.057 108.76 111.53 108.92 110.99C109.087 110.45 109.26 109.91 109.44 109.37C109.62 108.823 109.81 108.303 110.01 107.81H111.03C111.223 108.303 111.407 108.823 111.58 109.37C111.76 109.91 111.927 110.45 112.08 110.99C112.24 111.53 112.39 112.057 112.53 112.57C112.67 113.083 112.797 113.56 112.91 114H112.04ZM110.49 108.53C110.337 108.95 110.17 109.437 109.99 109.99C109.81 110.543 109.64 111.113 109.48 111.7H111.48C111.327 111.1 111.16 110.523 110.98 109.97C110.807 109.41 110.643 108.93 110.49 108.53ZM113.71 109.49C114.01 109.417 114.307 109.36 114.6 109.32C114.9 109.28 115.18 109.26 115.44 109.26C116.06 109.26 116.527 109.42 116.84 109.74C117.16 110.06 117.32 110.573 117.32 111.28V114H116.5V111.43C116.5 111.13 116.473 110.887 116.42 110.7C116.367 110.513 116.29 110.37 116.19 110.27C116.097 110.163 115.98 110.09 115.84 110.05C115.707 110.01 115.56 109.99 115.4 109.99C115.267 109.99 115.123 110 114.97 110.02C114.823 110.033 114.68 110.053 114.54 110.08V114H113.71V109.49ZM121.46 113.57C121.367 113.623 121.223 113.68 121.03 113.74C120.837 113.8 120.613 113.83 120.36 113.83C120.087 113.83 119.83 113.787 119.59 113.7C119.357 113.607 119.15 113.47 118.97 113.29C118.797 113.103 118.657 112.87 118.55 112.59C118.45 112.303 118.4 111.967 118.4 111.58C118.4 111.24 118.447 110.93 118.54 110.65C118.64 110.363 118.78 110.117 118.96 109.91C119.147 109.703 119.373 109.543 119.64 109.43C119.907 109.31 120.21 109.25 120.55 109.25C120.95 109.25 121.29 109.28 121.57 109.34C121.857 109.393 122.097 109.447 122.29 109.5V113.64C122.29 114.36 122.107 114.88 121.74 115.2C121.38 115.52 120.833 115.68 120.1 115.68C119.8 115.68 119.527 115.657 119.28 115.61C119.04 115.563 118.827 115.507 118.64 115.44L118.79 114.71C118.963 114.783 119.16 114.843 119.38 114.89C119.607 114.937 119.853 114.96 120.12 114.96C120.6 114.96 120.943 114.863 121.15 114.67C121.357 114.477 121.46 114.163 121.46 113.73V113.57ZM121.46 110.09C121.38 110.063 121.27 110.04 121.13 110.02C120.99 109.993 120.8 109.98 120.56 109.98C120.133 109.98 119.807 110.127 119.58 110.42C119.36 110.713 119.25 111.103 119.25 111.59C119.25 111.857 119.28 112.087 119.34 112.28C119.407 112.467 119.493 112.623 119.6 112.75C119.713 112.87 119.84 112.96 119.98 113.02C120.12 113.073 120.27 113.1 120.43 113.1C120.637 113.1 120.83 113.07 121.01 113.01C121.197 112.95 121.347 112.88 121.46 112.8V110.09ZM126.38 114.11C126.087 114.11 125.843 114.07 125.65 113.99C125.457 113.91 125.303 113.79 125.19 113.63C125.077 113.47 124.997 113.273 124.95 113.04C124.903 112.8 124.88 112.523 124.88 112.21V107.82H123.54V107.12H125.7V112.21C125.7 112.443 125.713 112.633 125.74 112.78C125.773 112.927 125.82 113.047 125.88 113.14C125.947 113.227 126.027 113.287 126.12 113.32C126.213 113.353 126.323 113.37 126.45 113.37C126.643 113.37 126.823 113.347 126.99 113.3C127.157 113.253 127.287 113.203 127.38 113.15L127.5 113.85C127.46 113.87 127.403 113.897 127.33 113.93C127.257 113.957 127.17 113.983 127.07 114.01C126.97 114.037 126.86 114.06 126.74 114.08C126.627 114.1 126.507 114.11 126.38 114.11ZM130.59 109.25C131.217 109.25 131.7 109.447 132.04 109.84C132.38 110.227 132.55 110.817 132.55 111.61V111.9H129.23C129.263 112.38 129.42 112.747 129.7 113C129.987 113.247 130.387 113.37 130.9 113.37C131.193 113.37 131.443 113.347 131.65 113.3C131.857 113.253 132.013 113.203 132.12 113.15L132.23 113.85C132.13 113.903 131.95 113.96 131.69 114.02C131.43 114.08 131.137 114.11 130.81 114.11C130.41 114.11 130.057 114.05 129.75 113.93C129.45 113.803 129.2 113.633 129 113.42C128.8 113.207 128.65 112.953 128.55 112.66C128.45 112.36 128.4 112.037 128.4 111.69C128.4 111.277 128.463 110.917 128.59 110.61C128.717 110.303 128.883 110.05 129.09 109.85C129.297 109.65 129.53 109.5 129.79 109.4C130.05 109.3 130.317 109.25 130.59 109.25ZM131.71 111.23C131.71 110.837 131.607 110.527 131.4 110.3C131.193 110.067 130.92 109.95 130.58 109.95C130.387 109.95 130.21 109.987 130.05 110.06C129.897 110.133 129.763 110.23 129.65 110.35C129.537 110.47 129.447 110.607 129.38 110.76C129.313 110.913 129.27 111.07 129.25 111.23H131.71Z" fill="#00E430"/>
<path d="M65.04 226L64.67 224.38H62.29L61.93 226H61.09C61.2033 225.56 61.33 225.083 61.47 224.57C61.61 224.057 61.76 223.53 61.92 222.99C62.0867 222.45 62.26 221.91 62.44 221.37C62.62 220.823 62.81 220.303 63.01 219.81H64.03C64.2233 220.303 64.4067 220.823 64.58 221.37C64.76 221.91 64.9267 222.45 65.08 222.99C65.24 223.53 65.39 224.057 65.53 224.57C65.67 225.083 65.7967 225.56 65.91 226H65.04ZM63.49 220.53C63.3367 220.95 63.17 221.437 62.99 221.99C62.81 222.543 62.64 223.113 62.48 223.7H64.48C64.3267 223.1 64.16 222.523 63.98 221.97C63.8067 221.41 63.6433 220.93 63.49 220.53Z" fill="#00E430"/>
<path d="M64.08 272L63.34 268.76H58.58L57.86 272H56.18C56.4067 271.12 56.66 270.167 56.94 269.14C57.22 268.113 57.52 267.06 57.84 265.98C58.1733 264.9 58.52 263.82 58.88 262.74C59.24 261.647 59.62 260.607 60.02 259.62H62.06C62.4467 260.607 62.8133 261.647 63.16 262.74C63.52 263.82 63.8533 264.9 64.16 265.98C64.48 267.06 64.78 268.113 65.06 269.14C65.34 270.167 65.5933 271.12 65.82 272H64.08ZM60.98 261.06C60.6733 261.9 60.34 262.873 59.98 263.98C59.62 265.087 59.28 266.227 58.96 267.4H62.96C62.6533 266.2 62.32 265.047 61.96 263.94C61.6133 262.82 61.2867 261.86 60.98 261.06ZM71.74 263.66C72.1 263.993 72.4733 264.347 72.86 264.72C73.2467 265.08 73.5733 265.467 73.84 265.88L73.92 265.98L72.52 267L72.42 266.88C72.14 266.48 71.8867 266.047 71.66 265.58C71.4333 265.1 71.22 264.64 71.02 264.2C70.8067 264.64 70.5867 265.1 70.36 265.58C70.1333 266.047 69.8667 266.48 69.56 266.88L69.46 266.98L68.08 265.98L68.18 265.86C68.4733 265.447 68.8067 265.06 69.18 264.7C69.5533 264.34 69.92 263.993 70.28 263.66C69.7867 263.593 69.28 263.527 68.76 263.46C68.24 263.38 67.7467 263.26 67.28 263.1L67.14 263.06L67.68 261.42L67.82 261.48C68.2867 261.667 68.7533 261.873 69.22 262.1C69.7 262.327 70.1533 262.56 70.58 262.8C70.4733 262.32 70.3733 261.82 70.28 261.3C70.2 260.78 70.16 260.267 70.16 259.76V259.62H71.88V259.76C71.88 260.267 71.8333 260.78 71.74 261.3C71.66 261.82 71.5667 262.32 71.46 262.8C71.8867 262.547 72.3333 262.313 72.8 262.1C73.2667 261.873 73.7333 261.673 74.2 261.5L74.34 261.44L74.86 263.08L74.74 263.12C74.26 263.267 73.76 263.38 73.24 263.46C72.7333 263.54 72.2333 263.607 71.74 263.66ZM80.08 272.1C79.88 272.1 79.6467 272.093 79.38 272.08C79.1133 272.067 78.8467 272.047 78.58 272.02C78.3133 272.007 78.0467 271.98 77.78 271.94C77.5133 271.9 77.28 271.853 77.08 271.8V259.8C77.28 259.747 77.5067 259.7 77.76 259.66C78.0267 259.62 78.2933 259.593 78.56 259.58C78.84 259.553 79.1067 259.533 79.36 259.52C79.6267 259.507 79.8667 259.5 80.08 259.5C80.6933 259.5 81.2667 259.553 81.8 259.66C82.3333 259.767 82.7933 259.947 83.18 260.2C83.58 260.453 83.8867 260.787 84.1 261.2C84.3267 261.613 84.44 262.127 84.44 262.74C84.44 263.033 84.3933 263.32 84.3 263.6C84.2067 263.867 84.0733 264.12 83.9 264.36C83.74 264.6 83.5467 264.813 83.32 265C83.1067 265.173 82.8733 265.307 82.62 265.4C83.3 265.587 83.8667 265.933 84.32 266.44C84.7867 266.933 85.02 267.58 85.02 268.38C85.02 269.607 84.6267 270.533 83.84 271.16C83.0533 271.787 81.8 272.1 80.08 272.1ZM78.72 266.22V270.64C78.7467 270.653 78.8933 270.673 79.16 270.7C79.44 270.713 79.7867 270.72 80.2 270.72C80.6133 270.72 81.0067 270.687 81.38 270.62C81.7667 270.553 82.1067 270.433 82.4 270.26C82.6933 270.073 82.9267 269.833 83.1 269.54C83.2867 269.247 83.38 268.867 83.38 268.4C83.38 267.987 83.2933 267.64 83.12 267.36C82.96 267.08 82.74 266.86 82.46 266.7C82.1933 266.527 81.88 266.407 81.52 266.34C81.16 266.26 80.7867 266.22 80.4 266.22H78.72ZM78.72 264.86H80.02C80.3533 264.86 80.6867 264.827 81.02 264.76C81.3533 264.693 81.6533 264.587 81.92 264.44C82.1867 264.293 82.4 264.093 82.56 263.84C82.72 263.587 82.8 263.267 82.8 262.88C82.8 262.52 82.7267 262.213 82.58 261.96C82.4333 261.707 82.24 261.5 82 261.34C81.76 261.18 81.48 261.067 81.16 261C80.8533 260.933 80.5267 260.9 80.18 260.9C79.8333 260.9 79.5267 260.907 79.26 260.92C79.0067 260.92 78.8267 260.933 78.72 260.96V264.86Z" fill="#00E430"/>
<path d="M135.08 271L134.34 267.76H129.58L128.86 271H127.18C127.407 270.12 127.66 269.167 127.94 268.14C128.22 267.113 128.52 266.06 128.84 264.98C129.173 263.9 129.52 262.82 129.88 261.74C130.24 260.647 130.62 259.607 131.02 258.62H133.06C133.447 259.607 133.813 260.647 134.16 261.74C134.52 262.82 134.853 263.9 135.16 264.98C135.48 266.06 135.78 267.113 136.06 268.14C136.34 269.167 136.593 270.12 136.82 271H135.08ZM131.98 260.06C131.673 260.9 131.34 261.873 130.98 262.98C130.62 264.087 130.28 265.227 129.96 266.4H133.96C133.653 265.2 133.32 264.047 132.96 262.94C132.613 261.82 132.287 260.86 131.98 260.06ZM142.74 262.66C143.1 262.993 143.473 263.347 143.86 263.72C144.247 264.08 144.573 264.467 144.84 264.88L144.92 264.98L143.52 266L143.42 265.88C143.14 265.48 142.887 265.047 142.66 264.58C142.433 264.1 142.22 263.64 142.02 263.2C141.807 263.64 141.587 264.1 141.36 264.58C141.133 265.047 140.867 265.48 140.56 265.88L140.46 265.98L139.08 264.98L139.18 264.86C139.473 264.447 139.807 264.06 140.18 263.7C140.553 263.34 140.92 262.993 141.28 262.66C140.787 262.593 140.28 262.527 139.76 262.46C139.24 262.38 138.747 262.26 138.28 262.1L138.14 262.06L138.68 260.42L138.82 260.48C139.287 260.667 139.753 260.873 140.22 261.1C140.7 261.327 141.153 261.56 141.58 261.8C141.473 261.32 141.373 260.82 141.28 260.3C141.2 259.78 141.16 259.267 141.16 258.76V258.62H142.88V258.76C142.88 259.267 142.833 259.78 142.74 260.3C142.66 260.82 142.567 261.32 142.46 261.8C142.887 261.547 143.333 261.313 143.8 261.1C144.267 260.873 144.733 260.673 145.2 260.5L145.34 260.44L145.86 262.08L145.74 262.12C145.26 262.267 144.76 262.38 144.24 262.46C143.733 262.54 143.233 262.607 142.74 262.66ZM151.08 271.1C150.88 271.1 150.647 271.093 150.38 271.08C150.113 271.067 149.847 271.047 149.58 271.02C149.313 271.007 149.047 270.98 148.78 270.94C148.513 270.9 148.28 270.853 148.08 270.8V258.8C148.28 258.747 148.507 258.7 148.76 258.66C149.027 258.62 149.293 258.593 149.56 258.58C149.84 258.553 150.107 258.533 150.36 258.52C150.627 258.507 150.867 258.5 151.08 258.5C151.693 258.5 152.267 258.553 152.8 258.66C153.333 258.767 153.793 258.947 154.18 259.2C154.58 259.453 154.887 259.787 155.1 260.2C155.327 260.613 155.44 261.127 155.44 261.74C155.44 262.033 155.393 262.32 155.3 262.6C155.207 262.867 155.073 263.12 154.9 263.36C154.74 263.6 154.547 263.813 154.32 264C154.107 264.173 153.873 264.307 153.62 264.4C154.3 264.587 154.867 264.933 155.32 265.44C155.787 265.933 156.02 266.58 156.02 267.38C156.02 268.607 155.627 269.533 154.84 270.16C154.053 270.787 152.8 271.1 151.08 271.1ZM149.72 265.22V269.64C149.747 269.653 149.893 269.673 150.16 269.7C150.44 269.713 150.787 269.72 151.2 269.72C151.613 269.72 152.007 269.687 152.38 269.62C152.767 269.553 153.107 269.433 153.4 269.26C153.693 269.073 153.927 268.833 154.1 268.54C154.287 268.247 154.38 267.867 154.38 267.4C154.38 266.987 154.293 266.64 154.12 266.36C153.96 266.08 153.74 265.86 153.46 265.7C153.193 265.527 152.88 265.407 152.52 265.34C152.16 265.26 151.787 265.22 151.4 265.22H149.72ZM149.72 263.86H151.02C151.353 263.86 151.687 263.827 152.02 263.76C152.353 263.693 152.653 263.587 152.92 263.44C153.187 263.293 153.4 263.093 153.56 262.84C153.72 262.587 153.8 262.267 153.8 261.88C153.8 261.52 153.727 261.213 153.58 260.96C153.433 260.707 153.24 260.5 153 260.34C152.76 260.18 152.48 260.067 152.16 260C151.853 259.933 151.527 259.9 151.18 259.9C150.833 259.9 150.527 259.907 150.26 259.92C150.007 259.92 149.827 259.933 149.72 259.96V263.86Z" fill="#00E430"/>
<path d="M135.04 223L134.67 221.38H132.29L131.93 223H131.09C131.203 222.56 131.33 222.083 131.47 221.57C131.61 221.057 131.76 220.53 131.92 219.99C132.087 219.45 132.26 218.91 132.44 218.37C132.62 217.823 132.81 217.303 133.01 216.81H134.03C134.223 217.303 134.407 217.823 134.58 218.37C134.76 218.91 134.927 219.45 135.08 219.99C135.24 220.53 135.39 221.057 135.53 221.57C135.67 222.083 135.797 222.56 135.91 223H135.04ZM133.49 217.53C133.337 217.95 133.17 218.437 132.99 218.99C132.81 219.543 132.64 220.113 132.48 220.7H134.48C134.327 220.1 134.16 219.523 133.98 218.97C133.807 218.41 133.643 217.93 133.49 217.53Z" fill="#00E430"/>
<path d="M77.04 225.05C76.94 225.05 76.8233 225.047 76.69 225.04C76.5567 225.033 76.4233 225.023 76.29 225.01C76.1567 225.003 76.0233 224.99 75.89 224.97C75.7567 224.95 75.64 224.927 75.54 224.9V218.9C75.64 218.873 75.7533 218.85 75.88 218.83C76.0133 218.81 76.1467 218.797 76.28 218.79C76.42 218.777 76.5533 218.767 76.68 218.76C76.8133 218.753 76.9333 218.75 77.04 218.75C77.3467 218.75 77.6333 218.777 77.9 218.83C78.1667 218.883 78.3967 218.973 78.59 219.1C78.79 219.227 78.9433 219.393 79.05 219.6C79.1633 219.807 79.22 220.063 79.22 220.37C79.22 220.517 79.1967 220.66 79.15 220.8C79.1033 220.933 79.0367 221.06 78.95 221.18C78.87 221.3 78.7733 221.407 78.66 221.5C78.5533 221.587 78.4367 221.653 78.31 221.7C78.65 221.793 78.9333 221.967 79.16 222.22C79.3933 222.467 79.51 222.79 79.51 223.19C79.51 223.803 79.3133 224.267 78.92 224.58C78.5267 224.893 77.9 225.05 77.04 225.05ZM76.36 222.11V224.32C76.3733 224.327 76.4467 224.337 76.58 224.35C76.72 224.357 76.8933 224.36 77.1 224.36C77.3067 224.36 77.5033 224.343 77.69 224.31C77.8833 224.277 78.0533 224.217 78.2 224.13C78.3467 224.037 78.4633 223.917 78.55 223.77C78.6433 223.623 78.69 223.433 78.69 223.2C78.69 222.993 78.6467 222.82 78.56 222.68C78.48 222.54 78.37 222.43 78.23 222.35C78.0967 222.263 77.94 222.203 77.76 222.17C77.58 222.13 77.3933 222.11 77.2 222.11H76.36ZM76.36 221.43H77.01C77.1767 221.43 77.3433 221.413 77.51 221.38C77.6767 221.347 77.8267 221.293 77.96 221.22C78.0933 221.147 78.2 221.047 78.28 220.92C78.36 220.793 78.4 220.633 78.4 220.44C78.4 220.26 78.3633 220.107 78.29 219.98C78.2167 219.853 78.12 219.75 78 219.67C77.88 219.59 77.74 219.533 77.58 219.5C77.4267 219.467 77.2633 219.45 77.09 219.45C76.9167 219.45 76.7633 219.453 76.63 219.46C76.5033 219.46 76.4133 219.467 76.36 219.48V221.43Z" fill="#00E430"/>
<path d="M147.04 223.05C146.94 223.05 146.823 223.047 146.69 223.04C146.557 223.033 146.423 223.023 146.29 223.01C146.157 223.003 146.023 222.99 145.89 222.97C145.757 222.95 145.64 222.927 145.54 222.9V216.9C145.64 216.873 145.753 216.85 145.88 216.83C146.013 216.81 146.147 216.797 146.28 216.79C146.42 216.777 146.553 216.767 146.68 216.76C146.813 216.753 146.933 216.75 147.04 216.75C147.347 216.75 147.633 216.777 147.9 216.83C148.167 216.883 148.397 216.973 148.59 217.1C148.79 217.227 148.943 217.393 149.05 217.6C149.163 217.807 149.22 218.063 149.22 218.37C149.22 218.517 149.197 218.66 149.15 218.8C149.103 218.933 149.037 219.06 148.95 219.18C148.87 219.3 148.773 219.407 148.66 219.5C148.553 219.587 148.437 219.653 148.31 219.7C148.65 219.793 148.933 219.967 149.16 220.22C149.393 220.467 149.51 220.79 149.51 221.19C149.51 221.803 149.313 222.267 148.92 222.58C148.527 222.893 147.9 223.05 147.04 223.05ZM146.36 220.11V222.32C146.373 222.327 146.447 222.337 146.58 222.35C146.72 222.357 146.893 222.36 147.1 222.36C147.307 222.36 147.503 222.343 147.69 222.31C147.883 222.277 148.053 222.217 148.2 222.13C148.347 222.037 148.463 221.917 148.55 221.77C148.643 221.623 148.69 221.433 148.69 221.2C148.69 220.993 148.647 220.82 148.56 220.68C148.48 220.54 148.37 220.43 148.23 220.35C148.097 220.263 147.94 220.203 147.76 220.17C147.58 220.13 147.393 220.11 147.2 220.11H146.36ZM146.36 219.43H147.01C147.177 219.43 147.343 219.413 147.51 219.38C147.677 219.347 147.827 219.293 147.96 219.22C148.093 219.147 148.2 219.047 148.28 218.92C148.36 218.793 148.4 218.633 148.4 218.44C148.4 218.26 148.363 218.107 148.29 217.98C148.217 217.853 148.12 217.75 148 217.67C147.88 217.59 147.74 217.533 147.58 217.5C147.427 217.467 147.263 217.45 147.09 217.45C146.917 217.45 146.763 217.453 146.63 217.46C146.503 217.46 146.413 217.467 146.36 217.48V219.43Z" fill="#00E430"/>
</svg>
